<?xml version="1.0" encoding="utf-8"?>
<!-- Generator: Adobe Illustrator 24.0.0, SVG Export Plug-In . SVG Version: 6.00 Build 0)  -->
<svg version="1.1" id="Capa_1" xmlns="http://www.w3.org/2000/svg" xmlns:xlink="http://www.w3.org/1999/xlink" x="0px" y="0px"
	 viewBox="0 0 213.2 24.5" style="enable-background:new 0 0 213.2 24.5;" xml:space="preserve">
<g>
	<g>
		<path d="M192.5,7.9c-0.2-0.5-0.2-1,0.1-1.6c0.3-0.6,0.7-0.9,1.3-0.9c0.6,0,1.1,0.1,1.6,0.4c0.5,0.3,1,0.8,1.7,1.4
			c0.7,0.7,1.5,1.4,2.4,2.3c0.9,0.9,2,1.8,3.2,2.7l-0.2,0.3c-1.4-0.6-2.6-1.1-3.8-1.5c-1.2-0.4-2.2-0.7-3.1-1
			c-0.9-0.3-1.6-0.6-2.1-0.8C193.1,8.8,192.8,8.4,192.5,7.9z M193.9,19.1c-0.6,0-1-0.3-1.3-0.9c-0.3-0.6-0.3-1.1-0.1-1.6
			c0.2-0.5,0.6-0.9,1.1-1.2c0.5-0.3,1.2-0.6,2.1-0.8c0.9-0.3,2-0.6,3.1-1c1.2-0.4,2.5-0.9,3.9-1.5l0.2,0.3c-1.2,0.9-2.3,1.8-3.2,2.7
			c-0.9,0.9-1.7,1.6-2.4,2.3c-0.7,0.6-1.3,1.1-1.7,1.4C195,19.1,194.5,19.2,193.9,19.1z M201.4,0.7c0.3-0.5,0.8-0.7,1.4-0.7
			c0.6,0,1.1,0.2,1.4,0.7c0.3,0.5,0.5,1,0.5,1.6c0,0.6-0.1,1.4-0.3,2.3c-0.2,1-0.5,2.1-0.7,3.4c-0.3,1.3-0.5,2.7-0.7,4.3h-0.4
			c-0.2-1.5-0.4-3-0.6-4.3c-0.3-1.3-0.5-2.4-0.7-3.4c-0.2-1-0.3-1.8-0.3-2.3C200.9,1.7,201.1,1.2,201.4,0.7z M204.2,23.8
			c-0.3,0.5-0.8,0.7-1.5,0.7c-0.6,0-1.1-0.2-1.4-0.7c-0.3-0.5-0.5-1-0.5-1.6c0-0.6,0.1-1.3,0.3-2.3c0.2-1,0.5-2.1,0.7-3.4
			c0.3-1.3,0.5-2.7,0.6-4.3l0.4,0c0.2,1.5,0.4,3,0.7,4.2c0.3,1.3,0.5,2.4,0.7,3.4c0.2,1,0.3,1.7,0.3,2.3
			C204.7,22.8,204.6,23.4,204.2,23.8z M211.7,5.4c0.6,0.1,1,0.4,1.3,0.9c0.3,0.6,0.4,1.1,0.1,1.6c-0.2,0.5-0.6,0.9-1.1,1.2
			c-0.5,0.3-1.2,0.6-2.1,0.8c-0.9,0.2-2,0.6-3.1,0.9c-1.2,0.4-2.5,0.9-3.9,1.6l-0.2-0.3c1.2-0.9,2.3-1.8,3.2-2.7
			c0.9-0.9,1.7-1.6,2.4-2.3c0.7-0.7,1.3-1.1,1.8-1.4C210.6,5.4,211.1,5.3,211.7,5.4z M213.1,16.6c0.2,0.5,0.2,1.1-0.1,1.6
			c-0.3,0.5-0.7,0.8-1.3,0.9c-0.6,0.1-1.1-0.1-1.6-0.4c-0.5-0.3-1.1-0.8-1.7-1.4c-0.7-0.7-1.5-1.4-2.4-2.3c-0.9-0.9-2-1.8-3.2-2.7
			l0.2-0.3c1.4,0.6,2.7,1.1,3.9,1.5c1.2,0.4,2.2,0.7,3.1,1c0.9,0.3,1.6,0.6,2.1,0.8C212.5,15.7,212.8,16.1,213.1,16.6z"/>
	</g>
	<g>
		<path d="M21.6,14.8c0.3,0.6,0.5,1.2,0.5,1.8c0,0.6-0.2,1.2-0.5,1.8c-0.3,0.6-0.7,1-1.2,1.3c-0.5,0.3-1.1,0.4-1.7,0.4
			c-0.7,0-1.4-0.2-2.2-0.6c-0.7-0.4-1.2-0.8-1.6-1.3c-0.4-0.5-0.8-1.2-1.3-2.1c-0.4-0.6-0.7-1.2-1-1.6c-0.3-0.4-0.6-0.8-1-1.1
			c0.1,0.5,0.2,1,0.4,1.4c0.2,0.4,0.5,1,0.9,1.6c0.5,0.8,0.9,1.5,1.1,2.1c0.3,0.7,0.4,1.4,0.4,2.2c0,1.1-0.3,2-1,2.7
			c-0.7,0.7-1.5,1.1-2.5,1.1c-1,0-1.9-0.4-2.5-1.1c-0.7-0.7-1-1.6-1-2.7c0-0.8,0.1-1.4,0.4-2.1c0.3-0.6,0.6-1.3,1.2-2.1
			c0.4-0.7,0.7-1.3,1-1.7c0.2-0.4,0.4-0.9,0.5-1.5c-0.4,0.3-0.7,0.6-0.9,1c-0.3,0.4-0.5,0.7-0.7,1.1c-0.2,0.3-0.3,0.6-0.4,0.7
			c-0.4,0.8-0.9,1.5-1.3,2c-0.4,0.5-1,1-1.7,1.5c-0.7,0.4-1.4,0.6-2.1,0.6c-0.6,0-1.2-0.2-1.7-0.5c-0.5-0.3-1-0.7-1.3-1.3
			C0.2,17.8,0,17.2,0,16.5c0-0.6,0.2-1.2,0.5-1.8c0.3-0.5,0.8-1,1.5-1.4c0.6-0.4,1.2-0.6,1.9-0.7c0.6-0.1,1.3-0.2,2.1-0.2
			c0.2,0,0.5,0,1.1,0c0.5,0,1,0,1.5-0.1c0.4,0,0.9-0.1,1.3-0.3c-0.7-0.2-1.5-0.3-2.6-0.3c-0.2,0-0.6,0-1.3,0c-0.7,0-1.4-0.1-2-0.2
			c-0.6-0.1-1.2-0.4-1.8-0.7c-0.6-0.4-1.1-0.8-1.5-1.4C0.2,9.1,0,8.5,0,7.9c0-0.6,0.2-1.2,0.5-1.8c0.6-1.2,1.6-1.7,2.9-1.7
			c0.7,0,1.4,0.2,2.1,0.6c0.7,0.4,1.2,0.9,1.6,1.4C7.6,6.8,8,7.5,8.5,8.4C8.8,9,9.1,9.6,9.4,10c0.3,0.4,0.7,0.8,1.1,1.2
			c-0.2-0.8-0.6-1.8-1.4-3.1C8.7,7.3,8.3,6.5,8,5.9C7.8,5.3,7.6,4.6,7.6,3.8c0-1.1,0.3-2,1-2.7C9.3,0.4,10.1,0,11.2,0
			c1,0,1.9,0.4,2.5,1.1c0.6,0.7,1,1.6,1,2.7c0,0.8-0.1,1.5-0.4,2.1c-0.2,0.6-0.6,1.3-1.1,2.2c-0.3,0.5-0.5,1-0.8,1.5
			c-0.3,0.5-0.5,1-0.5,1.5c0.4-0.3,0.7-0.7,1-1.1c0.3-0.4,0.6-0.9,0.9-1.6C14.1,7.6,14.6,7,15,6.4c0.4-0.5,1-1,1.7-1.4
			c0.7-0.4,1.4-0.6,2.1-0.6c0.6,0,1.2,0.1,1.7,0.4c0.5,0.3,0.9,0.7,1.2,1.3c0.3,0.5,0.5,1.1,0.5,1.8c0,0.6-0.2,1.2-0.5,1.8
			c-0.4,0.5-0.8,1-1.5,1.4c-1,0.5-2.1,0.8-3.4,0.8l-2.1,0c-1,0-1.8,0.1-2.5,0.4c0.7,0.2,1.6,0.4,2.8,0.4c0.2,0,0.6,0,1.3,0
			c0.7,0,1.4,0.1,2,0.2c0.6,0.1,1.2,0.3,1.7,0.6C20.8,13.8,21.3,14.3,21.6,14.8z"/>
	</g>
	<g>
		<path d="M163,13.5c-1.4,0.9-2.6,1.8-3.6,2.7c-0.9,0.9-2.1,2.1-3.4,3.5l-1-0.2l-2-3c-0.6-0.9-0.9-1.7-0.9-2.3
			c0-0.9,0.8-1.5,2.3-1.7c1.6-0.2,4-0.4,7.5-0.6h0.1c0.2,0,0.4,0.1,0.7,0.4C162.9,12.6,163,13,163,13.5L163,13.5z M162.6,11.5
			c-1.4-0.7-2.8-1.3-4.4-1.7c-1.5-0.4-3-0.8-4.4-1.1l-0.4-1l1.6-3.2c0.7-1.4,1.4-2.1,2.1-2.1c0.3,0,0.6,0.1,0.9,0.3
			c0.3,0.2,0.8,0.6,1.2,1.2c0.5,0.6,1,1.4,1.7,2.3c0.7,1,1.5,2.2,2.4,3.8c0.1,0.1,0.1,0.2,0.1,0.3c0,0.2-0.1,0.4-0.2,0.7
			C163.1,11.1,162.9,11.3,162.6,11.5z M164.7,14.2c0.1,1.1,0.3,2.2,0.5,3.6c0.2,1.3,0.7,3.2,1.4,5.5l-0.6,0.9l-3.6,0.2h-0.8
			c-1.6,0-2.4-0.5-2.4-1.6c0-0.8,0.3-1.9,0.9-3.2c0.6-1.3,1.5-3.1,2.7-5.3c0.1-0.3,0.4-0.4,1-0.4C164.2,14,164.5,14.1,164.7,14.2z
			 M164.2,10.3c-0.1-1.6-0.3-3.1-0.7-4.6c-0.3-1.5-0.8-3-1.2-4.6l0.6-0.8l4.4-0.3c1.6,0,2.4,0.6,2.4,1.7c0,0.6-0.2,1.5-0.7,2.7
			c-0.5,1.2-1.4,3.1-2.8,5.8c-0.2,0.2-0.5,0.3-1.1,0.3C164.8,10.4,164.5,10.4,164.2,10.3z M166.1,12.9c0.9,0.5,2,0.9,3.4,1.4
			c1.4,0.4,3.2,0.9,5.4,1.5l0.4,1l-1.6,3.2c-0.7,1.4-1.4,2.1-2.1,2.1c-0.7,0-1.6-0.6-2.5-1.9c-0.9-1.3-2.2-3.2-3.9-5.7
			c0-0.1,0-0.1,0-0.1c0,0,0-0.1,0-0.1c0-0.3,0.1-0.5,0.2-0.8C165.6,13.3,165.8,13.1,166.1,12.9z M165.8,11c1.1-0.6,2.1-1.4,3.2-2.3
			c1.1-1,2.3-2.3,3.8-3.8l1.1,0.2l2,3c0.6,0.9,0.9,1.7,0.9,2.3c0,0.9-0.8,1.5-2.4,1.7c-1.6,0.3-4.1,0.5-7.5,0.6
			c-0.3,0-0.5-0.2-0.8-0.5C166,11.9,165.8,11.5,165.8,11z"/>
	</g>
	<g>
		<path d="M59.9,18.5c-1,0-1.8-0.2-2.5-0.4c-0.7-0.2-1.5-0.6-2.3-1.1c-0.9-0.5-1.7-1.1-2.4-1.8c-0.7-0.7-1.5-1.4-2.3-2.1l-0.7,0.3
			c0.2,1.1,0.5,2.1,0.8,3c0.3,0.9,0.5,1.9,0.5,2.9c0,1-0.1,1.8-0.3,2.6c-0.2,0.8-0.5,1.6-0.9,2.5h-0.6c-0.4-0.9-0.7-1.7-0.9-2.5
			c-0.2-0.8-0.3-1.6-0.3-2.6c0-1.2,0.1-2.1,0.4-2.9c0.3-0.8,0.5-1.8,0.8-2.9l-0.6-0.3c-0.9,0.7-1.7,1.4-2.4,2
			c-0.6,0.7-1.4,1.3-2.3,1.8c-0.8,0.5-1.5,0.9-2.3,1c-0.7,0.2-1.6,0.3-2.6,0.3L38.7,18c0.6-0.9,1.1-1.5,1.6-2c0.5-0.5,1.2-0.9,2-1.4
			c1-0.6,2-1,2.8-1.1c0.9-0.2,1.8-0.4,2.9-0.7v-0.9c-1.1-0.4-2.1-0.7-3-0.9c-0.9-0.2-1.9-0.6-2.7-1.1c-0.8-0.5-1.5-1-2-1.5
			c-0.5-0.5-1.1-1.1-1.6-2L39,5.9c1,0,1.9,0.2,2.6,0.4c0.7,0.2,1.5,0.6,2.3,1.1c0.6,0.4,1.1,0.7,1.5,1c0.4,0.3,0.7,0.6,1,0.9
			c0.3,0.3,0.6,0.6,0.9,0.9c0.3,0.3,0.7,0.6,1.1,1l0.7-0.4c-0.2-1.1-0.5-2-0.8-2.9c-0.3-0.9-0.4-1.9-0.4-3c0-1,0.1-1.8,0.3-2.6
			c0.2-0.7,0.5-1.5,0.9-2.4h0.6c0.4,0.9,0.7,1.7,0.9,2.4C50.8,3.2,50.9,4,50.9,5s-0.1,1.9-0.4,2.8c-0.3,0.9-0.5,1.9-0.8,3l0.8,0.4
			c0.4-0.4,0.8-0.7,1.1-1c0.3-0.3,0.6-0.6,1-1c0.3-0.3,0.7-0.6,1.1-0.9C54,8,54.5,7.7,55.1,7.4c0.5-0.3,1-0.5,1.4-0.7
			c0.4-0.2,0.8-0.4,1.1-0.5c0.3-0.1,0.7-0.2,1.1-0.2c0.4-0.1,0.8-0.1,1.2-0.1l0.3,0.5c-0.5,0.8-1,1.5-1.5,1.9
			c-0.5,0.5-1.2,1-2.1,1.5c-1,0.6-2,1-2.8,1.2c-0.9,0.2-1.8,0.5-2.9,0.8v0.9c1.1,0.3,2.1,0.6,2.9,0.7c0.9,0.2,1.8,0.5,2.7,1.1
			c1,0.6,1.7,1.1,2.2,1.5c0.5,0.4,1,1.1,1.5,2L59.9,18.5z"/>
	</g>
	<g>
		<path d="M122.1,12.7c-0.9,0.3-1.8,0.6-2.7,1c-0.9,0.3-1.8,0.6-2.7,0.7h-0.5c-0.7,0-1.3-0.2-1.7-0.5c-0.5-0.4-0.7-0.9-0.7-1.6
			c0-0.7,0.2-1.3,0.7-1.6c0.5-0.4,1.1-0.5,1.7-0.5h0.5c0.9,0.1,1.8,0.4,2.7,0.7c0.9,0.3,1.8,0.7,2.7,1V12.7z M122.9,9.7
			c-0.5-0.3-1.2-0.5-1.9-0.8c-0.7-0.3-1.4-0.6-2-1c-0.6-0.4-1.2-0.8-1.6-1.2c-0.4-0.4-0.6-1-0.6-1.6c0-0.5,0.2-1,0.6-1.4
			c0.4-0.4,0.9-0.6,1.4-0.6c0.6,0,1.1,0.2,1.6,0.6c0.5,0.4,0.9,1,1.2,1.6c0.4,0.6,0.7,1.3,1,2c0.3,0.7,0.6,1.3,0.9,1.8L122.9,9.7z
			 M123.6,15.4c-0.3,0.5-0.6,1.2-0.9,1.9c-0.3,0.7-0.6,1.4-1,2c-0.4,0.6-0.8,1.2-1.2,1.6c-0.5,0.4-1,0.6-1.6,0.6
			c-0.5,0-1-0.2-1.4-0.6c-0.4-0.4-0.6-0.9-0.6-1.4c0-0.6,0.2-1.1,0.6-1.6c0.4-0.5,1-0.9,1.6-1.2c0.6-0.4,1.3-0.7,2-1
			c0.7-0.3,1.3-0.6,1.9-0.9L123.6,15.4z M125.6,8.3c-0.3-0.9-0.6-1.8-0.9-2.7c-0.4-0.9-0.6-1.8-0.7-2.7V2.5c0-0.7,0.2-1.3,0.5-1.7
			c0.4-0.5,0.9-0.7,1.6-0.7c0.7,0,1.3,0.2,1.6,0.7c0.4,0.5,0.5,1.1,0.5,1.7V3c-0.1,0.9-0.4,1.8-0.7,2.7c-0.4,0.9-0.7,1.8-0.9,2.7
			H125.6z M126.6,16.2c0.3,0.9,0.6,1.8,1,2.7c0.3,0.9,0.6,1.8,0.7,2.7V22c0,0.7-0.2,1.3-0.5,1.7c-0.4,0.5-0.9,0.7-1.6,0.7
			c-0.7,0-1.3-0.2-1.6-0.7c-0.4-0.5-0.5-1.1-0.5-1.7v-0.5c0.1-0.9,0.4-1.8,0.7-2.7c0.3-0.9,0.7-1.8,1-2.7H126.6z M128.6,9.1
			c0.3-0.5,0.5-1.2,0.8-1.8c0.3-0.7,0.6-1.4,1-2c0.4-0.6,0.8-1.2,1.2-1.6c0.4-0.4,1-0.6,1.6-0.6c0.5,0,1,0.2,1.4,0.6
			c0.4,0.4,0.6,0.9,0.6,1.4c0,0.6-0.2,1.2-0.6,1.6c-0.4,0.4-1,0.9-1.6,1.2c-0.6,0.4-1.3,0.7-2,1c-0.7,0.3-1.3,0.6-1.8,0.8L128.6,9.1
			z M129.3,14.7c0.5,0.3,1.2,0.6,1.8,0.9c0.7,0.3,1.4,0.6,2,1c0.6,0.4,1.2,0.8,1.6,1.2c0.4,0.5,0.6,1,0.6,1.6c0,0.5-0.2,1-0.6,1.4
			c-0.4,0.4-0.9,0.6-1.4,0.6c-0.6,0-1.2-0.2-1.6-0.6c-0.4-0.4-0.9-1-1.2-1.6c-0.4-0.6-0.7-1.3-1-2c-0.3-0.7-0.6-1.3-0.8-1.9
			L129.3,14.7z M130.1,11.8c0.9-0.3,1.8-0.6,2.7-1c0.9-0.3,1.8-0.6,2.7-0.7h0.5c0.7,0,1.3,0.2,1.7,0.5c0.5,0.4,0.7,0.9,0.7,1.6
			c0,0.7-0.2,1.3-0.7,1.6c-0.5,0.4-1.1,0.5-1.7,0.5h-0.5c-0.9-0.1-1.8-0.4-2.7-0.7c-0.9-0.3-1.8-0.7-2.7-1V11.8z"/>
	</g>
	<g>
		<path d="M85.1,1.1C85.8,0.4,86.7,0,87.8,0c1,0,1.9,0.4,2.6,1.1c0.7,0.7,1.1,1.6,1.1,2.6v2.1l1.8-1c0.5-0.3,1.2-0.5,1.9-0.5
			c1,0,1.9,0.4,2.6,1.1C98.5,6.1,98.9,7,98.9,8c0,1.4-0.6,2.5-1.9,3.2l-1.9,1l1.9,1c1.2,0.7,1.9,1.8,1.9,3.2c0,1-0.4,1.9-1.1,2.6
			c-0.7,0.7-1.6,1.1-2.6,1.1c-0.7,0-1.3-0.2-1.9-0.5l-1.8-1v2.1c0,1-0.4,1.9-1.1,2.6c-0.7,0.7-1.6,1.1-2.6,1.1c-1,0-1.9-0.4-2.6-1.1
			c-0.7-0.7-1.1-1.6-1.1-2.6v-2.1l-1.8,1c-0.5,0.3-1.2,0.5-1.9,0.5c-1,0-1.9-0.4-2.6-1.1c-0.7-0.7-1.1-1.6-1.1-2.6
			c0-1.4,0.6-2.5,1.9-3.2l1.9-1l-1.9-1c-1.2-0.7-1.9-1.8-1.9-3.2c0-1,0.4-1.9,1.1-2.6c0.7-0.7,1.6-1.1,2.6-1.1
			c0.7,0,1.3,0.2,1.9,0.5l1.8,1V3.7C84,2.7,84.4,1.8,85.1,1.1z"/>
	</g>
</g>
</svg>
