<?xml version="1.0" encoding="utf-8"?>
<!-- Generator: Adobe Illustrator 25.4.1, SVG Export Plug-In . SVG Version: 6.00 Build 0)  -->
<svg version="1.1" id="Capa_1" xmlns="http://www.w3.org/2000/svg" xmlns:xlink="http://www.w3.org/1999/xlink" x="0px" y="0px"
	 viewBox="0 0 205.7 188.3" style="enable-background:new 0 0 205.7 188.3;" xml:space="preserve">
<style type="text/css">
	.st0{fill:#FFFFFF;}
	.st1{fill:#1D1D1B;}
</style>
<g>
	<g transform="translate(0,-952.36218)">
		<g>
			<path class="st0" d="M55.5,952.9c-34,0-54.9,29.7-54.9,54.1c0,52.7,59.9,101.7,102.3,132.9c42.3-31.2,102.3-80.1,102.3-132.9
				c0-24.4-20.9-54.1-54.9-54.1c-19,0-35.2,15.1-47.4,29.5C90.7,968.1,74.5,952.9,55.5,952.9z"/>
			<path class="st1" d="M102.8,1140.7l-0.4-0.3c-20.3-15-46.3-35.1-67.1-58.4C11.9,1055.7,0,1030.4,0,1007.1
				c0-12.6,5.5-26.3,14.8-36.6c10.5-11.7,25-18.1,40.6-18.1c20,0,36.6,16.5,47.4,29.2c10.8-12.7,27.3-29.2,47.4-29.2
				c15.7,0,30.1,6.4,40.6,18.1c9.3,10.3,14.8,24,14.8,36.6c0,23.4-11.9,48.6-35.4,74.9c-20.8,23.3-46.8,43.5-67.1,58.4L102.8,1140.7
				z M55.5,953.5c-15.3,0-29.4,6.3-39.7,17.7c-9.1,10.1-14.5,23.5-14.5,35.8c0,23.1,11.8,48,35.1,74.1c20.6,23.1,46.3,43.1,66.5,58
				c20.2-14.9,46-34.9,66.5-58c23.3-26.1,35.1-51.1,35.1-74.1c0-12.3-5.4-25.7-14.5-35.8c-10.3-11.4-24.4-17.7-39.7-17.7
				c-19.8,0-36.3,16.7-46.9,29.3l-0.5,0.5l-0.5-0.5C91.7,970.3,75.3,953.5,55.5,953.5z"/>
		</g>
	</g>
	<g>
		<path d="M35.3,63.1l1-10.3h3c0.7,0,1.2,0.1,1.7,0.4c0.4,0.3,0.8,0.6,1,1.1c0.2,0.5,0.3,1,0.2,1.7c-0.1,1-0.4,1.7-1,2.3
			c-0.6,0.6-1.4,0.8-2.4,0.8h-1.8l-0.4,4H35.3z M37,58.1h1.8c0.6,0,1.1-0.2,1.5-0.5c0.4-0.4,0.6-0.9,0.6-1.5
			c0.1-0.6-0.1-1.1-0.4-1.5c-0.3-0.4-0.8-0.6-1.4-0.6h-1.8L37,58.1z"/>
		<path d="M44.8,63.1l1-11.1H47l-0.5,4.7c0.3-0.5,0.6-0.9,1-1.2c0.4-0.3,0.9-0.4,1.4-0.4c0.6,0,1,0.1,1.4,0.4
			c0.4,0.3,0.6,0.7,0.8,1.2c0.2,0.5,0.2,1.1,0.2,1.8l-0.4,4.6h-1.1l0.4-4.6c0.1-0.7,0-1.3-0.3-1.7s-0.7-0.6-1.2-0.6
			c-0.4,0-0.8,0.1-1.2,0.4c-0.3,0.3-0.6,0.6-0.8,1.1c-0.2,0.5-0.3,1-0.4,1.7L46,63.1H44.8z"/>
		<path d="M54.9,67.1c-0.3,0-0.6,0-0.9-0.1c-0.3-0.1-0.5-0.2-0.8-0.4l0.1-1.2c0.2,0.2,0.5,0.4,0.7,0.5c0.2,0.1,0.5,0.1,0.7,0.1
			c0.3,0,0.6-0.1,0.8-0.3c0.2-0.2,0.4-0.5,0.6-0.8c0.2-0.3,0.3-0.7,0.4-1l0.3-0.8l-2.1-7.8H56l1.5,6.2l2.3-6.2H61l-3.5,9.3
			c-0.2,0.5-0.4,1-0.7,1.3c-0.2,0.4-0.5,0.6-0.8,0.8C55.6,67.1,55.3,67.1,54.9,67.1z"/>
		<path d="M65.8,63.3c-0.6,0-1.1-0.1-1.6-0.3s-0.7-0.5-1-0.9C63,61.7,63,61.3,63,60.8h1.1c0,0.5,0.1,0.8,0.4,1.1
			c0.3,0.3,0.7,0.4,1.3,0.4c0.5,0,0.9-0.1,1.3-0.4s0.5-0.5,0.6-0.9c0-0.3,0-0.6-0.3-0.7s-0.5-0.3-0.9-0.4l-1.3-0.5
			c-0.6-0.2-1-0.5-1.3-0.8c-0.3-0.3-0.4-0.8-0.4-1.3c0-0.4,0.2-0.8,0.4-1.1c0.2-0.3,0.6-0.6,1-0.7c0.4-0.2,0.9-0.3,1.5-0.3
			c0.9,0,1.5,0.2,1.9,0.6c0.4,0.4,0.6,0.9,0.6,1.5h-1.1c0-0.3-0.1-0.6-0.4-0.8c-0.3-0.2-0.6-0.3-1-0.3c-0.4,0-0.7,0.1-0.9,0.2
			c-0.2,0.1-0.4,0.3-0.5,0.4c-0.1,0.2-0.2,0.3-0.2,0.5c0,0.3,0,0.5,0.3,0.7c0.2,0.2,0.5,0.3,0.9,0.5l1.4,0.5c0.5,0.2,1,0.4,1.3,0.8
			c0.3,0.3,0.4,0.8,0.4,1.3c0,0.4-0.2,0.8-0.4,1.1c-0.3,0.3-0.6,0.6-1.1,0.8C67,63.2,66.4,63.3,65.8,63.3z"/>
		<path d="M72.5,63.1l0.7-7.8h1.2l-0.7,7.8H72.5z M74,53.5c-0.2,0-0.4-0.1-0.5-0.2c-0.1-0.1-0.2-0.3-0.2-0.6c0-0.2,0.1-0.4,0.2-0.6
			c0.1-0.2,0.3-0.2,0.6-0.2c0.2,0,0.4,0.1,0.5,0.2c0.1,0.2,0.2,0.3,0.2,0.6c0,0.2-0.1,0.4-0.3,0.6C74.4,53.4,74.2,53.5,74,53.5z"/>
		<path d="M80.6,63.3c-0.6,0-1.1-0.2-1.6-0.5c-0.5-0.3-0.8-0.8-1.1-1.4c-0.2-0.6-0.3-1.3-0.2-2.2c0.1-0.9,0.3-1.6,0.7-2.2
			c0.4-0.6,0.8-1.1,1.3-1.4c0.5-0.3,1.1-0.5,1.7-0.5c0.4,0,0.7,0.1,1,0.2c0.3,0.1,0.6,0.3,0.8,0.5c0.2,0.2,0.4,0.5,0.5,0.8
			s0.2,0.6,0.2,0.9l-1.2,0.1c-0.1-0.4-0.3-0.8-0.5-1.1c-0.3-0.3-0.6-0.4-1-0.4c-0.4,0-0.7,0.1-1,0.3c-0.3,0.2-0.6,0.6-0.8,1
			s-0.4,1-0.4,1.6c-0.1,0.6,0,1.1,0.1,1.6c0.1,0.4,0.3,0.8,0.6,1c0.3,0.2,0.6,0.4,1.1,0.4c0.5,0,0.9-0.1,1.2-0.4s0.5-0.7,0.5-1.2
			h1.2c0,0.5-0.2,1-0.5,1.4c-0.3,0.4-0.6,0.8-1.1,1C81.6,63.2,81.1,63.3,80.6,63.3z"/>
		<path d="M89,63.3c-0.5,0-1-0.1-1.3-0.3c-0.4-0.2-0.6-0.5-0.8-0.9c-0.2-0.4-0.2-0.7-0.2-1.1c0.1-0.5,0.2-1,0.5-1.3
			c0.3-0.3,0.6-0.6,1.1-0.8c0.4-0.2,0.9-0.2,1.4-0.2c0.3,0,0.7,0,1,0.1c0.3,0.1,0.7,0.2,1,0.3l0.1-1c0.1-0.7,0-1.2-0.3-1.5
			c-0.2-0.3-0.6-0.5-1.2-0.5c-0.3,0-0.6,0-0.8,0.1c-0.3,0.1-0.5,0.2-0.6,0.5c-0.2,0.2-0.3,0.5-0.3,0.8h-1.3c0.1-0.6,0.2-1,0.5-1.4
			c0.3-0.3,0.7-0.6,1.1-0.7c0.4-0.1,0.9-0.2,1.4-0.2c0.9,0,1.6,0.2,2,0.7c0.5,0.5,0.6,1.2,0.5,2.3l-0.5,5h-1c0-0.2,0-0.4,0-0.7
			c0-0.2,0-0.4,0-0.6c-0.3,0.5-0.6,0.9-1,1.1C90,63.2,89.5,63.3,89,63.3z M89.2,62.3c0.4,0,0.8-0.1,1.1-0.3c0.4-0.2,0.7-0.5,0.9-0.8
			c0.2-0.4,0.3-0.8,0.4-1.3c-0.3-0.1-0.6-0.2-0.9-0.2c-0.3-0.1-0.6-0.1-0.9-0.1c-0.5,0-0.9,0.1-1.2,0.3c-0.3,0.2-0.5,0.6-0.6,1.1
			c0,0.4,0.1,0.7,0.3,1C88.4,62.2,88.7,62.3,89.2,62.3z"/>
		<path d="M96.5,63.1l1-11.1h1.2l-1,11.1H96.5z"/>
		<path d="M37.8,82.9c-0.6,0-1.1-0.2-1.6-0.5c-0.5-0.3-0.8-0.8-1.1-1.4c-0.2-0.6-0.3-1.3-0.2-2.2c0.1-0.9,0.3-1.6,0.7-2.2
			c0.4-0.6,0.8-1.1,1.3-1.4c0.5-0.3,1.1-0.5,1.7-0.5c0.4,0,0.7,0.1,1,0.2c0.3,0.1,0.6,0.3,0.8,0.5c0.2,0.2,0.4,0.5,0.5,0.8
			s0.2,0.6,0.2,0.9L40,77.3c-0.1-0.4-0.3-0.8-0.5-1.1c-0.3-0.3-0.6-0.4-1-0.4c-0.4,0-0.7,0.1-1,0.3c-0.3,0.2-0.6,0.6-0.8,1
			s-0.4,1-0.4,1.6c-0.1,0.6,0,1.1,0.1,1.6c0.1,0.4,0.3,0.8,0.6,1c0.3,0.2,0.6,0.4,1.1,0.4c0.5,0,0.9-0.1,1.2-0.4s0.5-0.7,0.5-1.2
			h1.2c0,0.5-0.2,1-0.5,1.4c-0.3,0.4-0.6,0.8-1.1,1C38.9,82.8,38.4,82.9,37.8,82.9z"/>
		<path d="M46.7,82.9c-0.6,0-1.2-0.2-1.7-0.5c-0.5-0.3-0.8-0.8-1-1.4c-0.2-0.6-0.3-1.4-0.2-2.2c0.1-0.9,0.3-1.6,0.6-2.3
			c0.3-0.6,0.8-1.1,1.3-1.4s1.1-0.5,1.7-0.5c0.6,0,1.2,0.2,1.6,0.5c0.5,0.3,0.8,0.8,1,1.4c0.2,0.6,0.3,1.4,0.2,2.2s-0.3,1.6-0.6,2.2
			c-0.3,0.6-0.8,1.1-1.3,1.4C47.9,82.7,47.4,82.9,46.7,82.9z M46.8,81.8c0.7,0,1.2-0.3,1.7-0.8c0.4-0.5,0.7-1.3,0.8-2.2
			c0.1-0.9,0-1.7-0.3-2.2c-0.3-0.5-0.8-0.8-1.5-0.8c-0.7,0-1.2,0.3-1.6,0.8c-0.4,0.5-0.7,1.3-0.8,2.2c-0.1,0.6,0,1.1,0.1,1.6
			c0.1,0.4,0.3,0.8,0.6,1C46,81.7,46.3,81.8,46.8,81.8z"/>
		<path d="M53.5,82.7l0.7-7.8h1c0,0.2,0,0.5,0,0.8c0,0.3,0,0.5,0,0.8c0.3-0.6,0.6-1,1.1-1.3s0.9-0.4,1.5-0.4c0.6,0,1.1,0.2,1.5,0.5
			c0.4,0.3,0.6,0.8,0.8,1.4c0.3-0.6,0.6-1.1,1.1-1.4c0.4-0.3,1-0.5,1.5-0.5c0.6,0,1,0.1,1.4,0.4c0.4,0.3,0.6,0.7,0.8,1.2
			s0.2,1.1,0.1,1.8l-0.4,4.6h-1.1l0.4-4.6c0.1-0.7,0-1.3-0.3-1.7c-0.3-0.4-0.7-0.6-1.2-0.6c-0.4,0-0.8,0.1-1.1,0.4
			c-0.3,0.2-0.6,0.6-0.8,1.1s-0.3,1-0.4,1.6l-0.3,3.8h-1.1l0.4-4.6c0.1-0.8,0-1.3-0.3-1.7c-0.3-0.4-0.7-0.6-1.2-0.6
			c-0.7,0-1.2,0.3-1.6,0.8C55.4,77.3,55.1,78,55,79l-0.3,3.7H53.5z"/>
		<path d="M68.2,86.5l1.1-11.6h0.9c0,0.2,0,0.4,0,0.6c0,0.2,0,0.4,0,0.6c0.3-0.5,0.6-0.8,1-1c0.4-0.2,0.8-0.4,1.3-0.4
			c0.5,0,1,0.2,1.5,0.5c0.4,0.3,0.8,0.8,1,1.4s0.3,1.3,0.2,2.2c-0.1,0.9-0.3,1.6-0.6,2.2c-0.4,0.6-0.8,1.1-1.3,1.4s-1.1,0.5-1.6,0.5
			c-0.4,0-0.8-0.1-1.1-0.3c-0.3-0.2-0.6-0.5-0.8-0.8l-0.5,4.8H68.2z M71.7,81.7c0.3,0,0.7-0.1,1-0.3s0.6-0.5,0.9-1s0.4-1,0.5-1.6
			c0.1-0.6,0-1.2-0.1-1.6c-0.1-0.4-0.4-0.8-0.7-1c-0.3-0.2-0.6-0.3-1-0.3c-0.3,0-0.7,0.1-1,0.3c-0.3,0.2-0.6,0.4-0.8,0.8
			s-0.3,0.8-0.4,1.3L70,79.5c0,0.5,0,0.9,0.2,1.2c0.1,0.3,0.4,0.6,0.6,0.7S71.4,81.7,71.7,81.7z"/>
		<path d="M81,82.9c-0.5,0-1-0.1-1.4-0.3c-0.4-0.2-0.7-0.5-0.8-1c-0.2-0.4-0.2-1-0.2-1.7l0.5-5h1.2l-0.5,4.9c-0.1,0.7,0,1.1,0.3,1.5
			c0.3,0.3,0.6,0.5,1.2,0.5c0.4,0,0.8-0.1,1.2-0.4c0.3-0.3,0.6-0.6,0.9-1.1c0.2-0.5,0.4-1,0.4-1.6l0.4-3.8h1.2l-0.7,7.8h-1.2
			l0.1-1.5c-0.3,0.5-0.6,1-1.1,1.3S81.5,82.9,81,82.9z"/>
		<path d="M90.9,82.9c-0.4,0-0.7-0.1-1-0.2s-0.5-0.4-0.6-0.7s-0.2-0.7-0.1-1.2l0.5-5.2l0.3,0.3h-1.5l0.1-0.9H90l-0.4,0.4l0.3-2.5H91
			l-0.3,2.5l-0.3-0.4H93l-0.1,0.9h-2.6l0.4-0.3l-0.5,5.1c0,0.4,0,0.7,0.2,0.9c0.2,0.2,0.4,0.3,0.7,0.3c0.2,0,0.4,0,0.6-0.1
			s0.4-0.1,0.6-0.2l0.1,0.9c-0.3,0.1-0.5,0.2-0.8,0.3S91.2,82.9,90.9,82.9z"/>
		<path d="M95.7,82.7l0.7-7.8h1.2l-0.7,7.8H95.7z M97.1,73.1c-0.2,0-0.4-0.1-0.5-0.2c-0.1-0.1-0.2-0.3-0.2-0.6
			c0-0.2,0.1-0.4,0.2-0.6c0.1-0.2,0.3-0.2,0.6-0.2c0.2,0,0.4,0.1,0.5,0.2C98,71.8,98,72,98,72.3c0,0.2-0.1,0.4-0.3,0.6
			C97.6,73,97.4,73.1,97.1,73.1z"/>
		<path d="M101.3,82.7l0.7-7.8h1l0,1.5c0.3-0.6,0.6-1,1.1-1.3s0.9-0.4,1.5-0.4c0.6,0,1,0.1,1.4,0.4c0.4,0.3,0.6,0.7,0.8,1.2
			s0.2,1.1,0.1,1.8l-0.4,4.6h-1.1l0.4-4.6c0.1-0.8,0-1.3-0.3-1.7c-0.3-0.4-0.7-0.6-1.2-0.6c-0.7,0-1.2,0.3-1.6,0.8
			c-0.4,0.6-0.7,1.3-0.8,2.3l-0.3,3.7H101.3z"/>
		<path d="M113.5,86.7c-0.7,0-1.3-0.1-1.8-0.3c-0.5-0.2-0.9-0.5-1.2-0.9s-0.4-0.8-0.3-1.3c0-0.4,0.2-0.8,0.5-1.1
			c0.3-0.3,0.6-0.5,1.1-0.6c-0.3-0.2-0.5-0.4-0.6-0.6c-0.1-0.2-0.2-0.5-0.2-0.8c0-0.4,0.2-0.7,0.4-1s0.6-0.4,0.9-0.5
			c-0.2-0.3-0.4-0.6-0.5-0.9c-0.1-0.3-0.1-0.7-0.1-1.2c0.1-0.6,0.2-1.1,0.5-1.5c0.3-0.4,0.7-0.8,1.1-1c0.5-0.2,0.9-0.4,1.5-0.4
			c0.3,0,0.7,0.1,1,0.2c0.3,0.1,0.6,0.2,0.8,0.4c0.1-0.4,0.2-0.7,0.4-1c0.2-0.3,0.4-0.5,0.7-0.7c0.3-0.2,0.6-0.2,1-0.2l-0.2,1.3
			c-0.4,0-0.7,0.1-1,0.3s-0.4,0.5-0.5,0.9c0.1,0.2,0.2,0.5,0.3,0.8c0.1,0.3,0.1,0.6,0,0.9c0,0.6-0.2,1.1-0.5,1.5
			c-0.3,0.4-0.7,0.8-1.1,1c-0.5,0.2-1,0.4-1.5,0.4c-0.2,0-0.5,0-0.7-0.1c-0.2-0.1-0.5-0.2-0.7-0.3c-0.2,0-0.4,0.1-0.5,0.3
			s-0.3,0.4-0.3,0.6c0,0.2,0,0.5,0.2,0.6s0.5,0.2,1,0.2h2.7c0.7,0,1.2,0.2,1.5,0.5s0.5,0.7,0.5,1.3c0,0.5-0.2,1-0.6,1.5
			c-0.4,0.5-0.9,0.9-1.5,1.2C115.1,86.6,114.4,86.7,113.5,86.7z M113.6,85.7c0.6,0,1.1-0.1,1.6-0.3c0.5-0.2,0.8-0.4,1.1-0.7
			c0.3-0.3,0.4-0.6,0.5-1c0-0.3,0-0.5-0.2-0.7c-0.1-0.2-0.4-0.3-0.7-0.3H113c-0.5,0-0.9,0.1-1.2,0.4c-0.3,0.3-0.5,0.6-0.5,1
			c0,0.4,0.2,0.8,0.5,1.1S112.8,85.7,113.6,85.7z M114.4,79.5c0.4,0,0.7-0.1,0.9-0.3c0.3-0.2,0.5-0.4,0.7-0.7c0.2-0.3,0.3-0.6,0.3-1
			c0.1-0.6-0.1-1-0.3-1.4c-0.3-0.4-0.7-0.5-1.2-0.5c-0.5,0-1,0.2-1.3,0.5c-0.3,0.4-0.5,0.8-0.6,1.4c-0.1,0.5,0.1,1,0.3,1.4
			S113.9,79.5,114.4,79.5z"/>
		<path d="M121,84.5l-1-0.5c0.3-0.2,0.6-0.3,0.8-0.5s0.4-0.4,0.4-0.7c-0.2,0-0.4-0.1-0.6-0.3c-0.2-0.1-0.2-0.3-0.2-0.6
			c0-0.2,0.1-0.4,0.3-0.6c0.2-0.2,0.4-0.2,0.7-0.2c0.3,0,0.6,0.1,0.8,0.4c0.2,0.2,0.3,0.5,0.3,0.9c0,0.4-0.1,0.8-0.4,1.2
			C121.8,83.9,121.5,84.2,121,84.5z"/>
		<path d="M131.3,82.9c-0.3,0-0.5-0.1-0.7-0.4c-0.2-0.2-0.3-0.7-0.3-1.2c0-0.5,0.1-1,0.2-1.4c0.1-0.4,0.3-0.8,0.6-1.1
			c0.2-0.3,0.4-0.6,0.7-0.8s0.4-0.4,0.6-0.5l1.4-1.2c0.2-0.2,0.4-0.4,0.6-0.6c0.2-0.2,0.5-0.6,0.6-0.9c0.2-0.4,0.3-0.8,0.3-1.4
			c0-0.7-0.2-1.3-0.6-1.7s-0.9-0.6-1.5-0.6c-0.4,0-0.8,0.1-1.1,0.3c-0.3,0.2-0.5,0.4-0.7,0.7c-0.2,0.3-0.3,0.5-0.3,0.8l0.7,0.6
			c0.1,0.1,0.2,0.2,0.3,0.3c0.1,0.2,0.2,0.4,0.2,0.6c0,0.2-0.1,0.4-0.2,0.6c-0.2,0.1-0.3,0.2-0.5,0.2c-0.2,0-0.5-0.1-0.7-0.4
			c-0.2-0.2-0.4-0.6-0.4-1.1c0-0.5,0.1-1,0.4-1.5c0.2-0.5,0.6-0.9,1.1-1.2c0.5-0.3,1-0.5,1.7-0.5c0.6,0,1.1,0.1,1.5,0.4s0.8,0.6,1,1
			c0.2,0.4,0.4,0.9,0.4,1.5c0,0.6-0.1,1.1-0.4,1.5c-0.3,0.4-0.6,0.8-0.9,1.1c-0.4,0.3-0.7,0.6-1,0.8l-1.5,1.1
			c-0.3,0.2-0.6,0.5-0.9,0.8s-0.5,0.6-0.7,1s-0.3,0.8-0.3,1.3c0.1-0.2,0.3-0.4,0.6-0.7c0.3-0.2,0.6-0.3,1-0.3s0.7,0.1,1,0.3
			c0.3,0.2,0.5,0.4,0.7,0.7c0.2,0.2,0.4,0.5,0.7,0.7c0.2,0.2,0.5,0.3,0.8,0.3c0.3,0,0.5-0.1,0.6-0.3c0.1-0.2,0.2-0.4,0.2-0.7
			c0-0.3,0-0.5,0-0.8v-1.5h0.5v1.6c0,0.2,0,0.5,0,0.8c0,0.3-0.1,0.6-0.2,0.9c-0.1,0.3-0.2,0.5-0.4,0.7c-0.2,0.2-0.5,0.3-0.9,0.3
			c-0.4,0-0.7-0.1-0.9-0.2c-0.2-0.2-0.4-0.4-0.6-0.6c-0.2-0.2-0.3-0.5-0.5-0.7c-0.1-0.2-0.3-0.4-0.5-0.6s-0.4-0.2-0.6-0.2
			c-0.3,0-0.5,0.1-0.7,0.3c-0.2,0.2-0.4,0.4-0.4,0.6l0.4,0.2c0.1,0,0.2,0.1,0.3,0.2c0.1,0.1,0.2,0.3,0.2,0.5c0,0.2-0.1,0.3-0.2,0.4
			C131.7,82.8,131.6,82.9,131.3,82.9z"/>
		<path d="M143,82.9c-0.6,0-1-0.2-1.5-0.5c-0.4-0.3-0.8-0.8-1-1.4s-0.5-1.3-0.6-2c-0.1-0.7-0.2-1.5-0.2-2.3c0-0.8,0.1-1.5,0.2-2.3
			s0.3-1.4,0.6-2c0.3-0.6,0.6-1.1,1.1-1.4c0.4-0.3,0.9-0.5,1.5-0.5s1,0.2,1.5,0.5c0.4,0.3,0.8,0.8,1.1,1.4c0.3,0.6,0.5,1.3,0.6,2
			s0.2,1.5,0.2,2.3c0,0.8-0.1,1.5-0.2,2.3c-0.1,0.7-0.4,1.4-0.6,2s-0.6,1.1-1,1.4C144,82.7,143.5,82.9,143,82.9z M143,82.3
			c0.8,0,1.3-0.3,1.6-0.8c0.3-0.6,0.5-1.3,0.5-2.2v-5.1c0-0.9-0.2-1.7-0.5-2.2c-0.3-0.6-0.9-0.8-1.6-0.8s-1.3,0.3-1.6,0.8
			c-0.3,0.6-0.5,1.3-0.5,2.2v5.1c0,0.9,0.2,1.7,0.5,2.2C141.7,82,142.2,82.3,143,82.3z"/>
		<path d="M150.3,82.9c-0.3,0-0.5-0.1-0.7-0.4c-0.2-0.2-0.3-0.7-0.3-1.2c0-0.5,0.1-1,0.2-1.4c0.1-0.4,0.3-0.8,0.6-1.1
			c0.2-0.3,0.4-0.6,0.7-0.8s0.4-0.4,0.6-0.5l1.4-1.2c0.2-0.2,0.4-0.4,0.6-0.6c0.2-0.2,0.5-0.6,0.6-0.9c0.2-0.4,0.3-0.8,0.3-1.4
			c0-0.7-0.2-1.3-0.6-1.7s-0.9-0.6-1.5-0.6c-0.4,0-0.8,0.1-1.1,0.3c-0.3,0.2-0.5,0.4-0.7,0.7c-0.2,0.3-0.3,0.5-0.3,0.8l0.7,0.6
			c0.1,0.1,0.2,0.2,0.3,0.3c0.1,0.2,0.2,0.4,0.2,0.6c0,0.2-0.1,0.4-0.2,0.6c-0.2,0.1-0.3,0.2-0.5,0.2c-0.2,0-0.5-0.1-0.7-0.4
			c-0.2-0.2-0.4-0.6-0.4-1.1c0-0.5,0.1-1,0.4-1.5c0.2-0.5,0.6-0.9,1.1-1.2c0.5-0.3,1-0.5,1.7-0.5c0.6,0,1.1,0.1,1.5,0.4s0.8,0.6,1,1
			c0.2,0.4,0.4,0.9,0.4,1.5c0,0.6-0.1,1.1-0.4,1.5c-0.3,0.4-0.6,0.8-0.9,1.1c-0.4,0.3-0.7,0.6-1,0.8l-1.5,1.1
			c-0.3,0.2-0.6,0.5-0.9,0.8s-0.5,0.6-0.7,1s-0.3,0.8-0.3,1.3c0.1-0.2,0.3-0.4,0.6-0.7c0.3-0.2,0.6-0.3,1-0.3s0.7,0.1,1,0.3
			c0.3,0.2,0.5,0.4,0.7,0.7c0.2,0.2,0.4,0.5,0.7,0.7c0.2,0.2,0.5,0.3,0.8,0.3c0.3,0,0.5-0.1,0.6-0.3c0.1-0.2,0.2-0.4,0.2-0.7
			c0-0.3,0-0.5,0-0.8v-1.5h0.5v1.6c0,0.2,0,0.5,0,0.8c0,0.3-0.1,0.6-0.2,0.9c-0.1,0.3-0.2,0.5-0.4,0.7c-0.2,0.2-0.5,0.3-0.9,0.3
			c-0.4,0-0.7-0.1-0.9-0.2c-0.2-0.2-0.4-0.4-0.6-0.6c-0.2-0.2-0.3-0.5-0.5-0.7c-0.1-0.2-0.3-0.4-0.5-0.6s-0.4-0.2-0.6-0.2
			c-0.3,0-0.5,0.1-0.7,0.3c-0.2,0.2-0.4,0.4-0.4,0.6l0.4,0.2c0.1,0,0.2,0.1,0.3,0.2c0.1,0.1,0.2,0.3,0.2,0.5c0,0.2-0.1,0.3-0.2,0.4
			C150.6,82.8,150.5,82.9,150.3,82.9z"/>
		<path d="M157.8,82.7v-0.6h3.6v-9.8h-3v-0.4l1.5-0.1c0.5-0.1,1-0.2,1.3-0.4s0.7-0.5,0.9-0.9h0.4v11.7h3.1v0.6H157.8z"/>
		<path d="M34.3,102.3L37.8,92h1.5l3.4,10.2h-1.3l-0.9-2.6h-4.1l-0.9,2.6H34.3z M36.9,98.7h3.4l-1.7-5.1L36.9,98.7z"/>
		<path d="M49,102.5c-0.6,0-1.2-0.2-1.7-0.5s-0.9-0.8-1.3-1.4c-0.3-0.6-0.5-1.3-0.5-2.2c0-0.8,0.2-1.6,0.5-2.2
			c0.3-0.6,0.7-1.1,1.2-1.4c0.5-0.3,1.1-0.5,1.7-0.5c0.6,0,1.1,0.1,1.5,0.4c0.4,0.3,0.8,0.7,1,1.2c0.2,0.5,0.4,1.2,0.4,1.9h-0.5
			c0-0.5-0.1-1-0.3-1.3c-0.2-0.4-0.5-0.6-0.8-0.8c-0.3-0.2-0.7-0.3-1.1-0.3c-0.4,0-0.8,0.1-1.2,0.4s-0.6,0.6-0.8,1
			c-0.2,0.4-0.3,1-0.3,1.6c0,0.6,0.1,1.2,0.3,1.6c0.2,0.4,0.5,0.8,0.8,1s0.7,0.4,1.2,0.4c0.4,0,0.7-0.1,1-0.3
			c0.3-0.2,0.6-0.5,0.8-0.8c0.2-0.4,0.3-0.8,0.3-1.3h0.5c0,0.8-0.1,1.4-0.4,1.9c-0.2,0.5-0.6,0.9-1,1.2
			C50,102.3,49.5,102.5,49,102.5z M51.5,102.3l-0.2-1.8v-9.3h1.3v11.1H51.5z"/>
		<path d="M57.9,92.6c-0.3,0-0.5-0.1-0.6-0.2c-0.2-0.1-0.2-0.3-0.2-0.6c0-0.2,0.1-0.4,0.2-0.6c0.2-0.1,0.4-0.2,0.6-0.2
			c0.3,0,0.5,0.1,0.6,0.2c0.2,0.1,0.2,0.3,0.2,0.6c0,0.2-0.1,0.4-0.2,0.6C58.3,92.6,58.1,92.6,57.9,92.6z M57.2,102.3v-7.8h1.3v7.8
			H57.2z"/>
		<path d="M63.3,102.3v-7.8h1.1l0.2,1.8v6H63.3z M68.9,102.3v-4.6c0-0.7-0.2-1.3-0.5-1.7s-0.8-0.6-1.5-0.6c-0.5,0-0.9,0.1-1.2,0.4
			c-0.3,0.3-0.6,0.6-0.8,1.1c-0.2,0.5-0.3,1-0.3,1.7h-0.5c0-0.9,0.1-1.7,0.4-2.3c0.2-0.6,0.6-1.1,1-1.5c0.5-0.3,1-0.5,1.7-0.5
			c0.6,0,1.1,0.1,1.6,0.4s0.8,0.7,1,1.2c0.2,0.5,0.4,1.1,0.4,1.8v4.6H68.9z"/>
		<path d="M76.6,102.5c-0.6,0-1.2-0.1-1.6-0.3c-0.4-0.2-0.7-0.5-0.9-0.9c-0.2-0.4-0.3-0.7-0.3-1.1c0-0.5,0.1-1,0.4-1.3
			c0.3-0.3,0.6-0.6,1.1-0.7c0.5-0.2,1-0.2,1.5-0.2c0.4,0,0.8,0,1.2,0.1c0.4,0.1,0.8,0.2,1.2,0.3v0.8c-0.3-0.1-0.7-0.2-1.1-0.3
			c-0.4-0.1-0.8-0.1-1.1-0.1c-0.5,0-1,0.1-1.3,0.3c-0.4,0.2-0.5,0.6-0.5,1.1c0,0.4,0.1,0.7,0.4,1s0.7,0.4,1.3,0.4
			c0.4,0,0.8-0.1,1.1-0.3c0.3-0.2,0.6-0.4,0.8-0.7c0.2-0.3,0.3-0.6,0.3-0.9h0.3c0,0.5-0.1,1-0.3,1.5c-0.2,0.4-0.5,0.8-1,1.1
			C77.7,102.3,77.2,102.5,76.6,102.5z M79.3,102.3l-0.2-1.7v-3.3c0-0.7-0.1-1.2-0.4-1.5c-0.3-0.3-0.7-0.5-1.3-0.5
			c-0.3,0-0.6,0-0.9,0.1s-0.5,0.2-0.7,0.5c-0.2,0.2-0.2,0.5-0.2,0.8h-1.4c0-0.6,0.1-1,0.4-1.4c0.3-0.3,0.7-0.6,1.1-0.8
			c0.5-0.2,1-0.2,1.7-0.2c0.6,0,1.1,0.1,1.6,0.3c0.5,0.2,0.8,0.5,1.1,1c0.3,0.4,0.4,1,0.4,1.7v5H79.3z"/>
		<path d="M93.5,102.5c-0.8,0-1.6-0.2-2.2-0.6s-1.2-1-1.6-1.8c-0.4-0.8-0.6-1.7-0.6-2.8c0-0.9,0.1-1.7,0.4-2.3s0.6-1.2,1.1-1.7
			c0.4-0.5,1-0.8,1.5-1c0.6-0.2,1.2-0.3,1.8-0.3c0.8,0,1.5,0.2,2.1,0.5c0.6,0.3,1.1,0.8,1.5,1.6l-1.2,0.4c-0.4-0.5-0.8-0.8-1.2-1
			c-0.4-0.2-0.9-0.3-1.3-0.3c-0.6,0-1.2,0.2-1.7,0.5c-0.5,0.3-0.9,0.8-1.2,1.5c-0.3,0.6-0.5,1.4-0.5,2.3c0,0.8,0.1,1.5,0.4,2.1
			c0.3,0.6,0.6,1.1,1.1,1.4c0.5,0.3,1,0.5,1.7,0.5c0.5,0,0.9-0.1,1.3-0.3c0.4-0.2,0.7-0.6,0.9-1c0.2-0.5,0.3-1,0.3-1.7h0.4
			c0,0.9-0.1,1.6-0.3,2.3c-0.2,0.6-0.5,1.1-1,1.5C94.9,102.3,94.3,102.5,93.5,102.5z M96.5,102.3l-0.2-2.4v-1.7l-2.6-0.1v-0.9h3.8
			v5.1H96.5z"/>
		<path d="M101.7,102.3V91.2h1.3v11.1H101.7z"/>
		<path d="M108.3,92.6c-0.3,0-0.5-0.1-0.6-0.2c-0.2-0.1-0.2-0.3-0.2-0.6c0-0.2,0.1-0.4,0.2-0.6c0.2-0.1,0.4-0.2,0.6-0.2
			c0.3,0,0.5,0.1,0.6,0.2c0.2,0.1,0.2,0.3,0.2,0.6c0,0.2-0.1,0.4-0.2,0.6C108.8,92.6,108.6,92.6,108.3,92.6z M107.7,102.3v-7.8h1.3
			v7.8H107.7z"/>
		<path d="M116.5,102.5c-0.6,0-1.2-0.2-1.8-0.5c-0.5-0.3-1-0.8-1.3-1.4s-0.5-1.3-0.5-2.2c0-0.9,0.2-1.6,0.5-2.2
			c0.3-0.6,0.8-1.1,1.3-1.4c0.5-0.3,1.1-0.5,1.8-0.5c0.4,0,0.8,0.1,1.2,0.2c0.4,0.1,0.7,0.3,0.9,0.6c0.3,0.2,0.5,0.5,0.6,0.8
			c0.2,0.3,0.3,0.6,0.4,0.9l-1.3,0.1c-0.1-0.5-0.4-0.8-0.7-1.1c-0.3-0.3-0.7-0.4-1.2-0.4c-0.4,0-0.7,0.1-1.1,0.3
			c-0.3,0.2-0.6,0.5-0.8,1c-0.2,0.4-0.3,1-0.3,1.6c0,0.6,0.1,1.1,0.3,1.6c0.2,0.4,0.5,0.8,0.8,1c0.3,0.2,0.7,0.4,1.2,0.4
			c0.6,0,1.1-0.1,1.4-0.4s0.5-0.7,0.5-1.2h1.3c0,0.5-0.1,1-0.4,1.5c-0.3,0.4-0.6,0.8-1.1,1C117.7,102.4,117.2,102.5,116.5,102.5z"/>
		<path d="M123.5,102.3V91.2h1.3v11.1H123.5z M124.6,97.8l4-3.3h1.8l-5.8,4.7V97.8z M128.9,102.3l-3.7-4.9l1.3-0.2l4,5.2H128.9z"/>
		<path d="M136.8,102.5c-0.8,0-1.4-0.1-1.9-0.3s-0.9-0.5-1.1-0.9c-0.3-0.4-0.4-0.8-0.4-1.3h1.2c0,0.5,0.2,0.9,0.6,1.1
			s0.9,0.4,1.5,0.4c0.3,0,0.6-0.1,0.9-0.2c0.3-0.1,0.5-0.3,0.7-0.4c0.2-0.2,0.3-0.4,0.3-0.6c0-0.3-0.1-0.5-0.3-0.7s-0.6-0.3-1.1-0.5
			l-1.5-0.5c-0.7-0.2-1.2-0.5-1.5-0.9s-0.5-0.8-0.5-1.3c0-0.6,0.3-1.1,0.8-1.5c0.6-0.4,1.3-0.6,2.2-0.6c1,0,1.7,0.2,2.2,0.6
			c0.5,0.4,0.8,0.9,0.8,1.5h-1.3c0-0.3-0.2-0.6-0.5-0.8c-0.3-0.2-0.7-0.3-1.3-0.3c-0.5,0-0.9,0.1-1.2,0.4c-0.3,0.2-0.4,0.5-0.4,0.8
			c0,0.5,0.5,0.9,1.4,1.2l1.5,0.5c0.7,0.2,1.2,0.5,1.5,0.8s0.5,0.7,0.5,1.2c0,0.4-0.1,0.8-0.4,1.1c-0.3,0.3-0.6,0.6-1.1,0.8
			C138,102.4,137.4,102.5,136.8,102.5z"/>
		<path d="M142.8,95.4v-0.9h5v0.9H142.8z M146.3,102.5c-0.4,0-0.8-0.1-1.1-0.2s-0.6-0.4-0.8-0.7c-0.2-0.3-0.3-0.7-0.3-1.2v-8h1.3
			v7.9c0,0.8,0.4,1.2,1.1,1.2c0.2,0,0.4,0,0.6-0.1s0.4-0.1,0.7-0.2l0.2,0.9c-0.3,0.1-0.6,0.2-0.8,0.3S146.6,102.5,146.3,102.5z"/>
		<path d="M154,102.5c-0.7,0-1.3-0.2-1.8-0.5c-0.5-0.3-0.9-0.8-1.3-1.4c-0.3-0.6-0.5-1.3-0.5-2.1c0-0.9,0.2-1.6,0.5-2.2
			c0.3-0.6,0.7-1.1,1.3-1.4c0.5-0.3,1.1-0.5,1.8-0.5c0.6,0,1.1,0.1,1.5,0.4c0.4,0.2,0.8,0.6,1,1c0.3,0.4,0.4,0.9,0.5,1.4
			s0.1,1,0.1,1.6h-5.6v-0.8h4.8l-0.4,0.2c0-0.3,0-0.6-0.1-1c-0.1-0.3-0.1-0.6-0.3-0.9c-0.1-0.3-0.3-0.5-0.6-0.6s-0.6-0.2-1-0.2
			c-0.5,0-0.9,0.1-1.3,0.4s-0.6,0.6-0.8,1c-0.2,0.4-0.3,0.9-0.3,1.3v0.5c0,0.5,0.1,1,0.2,1.5c0.2,0.4,0.4,0.8,0.7,1
			c0.3,0.2,0.8,0.4,1.3,0.4s0.9-0.1,1.2-0.4c0.3-0.2,0.5-0.6,0.6-1.1h1.3c-0.1,0.5-0.3,1-0.6,1.3c-0.3,0.4-0.7,0.7-1.1,0.9
			C155.1,102.4,154.6,102.5,154,102.5z"/>
		<path d="M161.7,92.6c-0.3,0-0.5-0.1-0.6-0.2c-0.2-0.1-0.2-0.3-0.2-0.6c0-0.2,0.1-0.4,0.2-0.6c0.2-0.1,0.4-0.2,0.6-0.2
			c0.3,0,0.5,0.1,0.6,0.2c0.2,0.1,0.2,0.3,0.2,0.6c0,0.2-0.1,0.4-0.2,0.6C162.2,92.6,162,92.6,161.7,92.6z M161.1,102.3v-7.8h1.3
			v7.8H161.1z"/>
		<path d="M167.2,102.3v-7.8h1.1l0.2,1.8v6H167.2z M172.7,102.3v-4.6c0-0.7-0.2-1.3-0.5-1.7s-0.8-0.6-1.5-0.6
			c-0.5,0-0.9,0.1-1.2,0.4c-0.3,0.3-0.6,0.6-0.8,1.1c-0.2,0.5-0.3,1-0.3,1.7h-0.5c0-0.9,0.1-1.7,0.4-2.3c0.2-0.6,0.6-1.1,1-1.5
			c0.5-0.3,1-0.5,1.7-0.5c0.6,0,1.1,0.1,1.6,0.4s0.8,0.7,1,1.2c0.2,0.5,0.4,1.1,0.4,1.8v4.6H172.7z"/>
	</g>
</g>
</svg>
