<?xml version="1.0" encoding="utf-8"?>
<!-- Generator: Adobe Illustrator 24.0.0, SVG Export Plug-In . SVG Version: 6.00 Build 0)  -->
<svg version="1.1" id="Capa_1" xmlns="http://www.w3.org/2000/svg" xmlns:xlink="http://www.w3.org/1999/xlink" x="0px" y="0px"
	 viewBox="0 0 296.9 297" style="enable-background:new 0 0 296.9 297;" xml:space="preserve">
<style type="text/css">
	.st0{fill:#FFFFFF;}
	.st1{fill:#1D1D1B;}
</style>
<g>
	<g>
		<path class="st0" d="M200.5,200.5c24.1,15.7,56.6,13,77.7-8.2c24.2-24.2,24.2-63.5,0-87.7c-21.1-21.1-53.6-23.8-77.7-8.2
			c15.7-24.1,13-56.6-8.2-77.7c-24.2-24.2-63.5-24.2-87.7,0c-21.1,21.1-23.8,53.6-8.2,77.7c-24.1-15.7-56.6-13-77.7,8.2
			c-24.2,24.2-24.2,63.5,0,87.7c21.1,21.1,53.6,23.8,77.7,8.2c-15.7,24.1-13,56.6,8.2,77.7c24.2,24.2,63.5,24.2,87.7,0
			C213.4,257.1,216.2,224.6,200.5,200.5z"/>
		<path class="st1" d="M148.5,297c-16.7,0-32.5-6.5-44.3-18.3c-20.2-20.2-24.1-51.9-9.6-76.2c-24.4,14.5-56,10.6-76.2-9.6
			c-24.4-24.4-24.4-64.2,0-88.6C38.5,84,70.2,80.1,94.6,94.6c-14.5-24.4-10.6-56,9.6-76.2C116,6.5,131.7,0,148.5,0
			s32.5,6.5,44.3,18.3c20.2,20.2,24.1,51.9,9.6,76.2c24.4-14.5,56-10.6,76.2,9.6c24.4,24.4,24.4,64.2,0,88.6
			c-20.2,20.2-51.9,24.1-76.2,9.6c14.5,24.4,10.6,56-9.6,76.2C180.9,290.5,165.2,297,148.5,297z M98.5,198.5l-1.6,2.4
			c-15.7,24.2-12.3,56.5,8.1,76.9c11.6,11.6,27,18,43.4,18s31.8-6.4,43.4-18c20.4-20.4,23.8-52.8,8.1-76.9l-1.6-2.4l2.4,1.6
			c24.2,15.7,56.5,12.3,76.9-8.1c11.6-11.6,18-27,18-43.4s-6.4-31.8-18-43.4C257.3,84.6,225,81.2,200.8,97l-2.4,1.6l1.6-2.4
			c15.7-24.2,12.3-56.5-8.1-76.9c-11.6-11.6-27-18-43.4-18s-31.8,6.4-43.4,18C84.6,39.6,81.2,72,96.9,96.1l1.6,2.4L96.1,97
			C71.9,81.2,39.6,84.6,19.2,105c-24,24-24,62.9,0,86.9c20.4,20.4,52.8,23.8,76.9,8.1L98.5,198.5z"/>
	</g>
	<g>
		<path d="M80.6,135.2v-10.2h6.2v1.1h-5v3.4h4.6v1.1h-4.6v4.6H80.6z"/>
		<path d="M92.8,135.3c-0.7,0-1.3-0.2-1.9-0.5c-0.5-0.3-1-0.8-1.3-1.4c-0.3-0.6-0.5-1.4-0.5-2.3c0-0.9,0.2-1.6,0.5-2.3
			c0.3-0.6,0.7-1.1,1.3-1.4c0.5-0.3,1.2-0.5,1.9-0.5c0.7,0,1.3,0.2,1.9,0.5c0.5,0.3,1,0.8,1.3,1.4c0.3,0.6,0.5,1.4,0.5,2.3
			c0,0.9-0.2,1.6-0.5,2.3c-0.3,0.6-0.7,1.1-1.3,1.4C94.2,135.2,93.5,135.3,92.8,135.3z M92.8,134.2c0.5,0,0.9-0.1,1.3-0.4
			c0.4-0.2,0.6-0.6,0.8-1c0.2-0.4,0.3-1,0.3-1.6c0-0.9-0.2-1.7-0.6-2.2c-0.4-0.5-1-0.8-1.7-0.8c-0.5,0-0.9,0.1-1.3,0.4
			s-0.6,0.6-0.8,1c-0.2,0.4-0.3,1-0.3,1.6c0,0.9,0.2,1.6,0.6,2.2C91.5,134,92.1,134.2,92.8,134.2z"/>
		<path d="M100.2,135.2V124h1.3v11.1H100.2z"/>
		<path d="M108.9,135.3c-0.6,0-1.2-0.2-1.7-0.5c-0.5-0.3-0.9-0.8-1.3-1.4c-0.3-0.6-0.5-1.3-0.5-2.2c0-0.8,0.2-1.6,0.5-2.2
			c0.3-0.6,0.7-1.1,1.2-1.4s1.1-0.5,1.7-0.5c0.6,0,1.1,0.1,1.5,0.4c0.4,0.3,0.8,0.7,1,1.2s0.4,1.2,0.4,1.9h-0.5c0-0.5-0.1-1-0.3-1.3
			c-0.2-0.4-0.5-0.6-0.8-0.8c-0.3-0.2-0.7-0.3-1.1-0.3c-0.4,0-0.8,0.1-1.2,0.4s-0.6,0.6-0.8,1c-0.2,0.4-0.3,1-0.3,1.6
			c0,0.6,0.1,1.2,0.3,1.6c0.2,0.4,0.5,0.8,0.8,1s0.7,0.4,1.2,0.4c0.4,0,0.7-0.1,1-0.3c0.3-0.2,0.6-0.5,0.8-0.8
			c0.2-0.4,0.3-0.8,0.3-1.3h0.5c0,0.8-0.1,1.4-0.4,1.9c-0.2,0.5-0.6,0.9-1,1.2S109.4,135.3,108.9,135.3z M111.4,135.2l-0.2-1.8V124
			h1.3v11.1H111.4z"/>
		<path d="M119.8,135.3c-0.7,0-1.3-0.2-1.8-0.5c-0.5-0.3-0.9-0.8-1.3-1.4s-0.5-1.3-0.5-2.1c0-0.9,0.2-1.6,0.5-2.2
			c0.3-0.6,0.7-1.1,1.3-1.4c0.5-0.3,1.1-0.5,1.8-0.5c0.6,0,1.1,0.1,1.5,0.4c0.4,0.2,0.8,0.6,1,1c0.3,0.4,0.4,0.9,0.5,1.4
			s0.1,1,0.1,1.6h-5.6v-0.8h4.8l-0.4,0.2c0-0.3,0-0.6-0.1-1c-0.1-0.3-0.1-0.6-0.3-0.9c-0.1-0.3-0.3-0.5-0.6-0.6
			c-0.3-0.2-0.6-0.2-1-0.2c-0.5,0-0.9,0.1-1.3,0.4c-0.3,0.3-0.6,0.6-0.8,1c-0.2,0.4-0.3,0.9-0.3,1.3v0.5c0,0.5,0.1,1,0.2,1.5
			c0.2,0.4,0.4,0.8,0.7,1c0.3,0.3,0.8,0.4,1.3,0.4c0.5,0,0.9-0.1,1.2-0.4c0.3-0.2,0.5-0.6,0.6-1.1h1.3c-0.1,0.5-0.3,1-0.6,1.3
			c-0.3,0.4-0.7,0.7-1.1,0.9C120.8,135.2,120.3,135.3,119.8,135.3z"/>
		<path d="M129.5,135.3c-0.6,0-1.2-0.2-1.7-0.5c-0.5-0.3-0.9-0.8-1.3-1.4c-0.3-0.6-0.5-1.3-0.5-2.2c0-0.8,0.2-1.6,0.5-2.2
			c0.3-0.6,0.7-1.1,1.2-1.4s1.1-0.5,1.7-0.5c0.6,0,1.1,0.1,1.5,0.4c0.4,0.3,0.8,0.7,1,1.2s0.4,1.2,0.4,1.9h-0.5c0-0.5-0.1-1-0.3-1.3
			c-0.2-0.4-0.5-0.6-0.8-0.8c-0.3-0.2-0.7-0.3-1.1-0.3c-0.4,0-0.8,0.1-1.2,0.4s-0.6,0.6-0.8,1c-0.2,0.4-0.3,1-0.3,1.6
			c0,0.6,0.1,1.2,0.3,1.6c0.2,0.4,0.5,0.8,0.8,1s0.7,0.4,1.2,0.4c0.4,0,0.7-0.1,1-0.3c0.3-0.2,0.6-0.5,0.8-0.8
			c0.2-0.4,0.3-0.8,0.3-1.3h0.5c0,0.8-0.1,1.4-0.4,1.9c-0.2,0.5-0.6,0.9-1,1.2S130.1,135.3,129.5,135.3z M132.1,135.2l-0.2-1.8V124
			h1.3v11.1H132.1z"/>
		<path d="M144.2,124.9v9.1h4.6v1.1h-5.8v-10.2H144.2z"/>
		<path d="M154,135.3c-0.6,0-1.2-0.1-1.6-0.3c-0.4-0.2-0.7-0.5-0.9-0.9c-0.2-0.4-0.3-0.7-0.3-1.1c0-0.5,0.1-1,0.4-1.3
			c0.3-0.3,0.6-0.6,1.1-0.7c0.5-0.2,1-0.2,1.5-0.2c0.4,0,0.8,0,1.2,0.1c0.4,0.1,0.8,0.2,1.2,0.3v0.8c-0.3-0.1-0.7-0.2-1.1-0.3
			c-0.4-0.1-0.8-0.1-1.1-0.1c-0.5,0-1,0.1-1.3,0.3s-0.5,0.6-0.5,1.1c0,0.4,0.1,0.7,0.4,1c0.3,0.3,0.7,0.4,1.3,0.4
			c0.4,0,0.8-0.1,1.1-0.3c0.3-0.2,0.6-0.4,0.8-0.7c0.2-0.3,0.3-0.6,0.3-0.9h0.3c0,0.5-0.1,1-0.3,1.5c-0.2,0.4-0.5,0.8-1,1.1
			S154.6,135.3,154,135.3z M156.7,135.2l-0.2-1.7v-3.3c0-0.7-0.1-1.2-0.4-1.5c-0.3-0.3-0.7-0.5-1.3-0.5c-0.3,0-0.6,0-0.9,0.1
			c-0.3,0.1-0.5,0.2-0.7,0.5c-0.2,0.2-0.2,0.5-0.2,0.8h-1.4c0-0.6,0.1-1,0.4-1.4c0.3-0.3,0.7-0.6,1.1-0.8c0.5-0.2,1-0.2,1.7-0.2
			c0.6,0,1.1,0.1,1.6,0.3s0.8,0.5,1.1,1c0.3,0.4,0.4,1,0.4,1.7v5H156.7z"/>
		<path d="M162.1,135.2v-7.8h1.1l0.2,1.8v6H162.1z M167.7,135.2v-4.6c0-0.7-0.2-1.3-0.5-1.7s-0.8-0.6-1.5-0.6
			c-0.5,0-0.9,0.1-1.2,0.4c-0.3,0.3-0.6,0.6-0.8,1.1c-0.2,0.5-0.3,1-0.3,1.7h-0.5c0-0.9,0.1-1.7,0.4-2.3s0.6-1.1,1-1.5
			c0.5-0.3,1-0.5,1.7-0.5c0.6,0,1.1,0.1,1.6,0.4c0.4,0.3,0.8,0.7,1,1.2s0.4,1.1,0.4,1.8v4.6H167.7z"/>
		<path d="M176.1,135.3c-0.6,0-1.2-0.2-1.7-0.5c-0.5-0.3-0.9-0.8-1.3-1.4c-0.3-0.6-0.5-1.3-0.5-2.2c0-0.8,0.2-1.6,0.5-2.2
			c0.3-0.6,0.7-1.1,1.2-1.4s1.1-0.5,1.7-0.5c0.6,0,1.1,0.1,1.5,0.4c0.4,0.3,0.8,0.7,1,1.2s0.4,1.2,0.4,1.9h-0.5c0-0.5-0.1-1-0.3-1.3
			c-0.2-0.4-0.5-0.6-0.8-0.8c-0.3-0.2-0.7-0.3-1.1-0.3c-0.4,0-0.8,0.1-1.2,0.4s-0.6,0.6-0.8,1c-0.2,0.4-0.3,1-0.3,1.6
			c0,0.6,0.1,1.2,0.3,1.6c0.2,0.4,0.5,0.8,0.8,1s0.7,0.4,1.2,0.4c0.4,0,0.7-0.1,1-0.3c0.3-0.2,0.6-0.5,0.8-0.8
			c0.2-0.4,0.3-0.8,0.3-1.3h0.5c0,0.8-0.1,1.4-0.4,1.9c-0.2,0.5-0.6,0.9-1,1.2S176.6,135.3,176.1,135.3z M178.6,135.2l-0.2-1.8V124
			h1.3v11.1H178.6z"/>
		<path d="M187,135.3c-0.8,0-1.4-0.1-1.9-0.3c-0.5-0.2-0.9-0.5-1.1-0.9c-0.3-0.4-0.4-0.8-0.4-1.3h1.2c0,0.5,0.2,0.9,0.6,1.1
			c0.4,0.2,0.9,0.4,1.5,0.4c0.3,0,0.6-0.1,0.9-0.2c0.3-0.1,0.5-0.3,0.7-0.4s0.3-0.4,0.3-0.6c0-0.3-0.1-0.5-0.3-0.7
			c-0.2-0.2-0.6-0.3-1.1-0.5l-1.5-0.5c-0.7-0.2-1.2-0.5-1.5-0.9s-0.5-0.8-0.5-1.3c0-0.6,0.3-1.1,0.8-1.5s1.3-0.6,2.2-0.6
			c1,0,1.7,0.2,2.2,0.6s0.8,0.9,0.8,1.5h-1.3c0-0.3-0.2-0.6-0.5-0.8c-0.3-0.2-0.7-0.3-1.3-0.3c-0.5,0-0.9,0.1-1.2,0.4
			c-0.3,0.2-0.4,0.5-0.4,0.8c0,0.5,0.5,0.9,1.4,1.2l1.5,0.5c0.7,0.2,1.2,0.5,1.5,0.8s0.5,0.7,0.5,1.2c0,0.4-0.1,0.8-0.4,1.1
			c-0.3,0.3-0.6,0.6-1.1,0.8C188.2,135.2,187.7,135.3,187,135.3z"/>
		<path d="M196.8,135.3c-0.6,0-1.2-0.2-1.7-0.5c-0.5-0.3-1-0.8-1.3-1.4c-0.3-0.6-0.5-1.3-0.5-2.2c0-0.9,0.2-1.6,0.5-2.2
			c0.3-0.6,0.8-1.1,1.3-1.4c0.5-0.3,1.1-0.5,1.7-0.5c0.4,0,0.8,0.1,1.2,0.2c0.4,0.1,0.7,0.3,0.9,0.6c0.3,0.2,0.5,0.5,0.6,0.8
			c0.2,0.3,0.3,0.6,0.4,0.9l-1.3,0.1c-0.1-0.5-0.4-0.8-0.7-1.1c-0.3-0.3-0.7-0.4-1.2-0.4c-0.4,0-0.7,0.1-1.1,0.3
			c-0.3,0.2-0.6,0.5-0.8,1c-0.2,0.4-0.3,1-0.3,1.6c0,0.6,0.1,1.1,0.3,1.6c0.2,0.4,0.5,0.8,0.8,1c0.3,0.2,0.7,0.4,1.1,0.4
			c0.6,0,1.1-0.1,1.4-0.4c0.3-0.3,0.5-0.7,0.5-1.2h1.3c0,0.5-0.1,1-0.4,1.5c-0.3,0.4-0.6,0.8-1.1,1
			C198,135.2,197.5,135.3,196.8,135.3z"/>
		<path d="M206,135.3c-0.6,0-1.2-0.1-1.6-0.3c-0.4-0.2-0.7-0.5-0.9-0.9c-0.2-0.4-0.3-0.7-0.3-1.1c0-0.5,0.1-1,0.4-1.3
			c0.3-0.3,0.6-0.6,1.1-0.7c0.5-0.2,1-0.2,1.5-0.2c0.4,0,0.8,0,1.2,0.1c0.4,0.1,0.8,0.2,1.2,0.3v0.8c-0.3-0.1-0.7-0.2-1.1-0.3
			c-0.4-0.1-0.8-0.1-1.1-0.1c-0.5,0-1,0.1-1.3,0.3s-0.5,0.6-0.5,1.1c0,0.4,0.1,0.7,0.4,1c0.3,0.3,0.7,0.4,1.3,0.4
			c0.4,0,0.8-0.1,1.1-0.3c0.3-0.2,0.6-0.4,0.8-0.7c0.2-0.3,0.3-0.6,0.3-0.9h0.3c0,0.5-0.1,1-0.3,1.5c-0.2,0.4-0.5,0.8-1,1.1
			S206.6,135.3,206,135.3z M208.7,135.2l-0.2-1.7v-3.3c0-0.7-0.1-1.2-0.4-1.5c-0.3-0.3-0.7-0.5-1.3-0.5c-0.3,0-0.6,0-0.9,0.1
			c-0.3,0.1-0.5,0.2-0.7,0.5c-0.2,0.2-0.2,0.5-0.2,0.8h-1.4c0-0.6,0.1-1,0.4-1.4c0.3-0.3,0.7-0.6,1.1-0.8c0.5-0.2,1-0.2,1.7-0.2
			c0.6,0,1.1,0.1,1.6,0.3s0.8,0.5,1.1,1c0.3,0.4,0.4,1,0.4,1.7v5H208.7z"/>
		<path d="M214.1,139v-11.6h1.1l0.2,1.8v9.8H214.1z M217.7,135.3c-0.6,0-1.1-0.1-1.5-0.4c-0.4-0.3-0.7-0.6-1-1.1s-0.3-1.1-0.3-1.8
			h0.5c0,0.5,0.1,0.9,0.3,1.2s0.5,0.6,0.8,0.8c0.3,0.2,0.7,0.3,1,0.3c0.4,0,0.8-0.1,1.1-0.3s0.7-0.6,0.9-1c0.2-0.4,0.3-1,0.3-1.6
			c0-0.6-0.1-1.2-0.3-1.6c-0.2-0.4-0.5-0.8-0.8-1c-0.4-0.2-0.7-0.4-1.2-0.4c-0.4,0-0.7,0.1-1,0.3c-0.3,0.2-0.6,0.4-0.8,0.8
			c-0.2,0.3-0.3,0.8-0.3,1.3h-0.5c0-0.8,0.1-1.4,0.4-1.9s0.6-0.9,1-1.2c0.4-0.3,0.9-0.4,1.4-0.4c0.6,0,1.2,0.2,1.7,0.5
			s1,0.8,1.3,1.4c0.3,0.6,0.5,1.3,0.5,2.2c0,0.9-0.2,1.6-0.5,2.2c-0.3,0.6-0.8,1.1-1.3,1.4C218.8,135.2,218.3,135.3,217.7,135.3z"/>
		<path d="M227.7,135.3c-0.7,0-1.3-0.2-1.8-0.5c-0.5-0.3-0.9-0.8-1.3-1.4s-0.5-1.3-0.5-2.1c0-0.9,0.2-1.6,0.5-2.2
			c0.3-0.6,0.7-1.1,1.3-1.4c0.5-0.3,1.1-0.5,1.8-0.5c0.6,0,1.1,0.1,1.5,0.4c0.4,0.2,0.8,0.6,1,1c0.3,0.4,0.4,0.9,0.5,1.4
			s0.1,1,0.1,1.6h-5.6v-0.8h4.8l-0.4,0.2c0-0.3,0-0.6-0.1-1c-0.1-0.3-0.1-0.6-0.3-0.9c-0.1-0.3-0.3-0.5-0.6-0.6
			c-0.3-0.2-0.6-0.2-1-0.2c-0.5,0-0.9,0.1-1.3,0.4c-0.3,0.3-0.6,0.6-0.8,1c-0.2,0.4-0.3,0.9-0.3,1.3v0.5c0,0.5,0.1,1,0.2,1.5
			c0.2,0.4,0.4,0.8,0.7,1c0.3,0.3,0.8,0.4,1.3,0.4c0.5,0,0.9-0.1,1.2-0.4c0.3-0.2,0.5-0.6,0.6-1.1h1.3c-0.1,0.5-0.3,1-0.6,1.3
			c-0.3,0.4-0.7,0.7-1.1,0.9C228.7,135.2,228.2,135.3,227.7,135.3z"/>
		<path d="M83.9,156.7c-0.3-0.4-0.7-0.9-1-1.6c-0.4-0.7-0.7-1.5-0.9-2.5c-0.2-1-0.4-2-0.4-3.1s0.1-2.2,0.4-3.1
			c0.2-1,0.6-1.8,0.9-2.5s0.7-1.2,1-1.6h0.5c-0.3,0.4-0.6,0.9-1,1.6c-0.3,0.7-0.6,1.5-0.8,2.5c-0.2,1-0.3,2-0.3,3.1s0.1,2.2,0.3,3.1
			c0.2,1,0.5,1.8,0.8,2.5c0.3,0.7,0.6,1.2,1,1.6H83.9z"/>
		<path d="M88.9,154.7v-0.6h1.4v-11h-1.4v-0.6h6.7v3.5h-0.5l-0.2-1.7c-0.1-0.8-0.5-1.2-1.4-1.2h-2.2v4.6h2.1v-2.1h0.5v4.7h-0.5v-2.1
			h-2.1v5.7h2.3c0.8,0,1.2-0.4,1.3-1.2l0.2-2.1h0.5v3.8H88.9z"/>
		<path d="M98.3,154.7v-0.6h3.1v-10.7h-2.3v-0.4l2.3-0.2l0.7-0.4h0.4v11.7h3.1v0.6H98.3z"/>
		<path d="M117.1,154.7v-0.6h1.4v-11h-1.4v-0.6h3.1c0.9,0,1.6,0.2,2.2,0.5c0.6,0.4,1,0.8,1.3,1.4c0.3,0.6,0.4,1.1,0.4,1.8
			c0,0.6-0.1,1.2-0.4,1.8c-0.3,0.6-0.7,1-1.3,1.4c-0.6,0.4-1.3,0.5-2.2,0.5h-0.6v4.2h2.6v0.6H117.1z M119.6,149.4h0.9
			c0.7,0,1.3-0.2,1.7-0.6c0.4-0.4,0.6-0.9,0.6-1.7v-1.6c0-0.7-0.2-1.3-0.6-1.7c-0.4-0.4-0.9-0.6-1.7-0.6h-0.9V149.4z"/>
		<path d="M129.3,154.9c-0.6,0-1.1-0.2-1.4-0.5c-0.3-0.4-0.5-0.8-0.5-1.3c0-0.5,0.1-0.9,0.4-1.2c0.2-0.3,0.6-0.6,0.9-0.8
			c0.4-0.2,0.7-0.4,1.1-0.6l1.7-0.8v-1.6c0-0.5-0.2-1-0.5-1.3c-0.3-0.3-0.8-0.5-1.3-0.5c-0.5,0-0.9,0.1-1.2,0.3
			c-0.3,0.2-0.5,0.5-0.6,0.7c0.2,0.3,0.4,0.5,0.6,0.6c0.1,0.2,0.2,0.3,0.2,0.5c0,0.2-0.1,0.4-0.2,0.5c-0.1,0.2-0.3,0.2-0.6,0.2
			c-0.2,0-0.4-0.1-0.6-0.3c-0.1-0.2-0.2-0.4-0.2-0.6s0.1-0.5,0.2-0.8c0.1-0.3,0.3-0.6,0.6-0.9s0.6-0.5,1-0.7s0.9-0.3,1.4-0.3
			c0.6,0,1,0.1,1.4,0.3c0.3,0.2,0.6,0.5,0.7,0.9c0.1,0.4,0.2,0.7,0.2,1.1v5.3c0,0.5,0.2,0.7,0.5,0.7c0.2,0,0.4-0.1,0.5-0.3
			c0.1-0.2,0.2-0.3,0.2-0.5l0.3,0.1c0,0.2-0.1,0.4-0.2,0.7c-0.1,0.2-0.3,0.4-0.5,0.6s-0.4,0.2-0.7,0.2c-0.3,0-0.6-0.1-0.8-0.3
			c-0.2-0.2-0.3-0.6-0.3-1c-0.1,0.2-0.2,0.4-0.4,0.6c-0.2,0.2-0.4,0.4-0.7,0.5C130,154.8,129.6,154.9,129.3,154.9z M128.3,152.6
			c0,0.4,0.1,0.8,0.4,1.1c0.3,0.3,0.6,0.4,1,0.4c0.3,0,0.5-0.1,0.8-0.2c0.2-0.1,0.4-0.3,0.6-0.4c0.1-0.2,0.2-0.3,0.3-0.5v-3
			l-1.5,0.8c-0.3,0.1-0.5,0.3-0.7,0.4c-0.2,0.1-0.4,0.3-0.6,0.5C128.4,152,128.3,152.3,128.3,152.6z M129.9,145.3l0.2-2.9h1.1
			l-1.1,2.9H129.9z"/>
		<path d="M141.5,154.2v0.6h-5.7v-0.6h2v-7.4h-1.7v-0.4l1.7-0.2l0.7-0.4h0.4v2.9h0l0.1-0.2c0.2-0.8,0.6-1.4,1.1-1.9
			c0.5-0.5,1-0.8,1.7-0.8c0.4,0,0.8,0.1,1.1,0.3c0.3,0.2,0.4,0.5,0.4,0.8c0,0.2-0.1,0.4-0.2,0.5c-0.1,0.1-0.3,0.2-0.5,0.2
			c-0.3,0-0.5-0.1-0.6-0.3c-0.1-0.2-0.2-0.3-0.3-0.5l-0.2-0.5c-0.4,0-0.7,0.1-1,0.4s-0.5,0.6-0.8,1.1s-0.4,0.9-0.6,1.5l-0.2,0.7v4.2
			H141.5z"/>
		<path d="M148.2,154.9c-0.6,0-1.1-0.2-1.4-0.5c-0.3-0.4-0.5-0.8-0.5-1.3c0-0.5,0.1-0.9,0.4-1.2c0.2-0.3,0.6-0.6,0.9-0.8
			c0.4-0.2,0.7-0.4,1.1-0.6l1.7-0.8v-1.6c0-0.5-0.2-1-0.5-1.3c-0.3-0.3-0.8-0.5-1.3-0.5c-0.5,0-0.9,0.1-1.2,0.3
			c-0.3,0.2-0.5,0.5-0.6,0.7c0.2,0.3,0.4,0.5,0.6,0.6c0.1,0.2,0.2,0.3,0.2,0.5c0,0.2-0.1,0.4-0.2,0.5c-0.1,0.2-0.3,0.2-0.6,0.2
			c-0.2,0-0.4-0.1-0.6-0.3c-0.1-0.2-0.2-0.4-0.2-0.6s0.1-0.5,0.2-0.8c0.1-0.3,0.3-0.6,0.6-0.9s0.6-0.5,1-0.7s0.9-0.3,1.4-0.3
			c0.6,0,1,0.1,1.4,0.3c0.3,0.2,0.6,0.5,0.7,0.9c0.1,0.4,0.2,0.7,0.2,1.1v5.3c0,0.5,0.2,0.7,0.5,0.7c0.2,0,0.4-0.1,0.5-0.3
			c0.1-0.2,0.2-0.3,0.2-0.5l0.3,0.1c0,0.2-0.1,0.4-0.2,0.7c-0.1,0.2-0.3,0.4-0.5,0.6s-0.4,0.2-0.7,0.2c-0.3,0-0.6-0.1-0.8-0.3
			c-0.2-0.2-0.3-0.6-0.3-1c-0.1,0.2-0.2,0.4-0.4,0.6c-0.2,0.2-0.4,0.4-0.7,0.5C148.9,154.8,148.6,154.9,148.2,154.9z M147.3,152.6
			c0,0.4,0.1,0.8,0.4,1.1c0.3,0.3,0.6,0.4,1,0.4c0.3,0,0.5-0.1,0.8-0.2c0.2-0.1,0.4-0.3,0.6-0.4c0.1-0.2,0.2-0.3,0.3-0.5v-3
			l-1.5,0.8c-0.3,0.1-0.5,0.3-0.7,0.4c-0.2,0.1-0.4,0.3-0.6,0.5C147.3,152,147.3,152.3,147.3,152.6z"/>
		<path d="M155,154.7v-0.6h0.7v-7.4h-0.9v-0.3l1-0.2l0.7-0.4h0.3v1.2h0c0.1-0.2,0.3-0.5,0.5-0.8c0.3-0.3,0.6-0.4,0.9-0.4
			c0.3,0,0.5,0.1,0.7,0.3c0.2,0.2,0.3,0.5,0.3,0.9h0c0.1-0.2,0.3-0.5,0.5-0.8c0.2-0.3,0.6-0.4,0.9-0.4c0.3,0,0.6,0.1,0.8,0.3
			c0.2,0.2,0.3,0.5,0.3,1v7.1h0.8v0.6h-1.9v-7.6c0-0.4-0.2-0.6-0.5-0.6c-0.2,0-0.4,0.1-0.5,0.2s-0.2,0.3-0.3,0.5
			c-0.1,0.2-0.1,0.4-0.1,0.6v6.4h0.8v0.6h-1.8v-7.6c0-0.4-0.2-0.6-0.6-0.6c-0.2,0-0.3,0.1-0.5,0.2c-0.1,0.1-0.2,0.3-0.3,0.5
			c-0.1,0.2-0.1,0.4-0.1,0.6v6.4h0.8v0.6H155z"/>
		<path d="M168.2,154.9c-0.5,0-1-0.1-1.4-0.4c-0.4-0.3-0.7-0.6-1-1s-0.5-0.9-0.6-1.5c-0.1-0.5-0.2-1.1-0.2-1.7
			c0-0.6,0.1-1.1,0.2-1.7s0.3-1,0.6-1.5s0.6-0.8,1-1s0.9-0.4,1.4-0.4c0.5,0,1,0.1,1.4,0.4s0.7,0.6,1,1c0.3,0.4,0.5,0.9,0.6,1.5
			s0.2,1.1,0.2,1.7c0,0.6-0.1,1.1-0.2,1.7c-0.1,0.5-0.3,1-0.6,1.5c-0.3,0.4-0.6,0.8-1,1C169.2,154.8,168.7,154.9,168.2,154.9z
			 M168.2,154.4c0.7,0,1.2-0.3,1.5-0.9c0.3-0.6,0.5-1.4,0.5-2.4v-1.6c0-1-0.2-1.8-0.5-2.4c-0.3-0.6-0.9-0.9-1.5-0.9
			c-0.7,0-1.2,0.3-1.5,0.9c-0.3,0.6-0.5,1.4-0.5,2.4v1.6c0,1,0.2,1.8,0.5,2.4C167,154.1,167.5,154.4,168.2,154.4z"/>
		<path d="M176.5,156.7c0.3-0.4,0.6-0.9,1-1.6c0.3-0.7,0.6-1.5,0.8-2.5c0.2-1,0.3-2,0.3-3.1s-0.1-2.2-0.3-3.1
			c-0.2-1-0.5-1.8-0.8-2.5c-0.3-0.7-0.6-1.2-1-1.6h0.5c0.3,0.4,0.7,0.9,1,1.6s0.7,1.5,0.9,2.5c0.2,1,0.4,2,0.4,3.1s-0.1,2.2-0.4,3.1
			c-0.2,1-0.6,1.8-0.9,2.5c-0.4,0.7-0.7,1.2-1,1.6H176.5z"/>
		<path d="M186.3,156.4l-0.2-0.3c0.2-0.2,0.5-0.3,0.7-0.6c0.2-0.2,0.4-0.4,0.4-0.6c-0.3,0-0.5-0.1-0.7-0.2c-0.2-0.1-0.3-0.4-0.3-0.7
			c0-0.3,0.1-0.5,0.3-0.7c0.2-0.2,0.4-0.3,0.6-0.3c0.2,0,0.4,0.1,0.6,0.2c0.2,0.2,0.3,0.4,0.3,0.8c0,0.3-0.1,0.6-0.3,0.9
			c-0.2,0.3-0.4,0.6-0.7,0.8C186.8,156.1,186.6,156.2,186.3,156.4z"/>
		<path d="M203.9,154.9c-0.3,0-0.5-0.1-0.7-0.4c-0.2-0.2-0.3-0.7-0.3-1.2c0-0.5,0.1-1,0.2-1.4c0.1-0.4,0.3-0.8,0.6-1.1
			c0.2-0.3,0.4-0.6,0.7-0.8s0.4-0.4,0.6-0.5l1.4-1.2c0.2-0.2,0.4-0.4,0.6-0.6s0.5-0.6,0.6-0.9s0.3-0.8,0.3-1.4
			c0-0.7-0.2-1.3-0.6-1.7c-0.4-0.4-0.9-0.6-1.5-0.6c-0.4,0-0.8,0.1-1.1,0.3c-0.3,0.2-0.5,0.4-0.7,0.7c-0.2,0.3-0.3,0.5-0.3,0.8
			l0.7,0.6c0.1,0.1,0.2,0.2,0.3,0.3c0.1,0.2,0.2,0.4,0.2,0.6c0,0.2-0.1,0.4-0.2,0.6c-0.2,0.1-0.3,0.2-0.5,0.2
			c-0.2,0-0.5-0.1-0.7-0.4s-0.4-0.6-0.4-1.1c0-0.5,0.1-1,0.4-1.5s0.6-0.9,1.1-1.2c0.5-0.3,1-0.5,1.7-0.5c0.6,0,1.1,0.1,1.5,0.4
			c0.4,0.3,0.8,0.6,1,1c0.2,0.4,0.4,0.9,0.4,1.5c0,0.6-0.1,1.1-0.4,1.5c-0.3,0.4-0.6,0.8-0.9,1.1c-0.4,0.3-0.7,0.6-1,0.8l-1.5,1.1
			c-0.3,0.2-0.6,0.5-0.9,0.8s-0.5,0.6-0.7,1c-0.2,0.4-0.3,0.8-0.3,1.3c0.1-0.2,0.3-0.4,0.6-0.7s0.6-0.3,1-0.3c0.4,0,0.7,0.1,1,0.3
			c0.3,0.2,0.5,0.4,0.7,0.7c0.2,0.2,0.4,0.5,0.7,0.7c0.2,0.2,0.5,0.3,0.8,0.3c0.3,0,0.5-0.1,0.6-0.3c0.1-0.2,0.2-0.4,0.2-0.7
			c0-0.3,0-0.5,0-0.8v-1.5h0.5v1.6c0,0.2,0,0.5,0,0.8c0,0.3-0.1,0.6-0.2,0.9c-0.1,0.3-0.2,0.5-0.4,0.7s-0.5,0.3-0.9,0.3
			c-0.4,0-0.7-0.1-0.9-0.2c-0.2-0.2-0.4-0.4-0.6-0.6c-0.2-0.2-0.3-0.5-0.5-0.7c-0.1-0.2-0.3-0.4-0.5-0.6s-0.4-0.2-0.6-0.2
			c-0.3,0-0.5,0.1-0.7,0.3c-0.2,0.2-0.4,0.4-0.4,0.6l0.4,0.2c0.1,0,0.2,0.1,0.3,0.2c0.1,0.1,0.2,0.3,0.2,0.5c0,0.2-0.1,0.3-0.2,0.4
			C204.2,154.8,204.1,154.9,203.9,154.9z"/>
		<path d="M215.5,154.9c-0.6,0-1-0.2-1.5-0.5c-0.4-0.3-0.8-0.8-1-1.4s-0.5-1.3-0.6-2c-0.1-0.7-0.2-1.5-0.2-2.3
			c0-0.8,0.1-1.5,0.2-2.3c0.1-0.7,0.3-1.4,0.6-2c0.3-0.6,0.6-1.1,1.1-1.4s0.9-0.5,1.5-0.5c0.6,0,1,0.2,1.5,0.5
			c0.4,0.3,0.8,0.8,1.1,1.4c0.3,0.6,0.5,1.3,0.6,2c0.1,0.7,0.2,1.5,0.2,2.3c0,0.8-0.1,1.5-0.2,2.3c-0.1,0.7-0.4,1.4-0.6,2
			c-0.3,0.6-0.6,1.1-1,1.4C216.5,154.7,216,154.9,215.5,154.9z M215.5,154.3c0.8,0,1.3-0.3,1.6-0.8s0.5-1.3,0.5-2.2v-5.1
			c0-0.9-0.2-1.7-0.5-2.2s-0.9-0.8-1.6-0.8c-0.8,0-1.3,0.3-1.6,0.8c-0.3,0.6-0.5,1.3-0.5,2.2v5.1c0,0.9,0.2,1.7,0.5,2.2
			C214.2,154,214.7,154.3,215.5,154.3z"/>
		<path d="M220.8,154.7v-0.6h3.6v-9.8h-3v-0.4l1.5-0.1c0.5-0.1,1-0.2,1.3-0.4c0.4-0.2,0.7-0.5,0.9-0.9h0.4v11.7h3.1v0.6H220.8z"/>
		<path d="M233.2,154.7V154c0-1.1,0.1-2.1,0.3-2.8s0.4-1.5,0.8-2c0.3-0.6,0.6-1,1-1.4s0.7-0.8,1-1.1c0.3-0.3,0.6-0.7,0.8-1
			c0.2-0.3,0.3-0.7,0.3-1.2c-0.1,0.1-0.2,0.3-0.5,0.4c-0.2,0.1-0.5,0.2-0.9,0.2c-0.4,0-0.7-0.1-1-0.2c-0.3-0.2-0.5-0.3-0.8-0.5
			c-0.2-0.2-0.5-0.4-0.7-0.5c-0.2-0.2-0.5-0.2-0.8-0.2c-0.3,0-0.4,0.1-0.6,0.3c-0.1,0.2-0.2,0.4-0.2,0.7c0,0.3,0,0.5,0,0.8v1.1h-0.5
			v-3.6h0.5v0.8h0.1c0.1-0.2,0.2-0.4,0.3-0.6s0.4-0.3,0.8-0.3c0.3,0,0.6,0.1,0.8,0.2c0.2,0.1,0.4,0.3,0.6,0.5
			c0.2,0.2,0.3,0.4,0.5,0.6c0.2,0.2,0.3,0.4,0.5,0.5c0.2,0.1,0.4,0.2,0.6,0.2c0.3,0,0.5-0.1,0.7-0.2s0.3-0.2,0.3-0.4l-0.4-0.2
			c-0.1,0-0.2-0.1-0.3-0.2c-0.1-0.1-0.2-0.3-0.2-0.5c0-0.2,0.1-0.3,0.2-0.4c0.1-0.1,0.3-0.2,0.5-0.2c0.3,0,0.5,0.1,0.7,0.4
			c0.2,0.2,0.3,0.7,0.3,1.2c0,0.5-0.1,1-0.2,1.4c-0.2,0.4-0.4,0.8-0.6,1.1c-0.3,0.3-0.5,0.7-0.8,1.1s-0.6,0.9-0.8,1.4
			c-0.3,0.5-0.5,1.2-0.6,2c-0.2,0.8-0.2,1.7-0.2,2.9v0.8H233.2z"/>
		<path d="M243.1,156.4l-0.2-0.3c0.2-0.2,0.5-0.3,0.7-0.6c0.2-0.2,0.4-0.4,0.4-0.6c-0.3,0-0.5-0.1-0.7-0.2c-0.2-0.1-0.3-0.4-0.3-0.7
			c0-0.3,0.1-0.5,0.3-0.7c0.2-0.2,0.4-0.3,0.6-0.3c0.2,0,0.4,0.1,0.6,0.2c0.2,0.2,0.3,0.4,0.3,0.8c0,0.3-0.1,0.6-0.3,0.9
			c-0.2,0.3-0.4,0.6-0.7,0.8C243.6,156.1,243.3,156.2,243.1,156.4z"/>
		<path d="M79.4,174.3l3.5-10.2h1.5l3.4,10.2h-1.3l-0.9-2.6h-4.1l-0.9,2.6H79.4z M82,170.7h3.4l-1.7-5.1L82,170.7z"/>
		<path d="M91.3,174.3v-7.8h1.1l0.2,1.8v6H91.3z M96.8,174.3v-4.6c0-0.7-0.2-1.3-0.5-1.7s-0.8-0.6-1.5-0.6c-0.5,0-0.9,0.1-1.2,0.4
			c-0.3,0.3-0.6,0.6-0.8,1.1c-0.2,0.5-0.3,1-0.3,1.7h-0.5c0-0.9,0.1-1.7,0.4-2.3s0.6-1.1,1-1.5c0.5-0.3,1-0.5,1.7-0.5
			c0.6,0,1.1,0.1,1.6,0.4c0.4,0.3,0.8,0.7,1,1.2s0.4,1.1,0.4,1.8v4.6H96.8z"/>
		<path d="M105.2,174.5c-0.6,0-1.2-0.2-1.7-0.5c-0.5-0.3-0.9-0.8-1.3-1.4c-0.3-0.6-0.5-1.3-0.5-2.2c0-0.8,0.2-1.6,0.5-2.2
			c0.3-0.6,0.7-1.1,1.2-1.4s1.1-0.5,1.7-0.5c0.6,0,1.1,0.1,1.5,0.4c0.4,0.3,0.8,0.7,1,1.2s0.4,1.2,0.4,1.9h-0.5c0-0.5-0.1-1-0.3-1.3
			c-0.2-0.4-0.5-0.6-0.8-0.8c-0.3-0.2-0.7-0.3-1.1-0.3c-0.4,0-0.8,0.1-1.2,0.4s-0.6,0.6-0.8,1c-0.2,0.4-0.3,1-0.3,1.6
			c0,0.6,0.1,1.2,0.3,1.6c0.2,0.4,0.5,0.8,0.8,1s0.7,0.4,1.2,0.4c0.4,0,0.7-0.1,1-0.3c0.3-0.2,0.6-0.5,0.8-0.8
			c0.2-0.4,0.3-0.8,0.3-1.3h0.5c0,0.8-0.1,1.4-0.4,1.9c-0.2,0.5-0.6,0.9-1,1.2S105.8,174.5,105.2,174.5z M107.7,174.3l-0.2-1.8v-9.3
			h1.3v11.1H107.7z"/>
		<path d="M113.4,174.3v-7.8h1.3v7.8H113.4z M114.3,170.8c0-1,0.1-1.8,0.3-2.5c0.2-0.7,0.5-1.1,0.8-1.5c0.4-0.3,0.8-0.5,1.3-0.5
			c0.2,0,0.3,0,0.5,0s0.3,0.1,0.4,0.1l-0.1,1.3c-0.2,0-0.3-0.1-0.5-0.1c-0.2,0-0.3-0.1-0.5-0.1c-0.5,0-0.8,0.1-1.1,0.4
			s-0.5,0.6-0.6,1.1c-0.1,0.5-0.2,1-0.2,1.7H114.3z"/>
		<path d="M123.3,174.5c-0.7,0-1.3-0.2-1.8-0.5c-0.5-0.3-0.9-0.8-1.3-1.4s-0.5-1.3-0.5-2.1c0-0.9,0.2-1.6,0.5-2.2
			c0.3-0.6,0.7-1.1,1.3-1.4c0.5-0.3,1.1-0.5,1.8-0.5c0.6,0,1.1,0.1,1.5,0.4c0.4,0.2,0.8,0.6,1,1c0.3,0.4,0.4,0.9,0.5,1.4
			s0.1,1,0.1,1.6h-5.6v-0.8h4.8l-0.4,0.2c0-0.3,0-0.6-0.1-1c-0.1-0.3-0.1-0.6-0.3-0.9c-0.1-0.3-0.3-0.5-0.6-0.6
			c-0.3-0.2-0.6-0.2-1-0.2c-0.5,0-0.9,0.1-1.3,0.4c-0.3,0.3-0.6,0.6-0.8,1c-0.2,0.4-0.3,0.9-0.3,1.3v0.5c0,0.5,0.1,1,0.2,1.5
			c0.2,0.4,0.4,0.8,0.7,1c0.3,0.3,0.8,0.4,1.3,0.4c0.5,0,0.9-0.1,1.2-0.4c0.3-0.2,0.5-0.6,0.6-1.1h1.3c-0.1,0.5-0.3,1-0.6,1.3
			c-0.3,0.4-0.7,0.7-1.1,0.9C124.4,174.4,123.9,174.5,123.3,174.5z M122.7,165.2l-0.6-0.5l2.7-2.9l0.9,0.7L122.7,165.2z"/>
		<path d="M133.1,174.5c-0.8,0-1.4-0.1-1.9-0.3c-0.5-0.2-0.9-0.5-1.1-0.9c-0.3-0.4-0.4-0.8-0.4-1.3h1.2c0,0.5,0.2,0.9,0.6,1.1
			c0.4,0.2,0.9,0.4,1.5,0.4c0.3,0,0.6-0.1,0.9-0.2c0.3-0.1,0.5-0.3,0.7-0.4s0.3-0.4,0.3-0.6c0-0.3-0.1-0.5-0.3-0.7
			c-0.2-0.2-0.6-0.3-1.1-0.5l-1.5-0.5c-0.7-0.2-1.2-0.5-1.5-0.9s-0.5-0.8-0.5-1.3c0-0.6,0.3-1.1,0.8-1.5s1.3-0.6,2.2-0.6
			c1,0,1.7,0.2,2.2,0.6s0.8,0.9,0.8,1.5h-1.3c0-0.3-0.2-0.6-0.5-0.8c-0.3-0.2-0.7-0.3-1.3-0.3c-0.5,0-0.9,0.1-1.2,0.4
			c-0.3,0.2-0.4,0.5-0.4,0.8c0,0.5,0.5,0.9,1.4,1.2l1.5,0.5c0.7,0.2,1.2,0.5,1.5,0.8s0.5,0.7,0.5,1.2c0,0.4-0.1,0.8-0.4,1.1
			c-0.3,0.3-0.6,0.6-1.1,0.8C134.3,174.4,133.7,174.5,133.1,174.5z"/>
		<path d="M145.4,174.3v-10.2h3.8c0.8,0,1.4,0.1,1.9,0.4c0.5,0.2,0.9,0.6,1.1,1s0.4,0.8,0.4,1.3c0,0.6-0.2,1.1-0.5,1.5
			c-0.3,0.4-0.8,0.7-1.5,0.9c0.4,0.1,0.8,0.2,1.1,0.4c0.3,0.2,0.6,0.5,0.7,0.8c0.2,0.3,0.3,0.7,0.3,1.1c0,0.3-0.1,0.7-0.2,1
			c-0.1,0.3-0.3,0.6-0.6,0.9c-0.3,0.3-0.6,0.5-1.1,0.6c-0.5,0.2-1,0.2-1.7,0.2H145.4z M146.6,165.1v3.5h2.5c0.6,0,1.1-0.2,1.5-0.5
			c0.4-0.3,0.6-0.8,0.6-1.3c0-0.5-0.2-0.9-0.6-1.2c-0.4-0.3-0.9-0.4-1.5-0.4H146.6z M146.6,173.2h2.5c0.8,0,1.3-0.2,1.7-0.5
			c0.3-0.3,0.5-0.7,0.5-1.3c0-0.5-0.2-0.9-0.6-1.2s-0.9-0.5-1.6-0.5h-2.5V173.2z"/>
		<path d="M159,174.5c-0.6,0-1.2-0.1-1.6-0.3c-0.4-0.2-0.7-0.5-0.9-0.9c-0.2-0.4-0.3-0.7-0.3-1.1c0-0.5,0.1-1,0.4-1.3
			c0.3-0.3,0.6-0.6,1.1-0.7c0.5-0.2,1-0.2,1.5-0.2c0.4,0,0.8,0,1.2,0.1c0.4,0.1,0.8,0.2,1.2,0.3v0.8c-0.3-0.1-0.7-0.2-1.1-0.3
			c-0.4-0.1-0.8-0.1-1.1-0.1c-0.5,0-1,0.1-1.3,0.3s-0.5,0.6-0.5,1.1c0,0.4,0.1,0.7,0.4,1c0.3,0.3,0.7,0.4,1.3,0.4
			c0.4,0,0.8-0.1,1.1-0.3c0.3-0.2,0.6-0.4,0.8-0.7c0.2-0.3,0.3-0.6,0.3-0.9h0.3c0,0.5-0.1,1-0.3,1.5c-0.2,0.4-0.5,0.8-1,1.1
			S159.5,174.5,159,174.5z M161.6,174.3l-0.2-1.7v-3.3c0-0.7-0.1-1.2-0.4-1.5c-0.3-0.3-0.7-0.5-1.3-0.5c-0.3,0-0.6,0-0.9,0.1
			c-0.3,0.1-0.5,0.2-0.7,0.5c-0.2,0.2-0.2,0.5-0.2,0.8h-1.4c0-0.6,0.1-1,0.4-1.4c0.3-0.3,0.7-0.6,1.1-0.8c0.5-0.2,1-0.2,1.7-0.2
			c0.6,0,1.1,0.1,1.6,0.3s0.8,0.5,1.1,1c0.3,0.4,0.4,1,0.4,1.7v5H161.6z"/>
		<path d="M167.1,174.3v-7.8h1.3v7.8H167.1z M168,170.8c0-1,0.1-1.8,0.3-2.5c0.2-0.7,0.5-1.1,0.8-1.5c0.4-0.3,0.8-0.5,1.3-0.5
			c0.2,0,0.3,0,0.5,0s0.3,0.1,0.4,0.1l-0.1,1.3c-0.2,0-0.3-0.1-0.5-0.1c-0.2,0-0.3-0.1-0.5-0.1c-0.5,0-0.8,0.1-1.1,0.4
			s-0.5,0.6-0.6,1.1c-0.1,0.5-0.2,1-0.2,1.7H168z"/>
		<path d="M177.1,174.5c-0.7,0-1.3-0.2-1.9-0.5c-0.5-0.3-1-0.8-1.3-1.4c-0.3-0.6-0.5-1.4-0.5-2.3c0-0.9,0.2-1.6,0.5-2.3
			c0.3-0.6,0.7-1.1,1.3-1.4c0.5-0.3,1.2-0.5,1.9-0.5c0.7,0,1.3,0.2,1.9,0.5c0.5,0.3,1,0.8,1.3,1.4c0.3,0.6,0.5,1.4,0.5,2.3
			c0,0.9-0.2,1.6-0.5,2.3c-0.3,0.6-0.7,1.1-1.3,1.4C178.4,174.3,177.8,174.5,177.1,174.5z M177.1,173.4c0.5,0,0.9-0.1,1.3-0.4
			c0.4-0.2,0.6-0.6,0.8-1c0.2-0.4,0.3-1,0.3-1.6c0-0.9-0.2-1.7-0.6-2.2c-0.4-0.5-1-0.8-1.7-0.8c-0.5,0-0.9,0.1-1.3,0.4
			s-0.6,0.6-0.8,1c-0.2,0.4-0.3,1-0.3,1.6c0,0.9,0.2,1.6,0.6,2.2C175.7,173.1,176.3,173.4,177.1,173.4z"/>
		<path d="M184.5,174.3v-7.8h1.1l0.2,1.8v6H184.5z M190,174.3v-4.6c0-0.7-0.2-1.3-0.5-1.7s-0.8-0.6-1.5-0.6c-0.5,0-0.9,0.1-1.2,0.4
			c-0.3,0.3-0.6,0.6-0.8,1.1c-0.2,0.5-0.3,1-0.3,1.7h-0.5c0-0.9,0.1-1.7,0.4-2.3s0.6-1.1,1-1.5c0.5-0.3,1-0.5,1.7-0.5
			c0.6,0,1.1,0.1,1.6,0.4c0.4,0.3,0.8,0.7,1,1.2s0.4,1.1,0.4,1.8v4.6H190z"/>
		<path d="M194.5,173.5c0-0.3,0.1-0.5,0.3-0.7c0.2-0.2,0.4-0.3,0.7-0.3s0.5,0.1,0.7,0.3s0.3,0.4,0.3,0.7c0,0.3-0.1,0.5-0.3,0.6
			s-0.4,0.3-0.7,0.3s-0.5-0.1-0.7-0.3C194.6,174,194.5,173.8,194.5,173.5z"/>
	</g>
</g>
</svg>
