<?xml version="1.0" encoding="utf-8"?>
<!-- Generator: Adobe Illustrator 24.0.0, SVG Export Plug-In . SVG Version: 6.00 Build 0)  -->
<svg version="1.1" id="Capa_1" xmlns="http://www.w3.org/2000/svg" xmlns:xlink="http://www.w3.org/1999/xlink" x="0px" y="0px"
	 viewBox="0 0 22.2 24.5" style="enable-background:new 0 0 22.2 24.5;" xml:space="preserve">
<g>
	<g>
		<path d="M0.1,8C-0.1,7.3,0,6.8,0.3,6.3C0.5,5.9,1,5.6,1.7,5.5c0.7,0,1.3,0.1,1.9,0.4c2.2,1.2,4.2,3.1,6.1,5.7
			c-3.4-0.3-6.1-1.1-8.3-2.2C0.8,9.1,0.4,8.6,0.1,8z M1.9,19.1c-0.7,0-1.1-0.3-1.4-0.7c-0.2-0.4-0.2-0.9,0.1-1.5
			c0.3-0.6,0.8-1.1,1.4-1.4c2.6-1.4,5.2-2.2,7.7-2.4C7.9,15.6,6,17.5,4,18.6C3.3,19,2.6,19.2,1.9,19.1z M9.3,0.9
			C9.8,0.3,10.3,0,10.9,0c0.5,0,1.1,0.3,1.6,0.9c0.4,0.6,0.7,1.3,0.7,2c0,2.2-0.7,4.8-2.2,7.8C9.4,7.6,8.6,5,8.6,3
			C8.6,2.2,8.8,1.5,9.3,0.9z M12.2,23.7c-0.4,0.5-0.9,0.7-1.4,0.7c-0.5,0-0.9-0.3-1.4-0.8C9,23.1,8.8,22.6,8.8,22
			c0-2.4,0.7-5.1,2.2-8c1.2,2.5,1.8,5.2,1.8,8C12.8,22.6,12.6,23.2,12.2,23.7z M20.5,5.7c0.7,0.1,1.2,0.4,1.5,0.9
			C22.3,7,22.2,7.5,22,8.1c-0.3,0.6-0.8,1.1-1.4,1.4c-1.8,1-4.6,1.7-8.3,2C14,9.3,16,7.4,18.4,6.1C19.1,5.7,19.8,5.6,20.5,5.7z
			 M21.8,16.8c0.3,0.6,0.3,1.1,0.1,1.5c-0.3,0.4-0.7,0.7-1.4,0.7c-0.7,0.1-1.4,0-2-0.3c-2.2-1.2-4.3-3.1-6.1-5.7
			c2.8,0.3,5.5,1.1,8,2.4C20.9,15.8,21.4,16.2,21.8,16.8z"/>
	</g>
</g>
</svg>
