<?xml version="1.0" encoding="utf-8"?>
<!-- Generator: Adobe Illustrator 25.4.1, SVG Export Plug-In . SVG Version: 6.00 Build 0)  -->
<svg version="1.1" id="Capa_1" xmlns="http://www.w3.org/2000/svg" xmlns:xlink="http://www.w3.org/1999/xlink" x="0px" y="0px"
	 viewBox="0 0 256.4 161.1" style="enable-background:new 0 0 256.4 161.1;" xml:space="preserve">
<style type="text/css">
	.st0{fill:#FFFFFF;}
	.st1{fill:#1D1D1B;}
</style>
<g>
	<ellipse class="st0" cx="128.2" cy="80.5" rx="127.6" ry="80"/>
	<path class="st1" d="M128.2,161C57.5,161,0,124.9,0,80.5C0,36.1,57.5-0.1,128.2-0.1c70.7,0,128.2,36.1,128.2,80.6
		C256.4,124.9,198.9,161,128.2,161z M128.2,1.1c-70,0-127,35.6-127,79.4s57,79.4,127,79.4s127-35.6,127-79.4S198.2,1.1,128.2,1.1z"
		/>
</g>
<g>
	<path d="M55,57c-1.1,0-1.9-0.3-2.5-1c-0.6-0.7-0.8-1.6-0.7-2.9l0.6-6.6h1.2L53,53.1c-0.1,1,0.1,1.6,0.5,2.1
		c0.4,0.4,0.9,0.6,1.6,0.6c0.7,0,1.3-0.2,1.8-0.6c0.5-0.4,0.7-1.1,0.8-2.1l0.6-6.6h1.2l-0.6,6.6c-0.1,0.9-0.3,1.6-0.6,2.1
		s-0.8,1-1.3,1.3C56.3,56.8,55.7,57,55,57z"/>
	<path d="M62.6,56.8l1-10.3h1.7l2.4,6.9l3.8-6.9h1.6l-1,10.3h-1.2l0.8-8.8h0.1l-4,7.5h-0.8l-2.7-7.7l0.2,0l-0.8,8.9H62.6z"/>
	<path d="M76.3,56.8l1-10.3h3.5c0.7,0,1.2,0.1,1.7,0.4c0.4,0.2,0.7,0.6,0.9,1c0.2,0.4,0.2,0.9,0.2,1.3c0,0.6-0.2,1.1-0.6,1.5
		c-0.3,0.4-0.8,0.7-1.4,0.9c0.4,0.1,0.7,0.2,1,0.4c0.3,0.2,0.5,0.5,0.6,0.8c0.1,0.3,0.2,0.7,0.1,1.1c0,0.3-0.1,0.7-0.3,1
		s-0.3,0.6-0.6,0.9s-0.6,0.5-1,0.6c-0.4,0.2-0.9,0.2-1.5,0.2H76.3z M77.6,55.7h2.3c0.7,0,1.2-0.2,1.5-0.5c0.3-0.3,0.5-0.7,0.6-1.2
		c0.1-0.5-0.1-0.9-0.4-1.2s-0.8-0.5-1.4-0.5h-2.3L77.6,55.7z M78.4,47.7L78,51.1h2.3c0.6,0,1-0.2,1.4-0.5c0.4-0.3,0.6-0.7,0.6-1.3
		c0-0.5-0.1-1-0.4-1.3s-0.7-0.5-1.3-0.5H78.4z"/>
	<path d="M86.8,56.8l1-10.3H91c1.1,0,1.8,0.3,2.3,0.8c0.5,0.6,0.7,1.3,0.6,2.2c-0.1,0.8-0.3,1.4-0.8,1.9c-0.5,0.5-1.1,0.9-1.9,1
		l2.3,4.3H92l-2-4.2h-1.6l-0.4,4.2H86.8z M88.4,51.7h2c0.7,0,1.2-0.2,1.6-0.6c0.4-0.4,0.6-0.9,0.7-1.5c0.1-0.6-0.1-1.1-0.4-1.5
		s-0.8-0.5-1.5-0.5h-2.1L88.4,51.7z"/>
	<path d="M96,56.8l4.1-10.3h1.4l2.1,10.3h-1.2l-0.5-2.6h-3.7l-1,2.6H96z M98.6,53.2h3.1l-1-5.1L98.6,53.2z"/>
	<path d="M106.8,56.8l1-10.3h1.2l-0.9,9.1h4.1l-0.1,1.1H106.8z"/>
	<path d="M119.5,46.6h1.2l1.8,8.7l3.5-8.7h1.2L123,56.8h-1.2L119.5,46.6z"/>
	<path d="M129.4,56.8l1-10.3h1.2l-1,10.3H129.4z"/>
	<path d="M134.8,56.8l1-10.3h5.7l-0.1,1.1h-4.5l-0.3,3.4h4.3l-0.1,1.1h-4.3l-0.3,3.5h4.5l-0.1,1.1H134.8z"/>
	<path d="M144.3,56.8l1-10.3h1.4l4,8.7l-0.2,0l0.8-8.6h1.2l-1,10.3h-1.3l-4.1-8.8l0.3,0l-0.8,8.7H144.3z"/>
	<path d="M155.7,56.8l1-10.3h5.7l-0.1,1.1h-4.5l-0.3,3.4h4.3l-0.1,1.1h-4.3l-0.3,3.5h4.5l-0.1,1.1H155.7z"/>
	<path d="M52.6,66.1h2.7c0.9,0,1.7,0.2,2.4,0.6c0.6,0.4,1.1,1,1.4,1.8c0.3,0.8,0.4,1.7,0.3,2.7c-0.1,1-0.4,1.9-0.8,2.7
		c-0.5,0.8-1,1.4-1.8,1.8c-0.7,0.4-1.6,0.6-2.5,0.6h-2.7L52.6,66.1z M53.7,67.3l-0.8,8h1.6c0.7,0,1.3-0.2,1.8-0.5
		c0.5-0.3,1-0.8,1.3-1.4s0.5-1.3,0.6-2.1c0.1-0.8,0-1.4-0.2-2c-0.2-0.6-0.6-1.1-1-1.4c-0.5-0.3-1.1-0.5-1.7-0.5H53.7z"/>
	<path d="M62.7,76.4l1-10.3h5.7l-0.1,1.1h-4.5l-0.3,3.4h4.3l-0.1,1.1h-4.3l-0.3,3.5h4.5l-0.1,1.1H62.7z"/>
	<path d="M80,76.6c-0.6,0-1.2-0.1-1.7-0.4c-0.5-0.2-0.9-0.6-1.1-1.1c-0.3-0.5-0.4-1.1-0.3-1.8H78c0,0.5,0,0.9,0.2,1.2
		c0.2,0.3,0.4,0.5,0.8,0.7c0.3,0.1,0.7,0.2,1.1,0.2c0.4,0,0.8-0.1,1.2-0.2c0.3-0.2,0.6-0.4,0.8-0.6c0.2-0.3,0.3-0.5,0.3-0.8
		c0-0.4,0-0.8-0.3-1c-0.2-0.3-0.5-0.5-1-0.6l-1.6-0.7c-0.7-0.3-1.3-0.6-1.6-1c-0.4-0.4-0.5-0.9-0.4-1.7c0.1-0.8,0.4-1.4,1-1.9
		c0.6-0.5,1.4-0.8,2.4-0.8c0.9,0,1.7,0.2,2.1,0.7c0.5,0.5,0.7,1.1,0.7,1.9h-1.1c0-0.5-0.2-0.8-0.5-1.1s-0.8-0.4-1.3-0.4
		c-0.6,0-1.1,0.1-1.5,0.4c-0.4,0.3-0.6,0.7-0.6,1.1c0,0.4,0,0.7,0.2,0.9c0.2,0.2,0.5,0.4,0.9,0.6l1.8,0.7c0.6,0.2,1.1,0.6,1.5,1
		c0.3,0.4,0.5,1,0.4,1.7c0,0.5-0.2,1-0.5,1.5c-0.3,0.4-0.7,0.8-1.3,1S80.7,76.6,80,76.6z"/>
	<path d="M90.5,76.6c-0.8,0-1.4-0.2-2-0.6s-1-1-1.2-1.8c-0.3-0.8-0.3-1.8-0.2-3c0.1-1.2,0.4-2.2,0.8-3c0.4-0.8,0.9-1.4,1.6-1.8
		c0.6-0.4,1.3-0.6,2.1-0.6s1.4,0.2,2,0.6s1,1,1.3,1.8c0.3,0.8,0.4,1.8,0.2,3c-0.1,1.2-0.4,2.2-0.8,3c-0.4,0.8-1,1.4-1.6,1.8
		C91.9,76.4,91.2,76.6,90.5,76.6z M90.6,75.4c0.9,0,1.6-0.3,2.1-1c0.6-0.7,0.9-1.7,1.1-3.1c0.1-1.3,0-2.4-0.5-3.1
		c-0.4-0.7-1.1-1.1-1.9-1.1c-0.9,0-1.6,0.4-2.1,1.1c-0.6,0.7-0.9,1.7-1,3.1c-0.1,1.4,0,2.4,0.5,3.1C89.1,75,89.7,75.4,90.6,75.4z"/>
	<path d="M98,76.4l1-10.3h1.7l2.4,6.9l3.8-6.9h1.6l-1,10.3h-1.2l0.8-8.8h0.1l-4,7.5h-0.8l-2.7-7.7l0.2,0l-0.8,8.9H98z"/>
	<path d="M111.8,76.4l1-10.3h3.5c0.7,0,1.2,0.1,1.7,0.4c0.4,0.2,0.7,0.6,0.9,1c0.2,0.4,0.2,0.9,0.2,1.3c0,0.6-0.2,1.1-0.6,1.5
		c-0.3,0.4-0.8,0.7-1.4,0.9c0.4,0.1,0.7,0.2,1,0.4c0.3,0.2,0.5,0.5,0.6,0.8c0.1,0.3,0.2,0.7,0.1,1.1c0,0.3-0.1,0.7-0.3,1
		s-0.3,0.6-0.6,0.9s-0.6,0.5-1,0.6c-0.4,0.2-0.9,0.2-1.5,0.2H111.8z M113,75.3h2.3c0.7,0,1.2-0.2,1.5-0.5c0.3-0.3,0.5-0.7,0.6-1.2
		c0.1-0.5-0.1-0.9-0.4-1.2s-0.8-0.5-1.4-0.5h-2.3L113,75.3z M113.8,67.2l-0.3,3.5h2.3c0.6,0,1-0.2,1.4-0.5c0.4-0.3,0.6-0.7,0.6-1.3
		c0-0.5-0.1-1-0.4-1.3s-0.7-0.5-1.3-0.5H113.8z"/>
	<path d="M122.2,76.4l1-10.3h3.2c1.1,0,1.8,0.3,2.3,0.8c0.5,0.6,0.7,1.3,0.6,2.2c-0.1,0.8-0.3,1.4-0.8,1.9c-0.5,0.5-1.1,0.9-1.9,1
		l2.3,4.3h-1.5l-2-4.2h-1.6l-0.4,4.2H122.2z M123.8,71.3h2c0.7,0,1.2-0.2,1.6-0.6c0.4-0.4,0.6-0.9,0.7-1.5c0.1-0.6-0.1-1.1-0.4-1.5
		s-0.8-0.5-1.5-0.5h-2.1L123.8,71.3z"/>
	<path d="M131.4,76.4l4.1-10.3h1.4l2.1,10.3h-1.2l-0.5-2.6h-3.7l-1,2.6H131.4z M134,72.8h3.1l-1-5.1L134,72.8z"/>
	<path d="M55.3,84.1l0.8,0.7c-0.6,0.6-1.1,1.3-1.6,1.9c-0.4,0.7-0.8,1.4-1.1,2.1c-0.3,0.7-0.4,1.4-0.5,2.2c-0.1,0.7,0,1.5,0.1,2.2
		c0.1,0.7,0.3,1.4,0.7,2.1c0.3,0.7,0.7,1.3,1.2,1.9L54,97.8c-0.6-0.6-1-1.3-1.4-2.1s-0.6-1.5-0.8-2.3c-0.1-0.8-0.2-1.6-0.1-2.5
		c0.1-1.3,0.5-2.5,1.1-3.6C53.4,86.1,54.2,85.1,55.3,84.1z"/>
	<path d="M57.8,99.8l1.1-11.6h0.9c0,0.2,0,0.4,0,0.6c0,0.2,0,0.4,0,0.6c0.3-0.5,0.6-0.8,1-1s0.8-0.4,1.3-0.4c0.5,0,1,0.2,1.5,0.5
		c0.4,0.3,0.8,0.8,1,1.4c0.2,0.6,0.3,1.3,0.2,2.2c-0.1,0.9-0.3,1.6-0.6,2.2c-0.4,0.6-0.8,1.1-1.3,1.4s-1.1,0.5-1.6,0.5
		c-0.4,0-0.8-0.1-1.1-0.3c-0.3-0.2-0.6-0.5-0.8-0.8L59,99.8H57.8z M61.4,95c0.3,0,0.7-0.1,1-0.3c0.3-0.2,0.6-0.5,0.9-1
		s0.4-1,0.5-1.6c0.1-0.6,0-1.2-0.1-1.6c-0.1-0.4-0.4-0.8-0.7-1c-0.3-0.2-0.6-0.3-1-0.3c-0.3,0-0.7,0.1-1,0.3
		c-0.3,0.2-0.6,0.4-0.8,0.8c-0.2,0.3-0.3,0.8-0.4,1.3l-0.1,1.4c0,0.5,0,0.9,0.2,1.2c0.1,0.3,0.4,0.6,0.6,0.7
		C60.7,94.9,61,95,61.4,95z"/>
	<path d="M70.7,96.1c-0.6,0-1.1-0.2-1.6-0.5s-0.8-0.8-1-1.4c-0.2-0.6-0.3-1.3-0.2-2.2c0.1-0.9,0.3-1.6,0.6-2.2
		c0.3-0.6,0.8-1.1,1.3-1.4c0.5-0.3,1.1-0.5,1.7-0.5c0.5,0,0.8,0.1,1.2,0.3c0.3,0.2,0.6,0.4,0.8,0.7c0.2,0.3,0.4,0.6,0.5,1
		s0.1,0.8,0.1,1.3c0,0.2,0,0.3,0,0.5c0,0.2-0.1,0.4-0.1,0.6h-5.2l0.4-0.3c-0.1,0.6-0.1,1.1,0,1.5c0.1,0.5,0.3,0.8,0.6,1.1
		c0.3,0.3,0.7,0.4,1.2,0.4c0.4,0,0.8-0.1,1.1-0.4c0.3-0.2,0.5-0.6,0.6-1.1h1.2c-0.1,0.5-0.3,1-0.6,1.3c-0.3,0.4-0.7,0.6-1.1,0.8
		C71.6,96,71.1,96.1,70.7,96.1z M69,91.7l-0.3-0.2h4.5l-0.4,0.1c0.1-0.5,0.1-0.9,0-1.3c-0.1-0.4-0.2-0.7-0.4-1
		c-0.2-0.3-0.6-0.4-1-0.4c-0.4,0-0.8,0.1-1.2,0.4c-0.3,0.2-0.6,0.6-0.8,1C69.2,90.8,69.1,91.2,69,91.7z"/>
	<path d="M79.5,96.1c-0.6,0-1.1-0.1-1.6-0.3s-0.7-0.5-1-0.9c-0.2-0.4-0.3-0.8-0.3-1.3h1.1c0,0.5,0.1,0.8,0.4,1.1
		c0.3,0.3,0.7,0.4,1.3,0.4c0.5,0,0.9-0.1,1.3-0.4s0.5-0.5,0.6-0.9c0-0.3,0-0.6-0.3-0.7c-0.2-0.2-0.5-0.3-0.9-0.4l-1.3-0.5
		c-0.6-0.2-1-0.5-1.3-0.8c-0.3-0.3-0.4-0.8-0.4-1.3c0-0.4,0.2-0.8,0.4-1.1c0.2-0.3,0.6-0.6,1-0.7s0.9-0.3,1.5-0.3
		c0.9,0,1.5,0.2,1.9,0.6c0.4,0.4,0.6,0.9,0.6,1.5h-1.1c0-0.3-0.1-0.6-0.4-0.8c-0.3-0.2-0.6-0.3-1-0.3c-0.4,0-0.7,0.1-0.9,0.2
		c-0.2,0.1-0.4,0.3-0.5,0.4c-0.1,0.2-0.2,0.3-0.2,0.5c0,0.3,0,0.5,0.3,0.7c0.2,0.2,0.5,0.3,0.9,0.5l1.4,0.5c0.5,0.2,1,0.4,1.3,0.8
		c0.3,0.3,0.4,0.8,0.4,1.3c0,0.4-0.2,0.8-0.4,1.1c-0.3,0.3-0.6,0.6-1.1,0.8S80.1,96.1,79.5,96.1z"/>
	<path d="M88.3,96.1c-0.4,0-0.7-0.1-1-0.2c-0.3-0.2-0.5-0.4-0.6-0.7s-0.2-0.7-0.1-1.2l0.5-5.2l0.3,0.3h-1.5l0.1-0.9h1.5l-0.4,0.4
		l0.3-2.5h1.2l-0.3,2.5l-0.3-0.4h2.6L90.2,89h-2.6l0.4-0.3l-0.5,5.1c0,0.4,0,0.7,0.2,0.9c0.2,0.2,0.4,0.3,0.7,0.3
		c0.2,0,0.4,0,0.6-0.1s0.4-0.1,0.6-0.2l0.1,0.9C89.5,95.9,89.3,96,89,96C88.8,96.1,88.5,96.1,88.3,96.1z"/>
	<path d="M92.4,91.8l0.1-1.1h4l-0.1,1.1H92.4z"/>
	<path d="M101.4,100c-0.7,0-1.3-0.1-1.8-0.3c-0.5-0.2-0.9-0.5-1.2-0.9s-0.4-0.8-0.3-1.3c0-0.4,0.2-0.8,0.5-1.1
		c0.3-0.3,0.6-0.5,1.1-0.6c-0.3-0.2-0.5-0.4-0.6-0.6c-0.1-0.2-0.2-0.5-0.2-0.8c0-0.4,0.2-0.7,0.4-1c0.3-0.3,0.6-0.4,0.9-0.5
		c-0.2-0.3-0.4-0.6-0.5-0.9c-0.1-0.3-0.1-0.7-0.1-1.2c0.1-0.6,0.2-1.1,0.5-1.5c0.3-0.4,0.7-0.8,1.1-1s0.9-0.4,1.5-0.4
		c0.3,0,0.7,0,1,0.2c0.3,0.1,0.6,0.2,0.8,0.4c0.1-0.4,0.2-0.7,0.4-1s0.4-0.5,0.7-0.7c0.3-0.2,0.6-0.2,1-0.2l-0.2,1.3
		c-0.4,0-0.7,0.1-1,0.3s-0.4,0.5-0.5,0.9c0.1,0.2,0.2,0.5,0.3,0.8c0.1,0.3,0.1,0.6,0,0.9c0,0.6-0.2,1.1-0.5,1.5
		c-0.3,0.4-0.7,0.8-1.1,1c-0.5,0.2-1,0.4-1.5,0.4c-0.2,0-0.5,0-0.7-0.1s-0.5-0.2-0.7-0.3c-0.2,0-0.4,0.1-0.5,0.3s-0.3,0.4-0.3,0.6
		c0,0.2,0,0.5,0.2,0.6s0.5,0.2,1,0.2h2.7c0.7,0,1.2,0.2,1.5,0.5c0.4,0.3,0.5,0.7,0.5,1.3c0,0.5-0.2,1-0.6,1.5
		c-0.4,0.5-0.9,0.9-1.5,1.2C103,99.8,102.3,100,101.4,100z M101.5,98.9c0.6,0,1.1-0.1,1.6-0.3c0.5-0.2,0.8-0.4,1.1-0.7
		c0.3-0.3,0.4-0.6,0.5-1c0-0.3,0-0.5-0.2-0.7c-0.1-0.2-0.4-0.3-0.7-0.3h-2.9c-0.5,0-0.9,0.1-1.2,0.4c-0.3,0.3-0.5,0.6-0.5,1
		c0,0.4,0.2,0.8,0.5,1.1S100.7,98.9,101.5,98.9z M102.3,92.7c0.4,0,0.7-0.1,0.9-0.3c0.3-0.2,0.5-0.4,0.7-0.7c0.2-0.3,0.3-0.6,0.3-1
		c0.1-0.6-0.1-1-0.3-1.4c-0.3-0.4-0.7-0.5-1.2-0.5c-0.5,0-1,0.2-1.3,0.5c-0.3,0.4-0.5,0.8-0.6,1.4c-0.1,0.5,0.1,1,0.3,1.4
		C101.4,92.6,101.8,92.7,102.3,92.7z"/>
	<path d="M108.9,96l0.7-7.8h1.2l-0.1,1.5c0.2-0.6,0.5-1,0.9-1.2s0.7-0.4,1.2-0.4c0.1,0,0.2,0,0.4,0c0.1,0,0.3,0.1,0.4,0.1l-0.2,1.3
		c-0.1,0-0.3-0.1-0.5-0.1c-0.2,0-0.3,0-0.5,0c-0.4,0-0.8,0.1-1,0.4s-0.5,0.6-0.7,1.1c-0.2,0.5-0.3,1-0.3,1.7l-0.3,3.5H108.9z"/>
	<path d="M118.3,96.1c-0.6,0-1.2-0.2-1.7-0.5s-0.8-0.8-1-1.4c-0.2-0.6-0.3-1.4-0.2-2.2c0.1-0.9,0.3-1.6,0.6-2.3s0.8-1.1,1.3-1.4
		c0.5-0.3,1.1-0.5,1.7-0.5c0.6,0,1.2,0.2,1.6,0.5c0.5,0.3,0.8,0.8,1,1.4c0.2,0.6,0.3,1.4,0.2,2.2c-0.1,0.9-0.3,1.6-0.6,2.2
		s-0.8,1.1-1.3,1.4C119.6,96,119,96.1,118.3,96.1z M118.4,95c0.7,0,1.2-0.3,1.7-0.8s0.7-1.3,0.8-2.2c0.1-0.9,0-1.7-0.3-2.2
		c-0.3-0.5-0.8-0.8-1.5-0.8c-0.7,0-1.2,0.3-1.6,0.8c-0.4,0.5-0.7,1.3-0.8,2.2c-0.1,0.6,0,1.1,0.1,1.6c0.1,0.4,0.3,0.8,0.6,1
		C117.6,94.9,118,95,118.4,95z"/>
	<path d="M124.7,88.2h1.3l1.5,6.4l2.7-6.4h1.3L128,96h-1.3L124.7,88.2z"/>
	<path d="M136.3,96.1c-0.6,0-1.1-0.2-1.6-0.5s-0.8-0.8-1-1.4c-0.2-0.6-0.3-1.3-0.2-2.2c0.1-0.9,0.3-1.6,0.6-2.2
		c0.3-0.6,0.8-1.1,1.3-1.4c0.5-0.3,1.1-0.5,1.7-0.5c0.5,0,0.8,0.1,1.2,0.3c0.3,0.2,0.6,0.4,0.8,0.7c0.2,0.3,0.4,0.6,0.5,1
		s0.1,0.8,0.1,1.3c0,0.2,0,0.3,0,0.5c0,0.2-0.1,0.4-0.1,0.6h-5.2l0.4-0.3c-0.1,0.6-0.1,1.1,0,1.5c0.1,0.5,0.3,0.8,0.6,1.1
		c0.3,0.3,0.7,0.4,1.2,0.4c0.4,0,0.8-0.1,1.1-0.4c0.3-0.2,0.5-0.6,0.6-1.1h1.2c-0.1,0.5-0.3,1-0.6,1.3c-0.3,0.4-0.7,0.6-1.1,0.8
		C137.2,96,136.8,96.1,136.3,96.1z M134.6,91.7l-0.3-0.2h4.5l-0.4,0.1c0.1-0.5,0.1-0.9,0-1.3c-0.1-0.4-0.2-0.7-0.4-1
		c-0.2-0.3-0.6-0.4-1-0.4c-0.4,0-0.8,0.1-1.2,0.4c-0.3,0.2-0.6,0.6-0.8,1C134.8,90.8,134.7,91.2,134.6,91.7z"/>
	<path d="M145.1,96.1c-0.6,0-1.1-0.1-1.6-0.3s-0.7-0.5-1-0.9c-0.2-0.4-0.3-0.8-0.3-1.3h1.1c0,0.5,0.1,0.8,0.4,1.1
		c0.3,0.3,0.7,0.4,1.3,0.4c0.5,0,0.9-0.1,1.3-0.4s0.5-0.5,0.6-0.9c0-0.3,0-0.6-0.3-0.7c-0.2-0.2-0.5-0.3-0.9-0.4l-1.3-0.5
		c-0.6-0.2-1-0.5-1.3-0.8c-0.3-0.3-0.4-0.8-0.4-1.3c0-0.4,0.2-0.8,0.4-1.1c0.2-0.3,0.6-0.6,1-0.7s0.9-0.3,1.5-0.3
		c0.9,0,1.5,0.2,1.9,0.6c0.4,0.4,0.6,0.9,0.6,1.5h-1.1c0-0.3-0.1-0.6-0.4-0.8c-0.3-0.2-0.6-0.3-1-0.3c-0.4,0-0.7,0.1-0.9,0.2
		c-0.2,0.1-0.4,0.3-0.5,0.4c-0.1,0.2-0.2,0.3-0.2,0.5c0,0.3,0,0.5,0.3,0.7c0.2,0.2,0.5,0.3,0.9,0.5l1.4,0.5c0.5,0.2,1,0.4,1.3,0.8
		c0.3,0.3,0.4,0.8,0.4,1.3c0,0.4-0.2,0.8-0.4,1.1c-0.3,0.3-0.6,0.6-1.1,0.8S145.7,96.1,145.1,96.1z"/>
	<path d="M151.3,97.8l-0.8-0.7c0.6-0.6,1.1-1.3,1.6-1.9c0.4-0.7,0.8-1.4,1.1-2.1c0.3-0.7,0.4-1.4,0.5-2.2c0.1-0.7,0-1.5-0.1-2.2
		c-0.1-0.7-0.3-1.4-0.7-2.1c-0.3-0.7-0.7-1.3-1.2-1.9l0.9-0.7c0.9,1,1.5,2,1.9,3.2c0.4,1.2,0.5,2.4,0.4,3.6
		c-0.1,0.8-0.3,1.7-0.6,2.5c-0.3,0.8-0.7,1.6-1.2,2.3S152,97.2,151.3,97.8z"/>
	<path d="M158.2,97.7l-1-0.5c0.3-0.2,0.6-0.3,0.8-0.5s0.4-0.4,0.4-0.7c-0.2,0-0.4-0.1-0.6-0.3s-0.2-0.3-0.2-0.6
		c0-0.2,0.1-0.4,0.3-0.6c0.2-0.2,0.4-0.2,0.7-0.2c0.3,0,0.6,0.1,0.8,0.4c0.2,0.2,0.3,0.5,0.3,0.9c0,0.4-0.1,0.8-0.4,1.2
		C159,97.2,158.7,97.5,158.2,97.7z"/>
	<path d="M168.6,96.1c-0.3,0-0.5-0.1-0.7-0.4c-0.2-0.2-0.3-0.7-0.3-1.2c0-0.5,0.1-1,0.2-1.4s0.3-0.8,0.6-1.1
		c0.2-0.3,0.4-0.6,0.7-0.8s0.4-0.4,0.6-0.5l1.4-1.2c0.2-0.2,0.4-0.4,0.6-0.6c0.2-0.2,0.5-0.6,0.6-0.9c0.2-0.4,0.3-0.8,0.3-1.4
		c0-0.7-0.2-1.3-0.6-1.7c-0.4-0.4-0.9-0.6-1.5-0.6c-0.4,0-0.8,0.1-1.1,0.3c-0.3,0.2-0.5,0.4-0.7,0.7s-0.3,0.5-0.3,0.8l0.7,0.6
		c0.1,0.1,0.2,0.2,0.3,0.3c0.1,0.2,0.2,0.4,0.2,0.6c0,0.2-0.1,0.4-0.2,0.6c-0.2,0.1-0.3,0.2-0.5,0.2c-0.2,0-0.5-0.1-0.7-0.4
		c-0.2-0.2-0.4-0.6-0.4-1.1c0-0.5,0.1-1,0.4-1.5c0.2-0.5,0.6-0.9,1.1-1.2c0.5-0.3,1-0.5,1.7-0.5c0.6,0,1.1,0.1,1.5,0.4
		c0.4,0.3,0.8,0.6,1,1c0.2,0.4,0.4,0.9,0.4,1.5c0,0.6-0.1,1.1-0.4,1.5c-0.3,0.4-0.6,0.8-0.9,1.1c-0.4,0.3-0.7,0.6-1,0.8l-1.5,1.1
		c-0.3,0.2-0.6,0.5-0.9,0.8s-0.5,0.6-0.7,1c-0.2,0.4-0.3,0.8-0.3,1.3c0.1-0.2,0.3-0.4,0.6-0.7s0.6-0.3,1-0.3s0.7,0.1,1,0.3
		c0.3,0.2,0.5,0.4,0.7,0.7c0.2,0.2,0.4,0.5,0.7,0.7c0.2,0.2,0.5,0.3,0.8,0.3c0.3,0,0.5-0.1,0.6-0.3s0.2-0.4,0.2-0.7
		c0-0.3,0-0.5,0-0.8v-1.5h0.5v1.6c0,0.2,0,0.5,0,0.8c0,0.3-0.1,0.6-0.2,0.9c-0.1,0.3-0.2,0.5-0.4,0.7c-0.2,0.2-0.5,0.3-0.9,0.3
		c-0.4,0-0.7-0.1-0.9-0.2c-0.2-0.2-0.4-0.4-0.6-0.6s-0.3-0.5-0.5-0.7c-0.1-0.2-0.3-0.4-0.5-0.6s-0.4-0.2-0.6-0.2
		c-0.3,0-0.5,0.1-0.7,0.3c-0.2,0.2-0.4,0.4-0.4,0.6l0.4,0.2c0.1,0,0.2,0.1,0.3,0.2s0.2,0.3,0.2,0.5c0,0.2-0.1,0.3-0.2,0.4
		C168.9,96.1,168.8,96.1,168.6,96.1z"/>
	<path d="M180.2,96.1c-0.6,0-1-0.2-1.5-0.5c-0.4-0.3-0.8-0.8-1-1.4s-0.5-1.3-0.6-2c-0.1-0.7-0.2-1.5-0.2-2.3s0.1-1.5,0.2-2.3
		c0.1-0.7,0.3-1.4,0.6-2c0.3-0.6,0.6-1.1,1.1-1.4c0.4-0.3,0.9-0.5,1.5-0.5s1,0.2,1.5,0.5c0.4,0.3,0.8,0.8,1.1,1.4
		c0.3,0.6,0.5,1.3,0.6,2c0.1,0.7,0.2,1.5,0.2,2.3s-0.1,1.5-0.2,2.3c-0.1,0.7-0.4,1.4-0.6,2s-0.6,1.1-1,1.4
		C181.2,95.9,180.7,96.1,180.2,96.1z M180.2,95.5c0.8,0,1.3-0.3,1.6-0.8c0.3-0.6,0.5-1.3,0.5-2.2v-5.1c0-0.9-0.2-1.7-0.5-2.2
		c-0.3-0.6-0.9-0.8-1.6-0.8s-1.3,0.3-1.6,0.8c-0.3,0.6-0.5,1.3-0.5,2.2v5.1c0,0.9,0.2,1.7,0.5,2.2C178.9,95.2,179.4,95.5,180.2,95.5
		z"/>
	<path d="M187.5,96.1c-0.3,0-0.5-0.1-0.7-0.4c-0.2-0.2-0.3-0.7-0.3-1.2c0-0.5,0.1-1,0.2-1.4s0.3-0.8,0.6-1.1
		c0.2-0.3,0.4-0.6,0.7-0.8s0.4-0.4,0.6-0.5l1.4-1.2c0.2-0.2,0.4-0.4,0.6-0.6c0.2-0.2,0.5-0.6,0.6-0.9c0.2-0.4,0.3-0.8,0.3-1.4
		c0-0.7-0.2-1.3-0.6-1.7c-0.4-0.4-0.9-0.6-1.5-0.6c-0.4,0-0.8,0.1-1.1,0.3c-0.3,0.2-0.5,0.4-0.7,0.7s-0.3,0.5-0.3,0.8l0.7,0.6
		c0.1,0.1,0.2,0.2,0.3,0.3c0.1,0.2,0.2,0.4,0.2,0.6c0,0.2-0.1,0.4-0.2,0.6c-0.2,0.1-0.3,0.2-0.5,0.2c-0.2,0-0.5-0.1-0.7-0.4
		c-0.2-0.2-0.4-0.6-0.4-1.1c0-0.5,0.1-1,0.4-1.5c0.2-0.5,0.6-0.9,1.1-1.2c0.5-0.3,1-0.5,1.7-0.5c0.6,0,1.1,0.1,1.5,0.4
		c0.4,0.3,0.8,0.6,1,1c0.2,0.4,0.4,0.9,0.4,1.5c0,0.6-0.1,1.1-0.4,1.5c-0.3,0.4-0.6,0.8-0.9,1.1c-0.4,0.3-0.7,0.6-1,0.8l-1.5,1.1
		c-0.3,0.2-0.6,0.5-0.9,0.8s-0.5,0.6-0.7,1c-0.2,0.4-0.3,0.8-0.3,1.3c0.1-0.2,0.3-0.4,0.6-0.7s0.6-0.3,1-0.3s0.7,0.1,1,0.3
		c0.3,0.2,0.5,0.4,0.7,0.7c0.2,0.2,0.4,0.5,0.7,0.7c0.2,0.2,0.5,0.3,0.8,0.3c0.3,0,0.5-0.1,0.6-0.3s0.2-0.4,0.2-0.7
		c0-0.3,0-0.5,0-0.8v-1.5h0.5v1.6c0,0.2,0,0.5,0,0.8c0,0.3-0.1,0.6-0.2,0.9c-0.1,0.3-0.2,0.5-0.4,0.7c-0.2,0.2-0.5,0.3-0.9,0.3
		c-0.4,0-0.7-0.1-0.9-0.2c-0.2-0.2-0.4-0.4-0.6-0.6s-0.3-0.5-0.5-0.7c-0.1-0.2-0.3-0.4-0.5-0.6s-0.4-0.2-0.6-0.2
		c-0.3,0-0.5,0.1-0.7,0.3c-0.2,0.2-0.4,0.4-0.4,0.6l0.4,0.2c0.1,0,0.2,0.1,0.3,0.2s0.2,0.3,0.2,0.5c0,0.2-0.1,0.3-0.2,0.4
		C187.9,96.1,187.7,96.1,187.5,96.1z"/>
	<path d="M199.1,96.1c-0.6,0-1-0.2-1.5-0.5c-0.4-0.3-0.8-0.8-1-1.4s-0.5-1.3-0.6-2c-0.1-0.7-0.2-1.5-0.2-2.3s0.1-1.5,0.2-2.3
		c0.1-0.7,0.3-1.4,0.6-2c0.3-0.6,0.6-1.1,1.1-1.4c0.4-0.3,0.9-0.5,1.5-0.5s1,0.2,1.5,0.5c0.4,0.3,0.8,0.8,1.1,1.4
		c0.3,0.6,0.5,1.3,0.6,2c0.1,0.7,0.2,1.5,0.2,2.3s-0.1,1.5-0.2,2.3c-0.1,0.7-0.4,1.4-0.6,2s-0.6,1.1-1,1.4
		C200.2,95.9,199.7,96.1,199.1,96.1z M199.1,95.5c0.8,0,1.3-0.3,1.6-0.8c0.3-0.6,0.5-1.3,0.5-2.2v-5.1c0-0.9-0.2-1.7-0.5-2.2
		c-0.3-0.6-0.9-0.8-1.6-0.8s-1.3,0.3-1.6,0.8c-0.3,0.6-0.5,1.3-0.5,2.2v5.1c0,0.9,0.2,1.7,0.5,2.2C197.8,95.2,198.4,95.5,199.1,95.5
		z"/>
	<path d="M207.8,97.6l-0.2-0.3c0.2-0.2,0.5-0.3,0.7-0.6c0.2-0.2,0.4-0.4,0.4-0.6c-0.3,0-0.5-0.1-0.7-0.2c-0.2-0.1-0.3-0.4-0.3-0.7
		c0-0.3,0.1-0.5,0.3-0.7c0.2-0.2,0.4-0.3,0.6-0.3c0.2,0,0.4,0.1,0.6,0.2c0.2,0.2,0.3,0.4,0.3,0.8c0,0.3-0.1,0.6-0.3,0.9
		c-0.2,0.3-0.4,0.6-0.7,0.8C208.3,97.3,208,97.5,207.8,97.6z"/>
	<path d="M50.6,115.5l3.5-10.2h1.5l3.4,10.2h-1.3l-0.9-2.6h-4.1l-0.9,2.6H50.6z M53.2,111.9h3.4l-1.7-5.1L53.2,111.9z"/>
	<path d="M62.5,115.5v-7.8h1.1l0.2,1.8v6H62.5z M68.1,115.5v-4.6c0-0.7-0.2-1.3-0.5-1.7s-0.8-0.6-1.5-0.6c-0.5,0-0.9,0.1-1.2,0.4
		c-0.3,0.3-0.6,0.6-0.8,1.1c-0.2,0.5-0.3,1-0.3,1.7h-0.5c0-0.9,0.1-1.7,0.4-2.3c0.2-0.6,0.6-1.1,1-1.5c0.5-0.3,1-0.5,1.7-0.5
		c0.6,0,1.1,0.1,1.6,0.4s0.8,0.7,1,1.2c0.2,0.5,0.4,1.1,0.4,1.8v4.6H68.1z"/>
	<path d="M72.6,108.6v-0.9h5v0.9H72.6z M76.1,115.7c-0.4,0-0.8-0.1-1.1-0.2s-0.6-0.4-0.8-0.7c-0.2-0.3-0.3-0.7-0.3-1.2v-8h1.3v7.9
		c0,0.8,0.4,1.2,1.1,1.2c0.2,0,0.4,0,0.6-0.1s0.4-0.1,0.7-0.2l0.2,0.9c-0.3,0.1-0.6,0.2-0.8,0.3S76.4,115.7,76.1,115.7z"/>
	<path d="M83.9,115.7c-0.7,0-1.3-0.2-1.9-0.5c-0.5-0.3-1-0.8-1.3-1.4c-0.3-0.6-0.5-1.4-0.5-2.3c0-0.9,0.2-1.6,0.5-2.3
		c0.3-0.6,0.7-1.1,1.3-1.4c0.5-0.3,1.2-0.5,1.9-0.5c0.7,0,1.3,0.2,1.9,0.5c0.5,0.3,1,0.8,1.3,1.4c0.3,0.6,0.5,1.4,0.5,2.3
		c0,0.9-0.2,1.6-0.5,2.3c-0.3,0.6-0.7,1.1-1.3,1.4C85.2,115.6,84.6,115.7,83.9,115.7z M83.9,114.6c0.5,0,0.9-0.1,1.3-0.4
		s0.6-0.6,0.8-1c0.2-0.4,0.3-1,0.3-1.6c0-0.9-0.2-1.7-0.6-2.2c-0.4-0.5-1-0.8-1.7-0.8c-0.5,0-0.9,0.1-1.3,0.4s-0.6,0.6-0.8,1
		c-0.2,0.4-0.3,1-0.3,1.6c0,0.9,0.2,1.6,0.6,2.2S83.1,114.6,83.9,114.6z"/>
	<path d="M91.3,115.5v-7.8h1.1l0.2,1.8v6H91.3z M96.9,115.5v-4.6c0-0.7-0.2-1.3-0.5-1.7s-0.8-0.6-1.5-0.6c-0.5,0-0.9,0.1-1.2,0.4
		c-0.3,0.3-0.6,0.6-0.8,1.1c-0.2,0.5-0.3,1-0.3,1.7h-0.5c0-0.9,0.1-1.7,0.4-2.3c0.2-0.6,0.6-1.1,1-1.5c0.5-0.3,1-0.5,1.7-0.5
		c0.6,0,1.1,0.1,1.6,0.4s0.8,0.7,1,1.2c0.2,0.5,0.4,1.1,0.4,1.8v4.6H96.9z"/>
	<path d="M103.2,105.9c-0.3,0-0.5-0.1-0.6-0.2s-0.2-0.3-0.2-0.6c0-0.2,0.1-0.4,0.2-0.6s0.4-0.2,0.6-0.2c0.3,0,0.5,0.1,0.6,0.2
		s0.2,0.3,0.2,0.6c0,0.2-0.1,0.4-0.2,0.6S103.5,105.9,103.2,105.9z M102.6,115.5v-7.8h1.3v7.8H102.6z"/>
	<path d="M111.5,115.7c-0.7,0-1.3-0.2-1.9-0.5c-0.5-0.3-1-0.8-1.3-1.4c-0.3-0.6-0.5-1.4-0.5-2.3c0-0.9,0.2-1.6,0.5-2.3
		c0.3-0.6,0.7-1.1,1.3-1.4c0.5-0.3,1.2-0.5,1.9-0.5c0.7,0,1.3,0.2,1.9,0.5c0.5,0.3,1,0.8,1.3,1.4c0.3,0.6,0.5,1.4,0.5,2.3
		c0,0.9-0.2,1.6-0.5,2.3c-0.3,0.6-0.7,1.1-1.3,1.4C112.8,115.6,112.2,115.7,111.5,115.7z M111.4,114.6c0.5,0,0.9-0.1,1.3-0.4
		s0.6-0.6,0.8-1c0.2-0.4,0.3-1,0.3-1.6c0-0.9-0.2-1.7-0.6-2.2c-0.4-0.5-1-0.8-1.7-0.8c-0.5,0-0.9,0.1-1.3,0.4s-0.6,0.6-0.8,1
		c-0.2,0.4-0.3,1-0.3,1.6c0,0.9,0.2,1.6,0.6,2.2S110.7,114.6,111.4,114.6z"/>
	<path d="M124,115.5v-10.2h3.8c0.8,0,1.4,0.1,1.9,0.4c0.5,0.2,0.9,0.6,1.1,1c0.2,0.4,0.4,0.8,0.4,1.3c0,0.6-0.2,1.1-0.5,1.5
		c-0.3,0.4-0.8,0.7-1.5,0.9c0.4,0.1,0.8,0.2,1.1,0.4c0.3,0.2,0.6,0.5,0.7,0.8c0.2,0.3,0.3,0.7,0.3,1.1c0,0.3-0.1,0.7-0.2,1
		c-0.1,0.3-0.3,0.6-0.6,0.9c-0.3,0.3-0.6,0.5-1.1,0.6c-0.5,0.2-1,0.2-1.7,0.2H124z M125.3,106.4v3.5h2.5c0.6,0,1.1-0.2,1.5-0.5
		c0.4-0.3,0.6-0.8,0.6-1.3c0-0.5-0.2-0.9-0.6-1.2c-0.4-0.3-0.9-0.4-1.5-0.4H125.3z M125.3,114.4h2.5c0.8,0,1.3-0.2,1.7-0.5
		s0.5-0.7,0.5-1.3c0-0.5-0.2-0.9-0.6-1.2c-0.4-0.3-0.9-0.5-1.6-0.5h-2.5V114.4z"/>
	<path d="M138.2,115.7c-0.7,0-1.3-0.2-1.8-0.5c-0.5-0.3-0.9-0.8-1.3-1.4c-0.3-0.6-0.5-1.3-0.5-2.1c0-0.9,0.2-1.6,0.5-2.2
		c0.3-0.6,0.7-1.1,1.3-1.4c0.5-0.3,1.1-0.5,1.8-0.5c0.6,0,1.1,0.1,1.5,0.4c0.4,0.2,0.8,0.6,1,1c0.3,0.4,0.4,0.9,0.5,1.4
		s0.1,1,0.1,1.6h-5.6v-0.8h4.8l-0.4,0.2c0-0.3,0-0.6-0.1-1c-0.1-0.3-0.1-0.6-0.3-0.9c-0.1-0.3-0.3-0.5-0.6-0.6s-0.6-0.2-1-0.2
		c-0.5,0-0.9,0.1-1.3,0.4s-0.6,0.6-0.8,1c-0.2,0.4-0.3,0.9-0.3,1.3v0.5c0,0.5,0.1,1,0.2,1.5c0.2,0.4,0.4,0.8,0.7,1
		c0.3,0.2,0.8,0.4,1.3,0.4s0.9-0.1,1.2-0.4c0.3-0.2,0.5-0.6,0.6-1.1h1.3c-0.1,0.5-0.3,1-0.6,1.3c-0.3,0.4-0.7,0.7-1.1,0.9
		C139.2,115.6,138.7,115.7,138.2,115.7z"/>
	<path d="M145.2,115.5v-7.8h1.3v7.8H145.2z M146,112c0-1,0.1-1.8,0.3-2.5c0.2-0.7,0.5-1.1,0.8-1.5c0.4-0.3,0.8-0.5,1.3-0.5
		c0.2,0,0.3,0,0.5,0c0.1,0,0.3,0.1,0.4,0.1l-0.1,1.3c-0.2,0-0.3-0.1-0.5-0.1c-0.2,0-0.3-0.1-0.5-0.1c-0.5,0-0.8,0.1-1.1,0.4
		c-0.3,0.3-0.5,0.6-0.6,1.1c-0.1,0.5-0.2,1-0.2,1.7H146z"/>
	<path d="M152.4,115.5v-7.8h1.1l0.1,1.6c0.2-0.6,0.6-1,1-1.3c0.4-0.3,1-0.5,1.6-0.5c0.6,0,1.1,0.1,1.6,0.4s0.8,0.7,1,1.2
		c0.2,0.5,0.4,1.1,0.4,1.8v4.6h-1.3v-4.6c0-0.7-0.2-1.3-0.5-1.7s-0.8-0.6-1.5-0.6c-0.5,0-0.9,0.1-1.2,0.4c-0.3,0.3-0.6,0.6-0.8,1.1
		c-0.2,0.5-0.3,1-0.3,1.7v3.7H152.4z M163.3,115.5v-4.6c0-0.7-0.2-1.3-0.5-1.7c-0.4-0.4-0.8-0.6-1.4-0.6c-0.7,0-1.2,0.3-1.6,0.8
		c-0.4,0.5-0.6,1.3-0.6,2.3h-0.6c0-0.7,0.1-1.3,0.2-1.8s0.3-1,0.6-1.3s0.6-0.6,1-0.8c0.4-0.2,0.8-0.3,1.3-0.3c0.6,0,1.1,0.1,1.6,0.4
		s0.8,0.7,1,1.2c0.2,0.5,0.4,1.1,0.4,1.8v4.6H163.3z"/>
	<path d="M168.7,107.7h1.3v4.9c0,0.7,0.2,1.1,0.5,1.5s0.8,0.5,1.4,0.5c0.5,0,0.9-0.1,1.3-0.4c0.4-0.3,0.6-0.6,0.8-1.1
		c0.2-0.5,0.3-1,0.3-1.6h0.5c0,0.9-0.1,1.6-0.4,2.2c-0.3,0.6-0.6,1.1-1.1,1.4c-0.5,0.3-1,0.5-1.6,0.5c-0.6,0-1.1-0.1-1.5-0.3
		s-0.8-0.5-1-1c-0.2-0.4-0.4-1-0.4-1.7V107.7z M171.9,106.4l-0.6-0.5l2.7-2.9l0.9,0.7L171.9,106.4z M174.2,107.7h1.3v7.8h-1.3V107.7
		z"/>
	<path d="M182.9,115.7c-0.6,0-1.2-0.2-1.7-0.5s-0.9-0.8-1.3-1.4c-0.3-0.6-0.5-1.3-0.5-2.2c0-0.8,0.2-1.6,0.5-2.2
		c0.3-0.6,0.7-1.1,1.2-1.4c0.5-0.3,1.1-0.5,1.7-0.5c0.6,0,1.1,0.1,1.5,0.4c0.4,0.3,0.8,0.7,1,1.2c0.2,0.5,0.4,1.2,0.4,1.9h-0.5
		c0-0.5-0.1-1-0.3-1.3c-0.2-0.4-0.5-0.6-0.8-0.8c-0.3-0.2-0.7-0.3-1.1-0.3c-0.4,0-0.8,0.1-1.2,0.4s-0.6,0.6-0.8,1
		c-0.2,0.4-0.3,1-0.3,1.6c0,0.6,0.1,1.2,0.3,1.6c0.2,0.4,0.5,0.8,0.8,1s0.7,0.4,1.2,0.4c0.4,0,0.7-0.1,1-0.3
		c0.3-0.2,0.6-0.5,0.8-0.8c0.2-0.4,0.3-0.8,0.3-1.3h0.5c0,0.8-0.1,1.4-0.4,1.9c-0.2,0.5-0.6,0.9-1,1.2
		C183.9,115.6,183.4,115.7,182.9,115.7z M185.4,115.5l-0.2-1.8v-9.3h1.3v11.1H185.4z"/>
	<path d="M193.8,115.7c-0.7,0-1.3-0.2-1.8-0.5c-0.5-0.3-0.9-0.8-1.3-1.4c-0.3-0.6-0.5-1.3-0.5-2.1c0-0.9,0.2-1.6,0.5-2.2
		c0.3-0.6,0.7-1.1,1.3-1.4c0.5-0.3,1.1-0.5,1.8-0.5c0.6,0,1.1,0.1,1.5,0.4c0.4,0.2,0.8,0.6,1,1c0.3,0.4,0.4,0.9,0.5,1.4
		s0.1,1,0.1,1.6h-5.6v-0.8h4.8l-0.4,0.2c0-0.3,0-0.6-0.1-1c-0.1-0.3-0.1-0.6-0.3-0.9c-0.1-0.3-0.3-0.5-0.6-0.6s-0.6-0.2-1-0.2
		c-0.5,0-0.9,0.1-1.3,0.4s-0.6,0.6-0.8,1c-0.2,0.4-0.3,0.9-0.3,1.3v0.5c0,0.5,0.1,1,0.2,1.5c0.2,0.4,0.4,0.8,0.7,1
		c0.3,0.2,0.8,0.4,1.3,0.4s0.9-0.1,1.2-0.4c0.3-0.2,0.5-0.6,0.6-1.1h1.3c-0.1,0.5-0.3,1-0.6,1.3c-0.3,0.4-0.7,0.7-1.1,0.9
		C194.8,115.6,194.3,115.7,193.8,115.7z"/>
	<path d="M200,115.5v-1l4.6-5.7H200v-1h6v1l-4.5,5.7h4.5v1H200z"/>
	<path d="M208.6,114.8c0-0.3,0.1-0.5,0.3-0.7c0.2-0.2,0.4-0.3,0.7-0.3c0.3,0,0.5,0.1,0.7,0.3c0.2,0.2,0.3,0.4,0.3,0.7
		c0,0.3-0.1,0.5-0.3,0.6c-0.2,0.2-0.4,0.3-0.7,0.3c-0.3,0-0.5-0.1-0.7-0.3C208.7,115.2,208.6,115,208.6,114.8z"/>
</g>
</svg>
