<?xml version="1.0" encoding="utf-8"?>
<!-- Generator: Adobe Illustrator 24.0.0, SVG Export Plug-In . SVG Version: 6.00 Build 0)  -->
<svg version="1.1" id="Capa_1" xmlns="http://www.w3.org/2000/svg" xmlns:xlink="http://www.w3.org/1999/xlink" x="0px" y="0px"
	 viewBox="0 0 186.2 236.1" style="enable-background:new 0 0 186.2 236.1;" xml:space="preserve">
<style type="text/css">
	.st0{fill:#FFFFFF;}
	.st1{fill:#1D1D1B;}
</style>
<g>
	<path class="st0" d="M0.6,236.1c0-51.1,41.4-92.5,92.5-92.5s92.5,41.4,92.5,92.5v-143c0-51.1-41.4-92.5-92.5-92.5S0.6,42,0.6,93.1
		V236.1z"/>
	<path class="st1" d="M186.2,236.1H185c0-50.7-41.2-91.9-91.9-91.9S1.2,185.4,1.2,236.1H0v-143C0,41.8,41.8,0,93.1,0
		s93.1,41.8,93.1,93.1V236.1z M93.1,143c46.2,0,84.7,33.9,91.9,78.1v-128c0-50.7-41.2-91.9-91.9-91.9S1.2,42.4,1.2,93.1v128
		C8.4,176.9,46.9,143,93.1,143z"/>
</g>
<g>
	<path d="M27.3,83.3L30.8,73h1.5l3.4,10.2h-1.3l-0.9-2.6h-4.1l-0.9,2.6H27.3z M29.8,79.6h3.4l-1.7-5.1L29.8,79.6z"/>
	<path d="M39.2,87.1V75.5h1.1l0.2,1.8v9.8H39.2z M42.7,83.5c-0.6,0-1.1-0.1-1.5-0.4c-0.4-0.3-0.7-0.6-1-1.1s-0.3-1.1-0.3-1.8h0.5
		c0,0.5,0.1,0.9,0.3,1.2s0.5,0.6,0.8,0.8c0.3,0.2,0.7,0.3,1,0.3c0.4,0,0.8-0.1,1.1-0.3s0.7-0.6,0.9-1c0.2-0.4,0.3-1,0.3-1.6
		c0-0.6-0.1-1.2-0.3-1.6c-0.2-0.4-0.5-0.8-0.8-1c-0.4-0.2-0.7-0.4-1.2-0.4c-0.4,0-0.7,0.1-1,0.3c-0.3,0.2-0.6,0.4-0.8,0.8
		c-0.2,0.3-0.3,0.8-0.3,1.3h-0.5c0-0.8,0.1-1.4,0.4-1.9s0.6-0.9,1-1.2c0.4-0.3,0.9-0.4,1.4-0.4c0.6,0,1.2,0.2,1.7,0.5s1,0.8,1.3,1.4
		c0.3,0.6,0.5,1.3,0.5,2.2c0,0.9-0.2,1.6-0.5,2.2c-0.3,0.6-0.8,1.1-1.3,1.4C43.9,83.3,43.3,83.5,42.7,83.5z"/>
	<path d="M50,83.3V72.1h1.3v11.1H50z M55.6,83.3v-4.6c0-0.7-0.2-1.3-0.5-1.7s-0.8-0.6-1.5-0.6c-0.5,0-0.9,0.1-1.2,0.4
		c-0.3,0.3-0.6,0.6-0.8,1.1c-0.2,0.5-0.3,1-0.3,1.7h-0.5c0-0.9,0.1-1.7,0.4-2.3s0.6-1.1,1-1.5c0.5-0.3,1-0.5,1.7-0.5
		c0.6,0,1.1,0.1,1.6,0.4c0.4,0.3,0.8,0.7,1,1.2s0.4,1.1,0.4,1.8v4.6H55.6z"/>
	<path d="M64,83.5c-0.7,0-1.3-0.2-1.9-0.5c-0.5-0.3-1-0.8-1.3-1.4c-0.3-0.6-0.5-1.4-0.5-2.3c0-0.9,0.2-1.6,0.5-2.3
		c0.3-0.6,0.7-1.1,1.3-1.4c0.5-0.3,1.2-0.5,1.9-0.5c0.7,0,1.3,0.2,1.9,0.5c0.5,0.3,1,0.8,1.3,1.4c0.3,0.6,0.5,1.4,0.5,2.3
		c0,0.9-0.2,1.6-0.5,2.3c-0.3,0.6-0.7,1.1-1.3,1.4C65.3,83.3,64.7,83.5,64,83.5z M64,82.3c0.5,0,0.9-0.1,1.3-0.4
		c0.4-0.2,0.6-0.6,0.8-1c0.2-0.4,0.3-1,0.3-1.6c0-0.9-0.2-1.7-0.6-2.2c-0.4-0.5-1-0.8-1.7-0.8c-0.5,0-0.9,0.1-1.3,0.4
		s-0.6,0.6-0.8,1c-0.2,0.4-0.3,1-0.3,1.6c0,0.9,0.2,1.6,0.6,2.2C62.6,82.1,63.2,82.3,64,82.3z"/>
	<path d="M74.2,83.5c-0.8,0-1.4-0.1-1.9-0.3c-0.5-0.2-0.9-0.5-1.1-0.9c-0.3-0.4-0.4-0.8-0.4-1.3H72c0,0.5,0.2,0.9,0.6,1.1
		c0.4,0.2,0.9,0.4,1.5,0.4c0.3,0,0.6-0.1,0.9-0.2c0.3-0.1,0.5-0.3,0.7-0.4s0.3-0.4,0.3-0.6c0-0.3-0.1-0.5-0.3-0.7
		c-0.2-0.2-0.6-0.3-1.1-0.5L73,79.5c-0.7-0.2-1.2-0.5-1.5-0.9S71,77.9,71,77.4c0-0.6,0.3-1.1,0.8-1.5s1.3-0.6,2.2-0.6
		c1,0,1.7,0.2,2.2,0.6s0.8,0.9,0.8,1.5h-1.3c0-0.3-0.2-0.6-0.5-0.8c-0.3-0.2-0.7-0.3-1.3-0.3c-0.5,0-0.9,0.1-1.2,0.4
		c-0.3,0.2-0.4,0.5-0.4,0.8c0,0.5,0.5,0.9,1.4,1.2l1.5,0.5c0.7,0.2,1.2,0.5,1.5,0.8s0.5,0.7,0.5,1.2c0,0.4-0.1,0.8-0.4,1.1
		c-0.3,0.3-0.6,0.6-1.1,0.8C75.4,83.3,74.8,83.5,74.2,83.5z"/>
	<path d="M80.2,76.3v-0.9h5v0.9H80.2z M83.7,83.5c-0.4,0-0.8-0.1-1.1-0.2c-0.3-0.2-0.6-0.4-0.8-0.7s-0.3-0.7-0.3-1.2v-8h1.3v7.9
		c0,0.8,0.4,1.2,1.1,1.2c0.2,0,0.4,0,0.6-0.1c0.2,0,0.4-0.1,0.7-0.2l0.2,0.9c-0.3,0.1-0.6,0.2-0.8,0.3C84.2,83.4,84,83.5,83.7,83.5z
		"/>
	<path d="M88.7,83.3v-7.8H90v7.8H88.7z M89.6,79.7c0-1,0.1-1.8,0.3-2.5c0.2-0.7,0.5-1.1,0.8-1.5c0.4-0.3,0.8-0.5,1.3-0.5
		c0.2,0,0.3,0,0.5,0s0.3,0.1,0.4,0.1l-0.1,1.3c-0.2,0-0.3-0.1-0.5-0.1c-0.2,0-0.3-0.1-0.5-0.1c-0.5,0-0.8,0.1-1.1,0.4
		s-0.5,0.6-0.6,1.1c-0.1,0.5-0.2,1-0.2,1.7H89.6z"/>
	<path d="M98.7,83.5c-0.7,0-1.3-0.2-1.9-0.5c-0.5-0.3-1-0.8-1.3-1.4c-0.3-0.6-0.5-1.4-0.5-2.3c0-0.9,0.2-1.6,0.5-2.3
		c0.3-0.6,0.7-1.1,1.3-1.4c0.5-0.3,1.2-0.5,1.9-0.5c0.7,0,1.3,0.2,1.9,0.5c0.5,0.3,1,0.8,1.3,1.4c0.3,0.6,0.5,1.4,0.5,2.3
		c0,0.9-0.2,1.6-0.5,2.3c-0.3,0.6-0.7,1.1-1.3,1.4C100,83.3,99.4,83.5,98.7,83.5z M98.7,82.3c0.5,0,0.9-0.1,1.3-0.4
		c0.4-0.2,0.6-0.6,0.8-1c0.2-0.4,0.3-1,0.3-1.6c0-0.9-0.2-1.7-0.6-2.2c-0.4-0.5-1-0.8-1.7-0.8c-0.5,0-0.9,0.1-1.3,0.4
		s-0.6,0.6-0.8,1c-0.2,0.4-0.3,1-0.3,1.6c0,0.9,0.2,1.6,0.6,2.2C97.4,82.1,97.9,82.3,98.7,82.3z"/>
	<path d="M106.1,87.1V75.5h1.1l0.2,1.8v9.8H106.1z M109.7,83.5c-0.6,0-1.1-0.1-1.5-0.4c-0.4-0.3-0.7-0.6-1-1.1s-0.3-1.1-0.3-1.8h0.5
		c0,0.5,0.1,0.9,0.3,1.2s0.5,0.6,0.8,0.8c0.3,0.2,0.7,0.3,1,0.3c0.4,0,0.8-0.1,1.1-0.3s0.7-0.6,0.9-1c0.2-0.4,0.3-1,0.3-1.6
		c0-0.6-0.1-1.2-0.3-1.6c-0.2-0.4-0.5-0.8-0.8-1c-0.4-0.2-0.7-0.4-1.2-0.4c-0.4,0-0.7,0.1-1,0.3c-0.3,0.2-0.6,0.4-0.8,0.8
		c-0.2,0.3-0.3,0.8-0.3,1.3h-0.5c0-0.8,0.1-1.4,0.4-1.9s0.6-0.9,1-1.2c0.4-0.3,0.9-0.4,1.4-0.4c0.6,0,1.2,0.2,1.7,0.5s1,0.8,1.3,1.4
		c0.3,0.6,0.5,1.3,0.5,2.2c0,0.9-0.2,1.6-0.5,2.2c-0.3,0.6-0.8,1.1-1.3,1.4C110.8,83.3,110.3,83.5,109.7,83.5z"/>
	<path d="M117,83.3V72.1h1.3v11.1H117z M122.5,83.3v-4.6c0-0.7-0.2-1.3-0.5-1.7s-0.8-0.6-1.5-0.6c-0.5,0-0.9,0.1-1.2,0.4
		c-0.3,0.3-0.6,0.6-0.8,1.1c-0.2,0.5-0.3,1-0.3,1.7h-0.5c0-0.9,0.1-1.7,0.4-2.3s0.6-1.1,1-1.5c0.5-0.3,1-0.5,1.7-0.5
		c0.6,0,1.1,0.1,1.6,0.4c0.4,0.3,0.8,0.7,1,1.2s0.4,1.1,0.4,1.8v4.6H122.5z"/>
	<path d="M130.8,83.5c-0.7,0-1.3-0.2-1.8-0.5c-0.5-0.3-0.9-0.8-1.3-1.4s-0.5-1.3-0.5-2.1c0-0.9,0.2-1.6,0.5-2.2
		c0.3-0.6,0.7-1.1,1.3-1.4c0.5-0.3,1.1-0.5,1.8-0.5c0.6,0,1.1,0.1,1.5,0.4c0.4,0.2,0.8,0.6,1,1c0.3,0.4,0.4,0.9,0.5,1.4
		s0.1,1,0.1,1.6h-5.6v-0.8h4.8l-0.4,0.2c0-0.3,0-0.6-0.1-1c-0.1-0.3-0.1-0.6-0.3-0.9c-0.1-0.3-0.3-0.5-0.6-0.6
		c-0.3-0.2-0.6-0.2-1-0.2c-0.5,0-0.9,0.1-1.3,0.4c-0.3,0.3-0.6,0.6-0.8,1c-0.2,0.4-0.3,0.9-0.3,1.3v0.5c0,0.5,0.1,1,0.2,1.5
		c0.2,0.4,0.4,0.8,0.7,1c0.3,0.3,0.8,0.4,1.3,0.4c0.5,0,0.9-0.1,1.2-0.4c0.3-0.2,0.5-0.6,0.6-1.1h1.3c-0.1,0.5-0.3,1-0.6,1.3
		c-0.3,0.4-0.7,0.7-1.1,0.9C131.9,83.4,131.4,83.5,130.8,83.5z"/>
	<path d="M145.7,71.4l0.9,0.6c-0.6,0.6-1.1,1.3-1.6,2s-0.7,1.4-0.9,2.1c-0.2,0.7-0.3,1.4-0.3,2.2c0,1.1,0.2,2.2,0.7,3.2s1.2,2,2.1,3
		l-0.9,0.7c-1.1-1-1.9-2-2.4-3.2s-0.8-2.4-0.8-3.6c0-1.3,0.3-2.5,0.8-3.6C143.9,73.4,144.7,72.4,145.7,71.4z"/>
	<path d="M150.1,76.4c-0.2,0-0.4-0.1-0.6-0.2s-0.3-0.3-0.4-0.5s-0.1-0.4-0.1-0.7c0-0.4,0.1-0.8,0.4-1.2c0.3-0.4,0.6-0.7,1.1-0.9
		l0.9,0.5c-0.3,0.2-0.6,0.3-0.8,0.5s-0.4,0.4-0.4,0.7c0.3,0,0.5,0.1,0.6,0.2c0.2,0.1,0.2,0.3,0.2,0.5c0,0.2-0.1,0.4-0.2,0.6
		C150.6,76.3,150.4,76.4,150.1,76.4z"/>
	<path d="M154.6,85.1l-0.9-0.7c0.9-0.9,1.6-1.9,2.1-3c0.5-1,0.7-2.1,0.7-3.2c0-0.7-0.1-1.5-0.3-2.2c-0.2-0.7-0.5-1.4-0.9-2.1
		s-0.9-1.3-1.6-2l0.9-0.6c1.1,1,1.9,2,2.4,3.2c0.5,1.2,0.8,2.4,0.8,3.6c0,0.8-0.1,1.6-0.4,2.5s-0.6,1.6-1.1,2.3
		C155.9,83.8,155.3,84.5,154.6,85.1z"/>
	<path d="M161.7,85l-1-0.5c0.3-0.2,0.6-0.3,0.8-0.5c0.2-0.2,0.4-0.4,0.4-0.7c-0.2,0-0.4-0.1-0.6-0.3c-0.2-0.1-0.2-0.3-0.2-0.6
		c0-0.2,0.1-0.4,0.3-0.6s0.4-0.2,0.7-0.2c0.3,0,0.6,0.1,0.8,0.4c0.2,0.2,0.3,0.5,0.3,0.9c0,0.4-0.1,0.8-0.4,1.2
		C162.6,84.5,162.2,84.8,161.7,85z"/>
	<path d="M28.8,103c-0.3,0-0.5-0.1-0.7-0.4c-0.2-0.2-0.3-0.7-0.3-1.2c0-0.5,0.1-1,0.2-1.4c0.1-0.4,0.3-0.8,0.6-1.1
		c0.2-0.3,0.4-0.6,0.7-0.8s0.4-0.4,0.6-0.5l1.4-1.2c0.2-0.2,0.4-0.4,0.6-0.6s0.5-0.6,0.6-0.9s0.3-0.8,0.3-1.4c0-0.7-0.2-1.3-0.6-1.7
		c-0.4-0.4-0.9-0.6-1.5-0.6c-0.4,0-0.8,0.1-1.1,0.3c-0.3,0.2-0.5,0.4-0.7,0.7c-0.2,0.3-0.3,0.5-0.3,0.8l0.7,0.6
		c0.1,0.1,0.2,0.2,0.3,0.3c0.1,0.2,0.2,0.4,0.2,0.6c0,0.2-0.1,0.4-0.2,0.6c-0.2,0.1-0.3,0.2-0.5,0.2c-0.2,0-0.5-0.1-0.7-0.4
		S28,94.2,28,93.7c0-0.5,0.1-1,0.4-1.5s0.6-0.9,1.1-1.2c0.5-0.3,1-0.5,1.7-0.5c0.6,0,1.1,0.1,1.5,0.4c0.4,0.3,0.8,0.6,1,1
		c0.2,0.4,0.4,0.9,0.4,1.5c0,0.6-0.1,1.1-0.4,1.5c-0.3,0.4-0.6,0.8-0.9,1.1c-0.4,0.3-0.7,0.6-1,0.8l-1.5,1.1
		c-0.3,0.2-0.6,0.5-0.9,0.8s-0.5,0.6-0.7,1c-0.2,0.4-0.3,0.8-0.3,1.3c0.1-0.2,0.3-0.4,0.6-0.7s0.6-0.3,1-0.3c0.4,0,0.7,0.1,1,0.3
		c0.3,0.2,0.5,0.4,0.7,0.7c0.2,0.2,0.4,0.5,0.7,0.7c0.2,0.2,0.5,0.3,0.8,0.3c0.3,0,0.5-0.1,0.6-0.3c0.1-0.2,0.2-0.4,0.2-0.7
		c0-0.3,0-0.5,0-0.8v-1.5h0.5v1.6c0,0.2,0,0.5,0,0.8c0,0.3-0.1,0.6-0.2,0.9c-0.1,0.3-0.2,0.5-0.4,0.7s-0.5,0.3-0.9,0.3
		c-0.4,0-0.7-0.1-0.9-0.2c-0.2-0.2-0.4-0.4-0.6-0.6c-0.2-0.2-0.3-0.5-0.5-0.7c-0.1-0.2-0.3-0.4-0.5-0.6s-0.4-0.2-0.6-0.2
		c-0.3,0-0.5,0.1-0.7,0.3c-0.2,0.2-0.4,0.4-0.4,0.6l0.4,0.2c0.1,0,0.2,0.1,0.3,0.2c0.1,0.1,0.2,0.3,0.2,0.5c0,0.2-0.1,0.3-0.2,0.4
		C29.1,102.9,29,103,28.8,103z"/>
	<path d="M40.4,103c-0.6,0-1-0.2-1.5-0.5c-0.4-0.3-0.8-0.8-1-1.4s-0.5-1.3-0.6-2c-0.1-0.7-0.2-1.5-0.2-2.3c0-0.8,0.1-1.5,0.2-2.3
		c0.1-0.7,0.3-1.4,0.6-2c0.3-0.6,0.6-1.1,1.1-1.4s0.9-0.5,1.5-0.5c0.6,0,1,0.2,1.5,0.5c0.4,0.3,0.8,0.8,1.1,1.4
		c0.3,0.6,0.5,1.3,0.6,2c0.1,0.7,0.2,1.5,0.2,2.3c0,0.8-0.1,1.5-0.2,2.3c-0.1,0.7-0.4,1.4-0.6,2c-0.3,0.6-0.6,1.1-1,1.4
		C41.4,102.8,41,103,40.4,103z M40.4,102.4c0.8,0,1.3-0.3,1.6-0.8s0.5-1.3,0.5-2.2v-5.1c0-0.9-0.2-1.7-0.5-2.2s-0.9-0.8-1.6-0.8
		c-0.8,0-1.3,0.3-1.6,0.8c-0.3,0.6-0.5,1.3-0.5,2.2v5.1c0,0.9,0.2,1.7,0.5,2.2C39.1,102.1,39.6,102.4,40.4,102.4z"/>
	<path d="M47.7,103c-0.3,0-0.5-0.1-0.7-0.4c-0.2-0.2-0.3-0.7-0.3-1.2c0-0.5,0.1-1,0.2-1.4c0.1-0.4,0.3-0.8,0.6-1.1
		c0.2-0.3,0.4-0.6,0.7-0.8s0.4-0.4,0.6-0.5l1.4-1.2c0.2-0.2,0.4-0.4,0.6-0.6s0.5-0.6,0.6-0.9s0.3-0.8,0.3-1.4c0-0.7-0.2-1.3-0.6-1.7
		c-0.4-0.4-0.9-0.6-1.5-0.6c-0.4,0-0.8,0.1-1.1,0.3c-0.3,0.2-0.5,0.4-0.7,0.7c-0.2,0.3-0.3,0.5-0.3,0.8l0.7,0.6
		c0.1,0.1,0.2,0.2,0.3,0.3c0.1,0.2,0.2,0.4,0.2,0.6c0,0.2-0.1,0.4-0.2,0.6c-0.2,0.1-0.3,0.2-0.5,0.2c-0.2,0-0.5-0.1-0.7-0.4
		s-0.4-0.6-0.4-1.1c0-0.5,0.1-1,0.4-1.5s0.6-0.9,1.1-1.2c0.5-0.3,1-0.5,1.7-0.5c0.6,0,1.1,0.1,1.5,0.4c0.4,0.3,0.8,0.6,1,1
		c0.2,0.4,0.4,0.9,0.4,1.5c0,0.6-0.1,1.1-0.4,1.5c-0.3,0.4-0.6,0.8-0.9,1.1c-0.4,0.3-0.7,0.6-1,0.8l-1.5,1.1
		c-0.3,0.2-0.6,0.5-0.9,0.8s-0.5,0.6-0.7,1c-0.2,0.4-0.3,0.8-0.3,1.3c0.1-0.2,0.3-0.4,0.6-0.7s0.6-0.3,1-0.3c0.4,0,0.7,0.1,1,0.3
		c0.3,0.2,0.5,0.4,0.7,0.7c0.2,0.2,0.4,0.5,0.7,0.7c0.2,0.2,0.5,0.3,0.8,0.3c0.3,0,0.5-0.1,0.6-0.3c0.1-0.2,0.2-0.4,0.2-0.7
		c0-0.3,0-0.5,0-0.8v-1.5h0.5v1.6c0,0.2,0,0.5,0,0.8c0,0.3-0.1,0.6-0.2,0.9c-0.1,0.3-0.2,0.5-0.4,0.7S52,103,51.6,103
		c-0.4,0-0.7-0.1-0.9-0.2c-0.2-0.2-0.4-0.4-0.6-0.6c-0.2-0.2-0.3-0.5-0.5-0.7c-0.1-0.2-0.3-0.4-0.5-0.6s-0.4-0.2-0.6-0.2
		c-0.3,0-0.5,0.1-0.7,0.3c-0.2,0.2-0.4,0.4-0.4,0.6l0.4,0.2c0.1,0,0.2,0.1,0.3,0.2c0.1,0.1,0.2,0.3,0.2,0.5c0,0.2-0.1,0.3-0.2,0.4
		C48.1,102.9,47.9,103,47.7,103z"/>
	<path d="M59.3,103c-0.6,0-1-0.2-1.5-0.5c-0.4-0.3-0.8-0.8-1-1.4s-0.5-1.3-0.6-2C56,98.3,56,97.6,56,96.8c0-0.8,0.1-1.5,0.2-2.3
		c0.1-0.7,0.3-1.4,0.6-2c0.3-0.6,0.6-1.1,1.1-1.4s0.9-0.5,1.5-0.5c0.6,0,1,0.2,1.5,0.5c0.4,0.3,0.8,0.8,1.1,1.4
		c0.3,0.6,0.5,1.3,0.6,2c0.1,0.7,0.2,1.5,0.2,2.3c0,0.8-0.1,1.5-0.2,2.3c-0.1,0.7-0.4,1.4-0.6,2c-0.3,0.6-0.6,1.1-1,1.4
		C60.4,102.8,59.9,103,59.3,103z M59.3,102.4c0.8,0,1.3-0.3,1.6-0.8s0.5-1.3,0.5-2.2v-5.1c0-0.9-0.2-1.7-0.5-2.2s-0.9-0.8-1.6-0.8
		c-0.8,0-1.3,0.3-1.6,0.8c-0.3,0.6-0.5,1.3-0.5,2.2v5.1c0,0.9,0.2,1.7,0.5,2.2C58,102.1,58.6,102.4,59.3,102.4z"/>
	<path d="M66.5,98.1v-0.6h4.3v0.6H66.5z"/>
	<path d="M76.1,103c-0.3,0-0.5-0.1-0.7-0.4c-0.2-0.2-0.3-0.7-0.3-1.2c0-0.5,0.1-1,0.2-1.4c0.1-0.4,0.3-0.8,0.6-1.1
		c0.2-0.3,0.4-0.6,0.7-0.8s0.4-0.4,0.6-0.5l1.4-1.2c0.2-0.2,0.4-0.4,0.6-0.6s0.5-0.6,0.6-0.9s0.3-0.8,0.3-1.4c0-0.7-0.2-1.3-0.6-1.7
		c-0.4-0.4-0.9-0.6-1.5-0.6c-0.4,0-0.8,0.1-1.1,0.3c-0.3,0.2-0.5,0.4-0.7,0.7c-0.2,0.3-0.3,0.5-0.3,0.8l0.7,0.6
		c0.1,0.1,0.2,0.2,0.3,0.3c0.1,0.2,0.2,0.4,0.2,0.6c0,0.2-0.1,0.4-0.2,0.6c-0.2,0.1-0.3,0.2-0.5,0.2c-0.2,0-0.5-0.1-0.7-0.4
		s-0.4-0.6-0.4-1.1c0-0.5,0.1-1,0.4-1.5s0.6-0.9,1.1-1.2c0.5-0.3,1-0.5,1.7-0.5c0.6,0,1.1,0.1,1.5,0.4c0.4,0.3,0.8,0.6,1,1
		c0.2,0.4,0.4,0.9,0.4,1.5c0,0.6-0.1,1.1-0.4,1.5c-0.3,0.4-0.6,0.8-0.9,1.1c-0.4,0.3-0.7,0.6-1,0.8l-1.5,1.1
		c-0.3,0.2-0.6,0.5-0.9,0.8s-0.5,0.6-0.7,1c-0.2,0.4-0.3,0.8-0.3,1.3c0.1-0.2,0.3-0.4,0.6-0.7s0.6-0.3,1-0.3c0.4,0,0.7,0.1,1,0.3
		c0.3,0.2,0.5,0.4,0.7,0.7c0.2,0.2,0.4,0.5,0.7,0.7c0.2,0.2,0.5,0.3,0.8,0.3c0.3,0,0.5-0.1,0.6-0.3c0.1-0.2,0.2-0.4,0.2-0.7
		c0-0.3,0-0.5,0-0.8v-1.5h0.5v1.6c0,0.2,0,0.5,0,0.8c0,0.3-0.1,0.6-0.2,0.9c-0.1,0.3-0.2,0.5-0.4,0.7S80.4,103,80,103
		c-0.4,0-0.7-0.1-0.9-0.2c-0.2-0.2-0.4-0.4-0.6-0.6c-0.2-0.2-0.3-0.5-0.5-0.7c-0.1-0.2-0.3-0.4-0.5-0.6s-0.4-0.2-0.6-0.2
		c-0.3,0-0.5,0.1-0.7,0.3c-0.2,0.2-0.4,0.4-0.4,0.6l0.4,0.2c0.1,0,0.2,0.1,0.3,0.2c0.1,0.1,0.2,0.3,0.2,0.5c0,0.2-0.1,0.3-0.2,0.4
		C76.4,102.9,76.3,103,76.1,103z"/>
	<path d="M83.6,102.8v-0.6h3.6v-9.8h-3V92l1.5-0.1c0.5-0.1,1-0.2,1.3-0.4c0.4-0.2,0.7-0.5,0.9-0.9h0.4v11.7h3.1v0.6H83.6z"/>
	<path d="M94.5,104.6l-1-0.5c0.3-0.2,0.6-0.3,0.8-0.5c0.2-0.2,0.4-0.4,0.4-0.7c-0.2,0-0.4-0.1-0.6-0.3c-0.2-0.1-0.2-0.3-0.2-0.6
		c0-0.2,0.1-0.4,0.3-0.6s0.4-0.2,0.7-0.2c0.3,0,0.6,0.1,0.8,0.4c0.2,0.2,0.3,0.5,0.3,0.9c0,0.4-0.1,0.8-0.4,1.2
		C95.4,104.1,95,104.4,94.5,104.6z"/>
	<path d="M104.6,92.6h1.8l3.5,7.1h-0.1l3.5-7.1h1.8v10.2h-1.3v-8.9h0.2l-3.8,7.6h-0.8l-3.7-7.6h0.1v8.9h-1.3V92.6z"/>
	<path d="M123,103c-0.7,0-1.3-0.1-1.9-0.4c-0.6-0.2-1-0.6-1.4-1.1c-0.3-0.5-0.5-1.1-0.5-1.8h1.2c0,0.5,0.1,0.9,0.4,1.2
		c0.2,0.3,0.5,0.5,0.9,0.7c0.4,0.1,0.8,0.2,1.3,0.2c0.5,0,0.9-0.1,1.3-0.2c0.4-0.2,0.6-0.4,0.8-0.6c0.2-0.3,0.3-0.5,0.3-0.9
		c0-0.4-0.1-0.8-0.4-1.1c-0.3-0.3-0.7-0.5-1.2-0.7l-1.8-0.6c-0.8-0.3-1.5-0.7-1.9-1c-0.4-0.4-0.7-0.9-0.7-1.6c0-0.8,0.3-1.4,0.9-1.9
		c0.6-0.5,1.5-0.8,2.6-0.8c1,0,1.9,0.2,2.4,0.7c0.6,0.5,0.9,1.1,1,1.9h-1.3c-0.1-0.5-0.3-0.8-0.7-1.1c-0.4-0.3-0.9-0.4-1.5-0.4
		c-0.7,0-1.2,0.1-1.6,0.4c-0.4,0.3-0.6,0.7-0.6,1.1c0,0.4,0.1,0.7,0.4,0.9c0.2,0.2,0.6,0.4,1.1,0.6l2.1,0.7c0.7,0.2,1.3,0.6,1.7,1
		s0.6,1,0.6,1.7c0,0.5-0.1,1-0.4,1.5c-0.3,0.4-0.7,0.8-1.3,1.1C124.5,102.9,123.8,103,123,103z"/>
	<path d="M130.9,92.6h3c1,0,1.9,0.2,2.7,0.6c0.8,0.4,1.4,1,1.8,1.8c0.4,0.8,0.6,1.7,0.6,2.7c0,1-0.2,1.9-0.6,2.7
		c-0.4,0.8-1,1.4-1.8,1.8c-0.8,0.4-1.7,0.6-2.7,0.6h-3V92.6z M132.2,93.7v8h1.7c0.8,0,1.4-0.2,2-0.5c0.6-0.3,1-0.8,1.3-1.4
		c0.3-0.6,0.5-1.3,0.5-2.1c0-0.8-0.2-1.5-0.5-2.1c-0.3-0.6-0.7-1.1-1.3-1.4c-0.6-0.3-1.2-0.5-2-0.5H132.2z"/>
</g>
</svg>
