<?xml version="1.0" encoding="utf-8"?>
<!-- Generator: Adobe Illustrator 24.0.0, SVG Export Plug-In . SVG Version: 6.00 Build 0)  -->
<svg version="1.1" id="Capa_1" xmlns="http://www.w3.org/2000/svg" xmlns:xlink="http://www.w3.org/1999/xlink" x="0px" y="0px"
	 viewBox="0 0 190.8 206.8" style="enable-background:new 0 0 190.8 206.8;" xml:space="preserve">
<style type="text/css">
	.st0{fill:#FFFFFF;}
	.st1{fill:#1D1D1B;}
</style>
<g>
	<polygon class="st0" points="189.8,205.8 0.2,205.8 0.2,65.3 95,0.3 189.8,65.3 	"/>
	<path class="st1" d="M190.4,206.4H-0.4V65L95-0.4L190.4,65V206.4z M0.8,205.2h188.4V65.6L95,1L0.8,65.6V205.2z"/>
</g>
<g>
	<path d="M18.1,131.5h1.3v4.5h5.1v-4.5h1.3v10.2h-1.3v-4.6h-5.1v4.6h-1.3V131.5z"/>
	<path d="M33.1,141.9c-0.7,0-1.3-0.2-1.9-0.5c-0.5-0.3-1-0.8-1.3-1.4c-0.3-0.6-0.5-1.4-0.5-2.3c0-0.9,0.2-1.6,0.5-2.3
		c0.3-0.6,0.7-1.1,1.3-1.4c0.5-0.3,1.2-0.5,1.9-0.5c0.7,0,1.3,0.2,1.9,0.5c0.5,0.3,1,0.8,1.3,1.4c0.3,0.6,0.5,1.4,0.5,2.3
		c0,0.9-0.2,1.6-0.5,2.3c-0.3,0.6-0.7,1.1-1.3,1.4C34.5,141.8,33.8,141.9,33.1,141.9z M33.1,140.8c0.5,0,0.9-0.1,1.3-0.4
		c0.4-0.2,0.6-0.6,0.8-1c0.2-0.4,0.3-1,0.3-1.6c0-0.9-0.2-1.7-0.6-2.2c-0.4-0.5-1-0.8-1.7-0.8c-0.5,0-0.9,0.1-1.3,0.4
		s-0.6,0.6-0.8,1c-0.2,0.4-0.3,1-0.3,1.6c0,0.9,0.2,1.6,0.6,2.2C31.8,140.5,32.4,140.8,33.1,140.8z"/>
	<path d="M40.3,133.9h1.3v4.9c0,0.7,0.2,1.1,0.5,1.5c0.3,0.3,0.8,0.5,1.4,0.5c0.5,0,0.9-0.1,1.3-0.4c0.4-0.3,0.6-0.6,0.8-1.1
		c0.2-0.5,0.3-1,0.3-1.6h0.5c0,0.9-0.1,1.6-0.4,2.2c-0.3,0.6-0.6,1.1-1.1,1.4s-1,0.5-1.6,0.5c-0.6,0-1.1-0.1-1.5-0.3
		c-0.4-0.2-0.8-0.5-1-1c-0.2-0.4-0.4-1-0.4-1.7V133.9z M45.8,133.9h1.3v7.8h-1.3V133.9z"/>
	<path d="M54.5,141.9c-0.8,0-1.4-0.1-1.9-0.3c-0.5-0.2-0.9-0.5-1.1-0.9c-0.3-0.4-0.4-0.8-0.4-1.3h1.2c0,0.5,0.2,0.9,0.6,1.1
		c0.4,0.2,0.9,0.4,1.5,0.4c0.3,0,0.6-0.1,0.9-0.2c0.3-0.1,0.5-0.3,0.7-0.4s0.3-0.4,0.3-0.6c0-0.3-0.1-0.5-0.3-0.7
		c-0.2-0.2-0.6-0.3-1.1-0.5l-1.5-0.5c-0.7-0.2-1.2-0.5-1.5-0.9s-0.5-0.8-0.5-1.3c0-0.6,0.3-1.1,0.8-1.5s1.3-0.6,2.2-0.6
		c1,0,1.7,0.2,2.2,0.6s0.8,0.9,0.8,1.5h-1.3c0-0.3-0.2-0.6-0.5-0.8c-0.3-0.2-0.7-0.3-1.3-0.3c-0.5,0-0.9,0.1-1.2,0.4
		c-0.3,0.2-0.4,0.5-0.4,0.8c0,0.5,0.5,0.9,1.4,1.2l1.5,0.5c0.7,0.2,1.2,0.5,1.5,0.8s0.5,0.7,0.5,1.2c0,0.4-0.1,0.8-0.4,1.1
		c-0.3,0.3-0.6,0.6-1.1,0.8C55.7,141.8,55.2,141.9,54.5,141.9z"/>
	<path d="M62.3,132.1c-0.3,0-0.5-0.1-0.6-0.2s-0.2-0.3-0.2-0.6c0-0.2,0.1-0.4,0.2-0.6s0.4-0.2,0.6-0.2c0.3,0,0.5,0.1,0.6,0.2
		c0.2,0.1,0.2,0.3,0.2,0.6c0,0.2-0.1,0.4-0.2,0.6C62.8,132,62.6,132.1,62.3,132.1z M61.7,141.7v-7.8H63v7.8H61.7z"/>
	<path d="M67.8,141.7v-7.8h1.1l0.2,1.8v6H67.8z M73.3,141.7v-4.6c0-0.7-0.2-1.3-0.5-1.7s-0.8-0.6-1.5-0.6c-0.5,0-0.9,0.1-1.2,0.4
		c-0.3,0.3-0.6,0.6-0.8,1.1c-0.2,0.5-0.3,1-0.3,1.7h-0.5c0-0.9,0.1-1.7,0.4-2.3s0.6-1.1,1-1.5c0.5-0.3,1-0.5,1.7-0.5
		c0.6,0,1.1,0.1,1.6,0.4c0.4,0.3,0.8,0.7,1,1.2s0.4,1.1,0.4,1.8v4.6H73.3z"/>
	<path d="M81.7,145.7c-0.8,0-1.5-0.1-2.1-0.3c-0.6-0.2-1-0.5-1.4-0.9c-0.3-0.4-0.5-0.8-0.5-1.3c0-0.6,0.2-1.1,0.7-1.4
		c0.4-0.3,1-0.5,1.7-0.5l0.7,0.4c-0.6,0-1,0.1-1.4,0.4c-0.3,0.2-0.5,0.6-0.5,1s0.2,0.8,0.7,1.1c0.5,0.3,1.1,0.4,2,0.4
		c0.7,0,1.2-0.1,1.7-0.3s0.9-0.4,1.1-0.7s0.4-0.6,0.4-1c0-0.2-0.1-0.5-0.3-0.6c-0.2-0.2-0.5-0.3-0.8-0.3h-3c-0.5,0-1-0.1-1.4-0.2
		s-0.7-0.4-0.9-0.6c-0.2-0.3-0.3-0.5-0.3-0.9c0-0.3,0.1-0.6,0.3-0.8c0.2-0.2,0.4-0.4,0.7-0.5c0.3-0.1,0.6-0.2,1-0.2l0.2,0.5
		c-0.2,0-0.3,0-0.5,0.1c-0.2,0.1-0.3,0.2-0.4,0.3c-0.1,0.1-0.2,0.3-0.2,0.5c0,0.3,0.1,0.5,0.3,0.6c0.2,0.2,0.6,0.3,1.1,0.3h3
		c0.7,0,1.3,0.2,1.7,0.5c0.4,0.3,0.6,0.7,0.6,1.3c0,0.5-0.2,1-0.5,1.5c-0.4,0.5-0.9,0.9-1.6,1.2S82.6,145.7,81.7,145.7z M81.9,139.4
		c-0.6,0-1.1-0.1-1.6-0.4c-0.5-0.2-0.9-0.6-1.1-1c-0.3-0.4-0.4-0.9-0.4-1.5c0-0.6,0.1-1.1,0.4-1.5c0.3-0.4,0.7-0.8,1.1-1
		s1-0.4,1.6-0.4c0.6,0,1.1,0.1,1.6,0.4c0.5,0.2,0.9,0.6,1.1,1s0.4,0.9,0.4,1.5c0,0.6-0.1,1.1-0.4,1.5c-0.3,0.4-0.7,0.8-1.1,1
		C83,139.3,82.5,139.4,81.9,139.4z M81.9,138.5c0.6,0,1.1-0.2,1.4-0.6c0.3-0.4,0.5-0.8,0.5-1.4c0-0.6-0.2-1-0.5-1.4
		c-0.3-0.4-0.8-0.5-1.4-0.5c-0.6,0-1.1,0.2-1.4,0.5c-0.3,0.4-0.5,0.8-0.5,1.4c0,0.6,0.2,1,0.5,1.4C80.8,138.3,81.3,138.5,81.9,138.5
		z M84.5,135l-0.6-0.2c0-0.5,0.1-0.9,0.3-1.2c0.2-0.3,0.4-0.6,0.8-0.8s0.7-0.3,1.2-0.3l-0.1,1.3c-0.5,0-0.9,0.1-1.1,0.3
		C84.6,134.2,84.5,134.5,84.5,135z"/>
	<path d="M94.6,141.7v-10.2h6.2v1.1h-5v3.4h4.6v1.1h-4.6v4.6H94.6z"/>
	<path d="M106.2,141.9c-0.6,0-1.2-0.1-1.6-0.3s-0.7-0.5-0.9-0.9c-0.2-0.4-0.3-0.7-0.3-1.1c0-0.5,0.1-1,0.4-1.3
		c0.3-0.3,0.6-0.6,1.1-0.7c0.5-0.2,1-0.2,1.5-0.2c0.4,0,0.8,0,1.2,0.1c0.4,0.1,0.8,0.2,1.2,0.3v0.8c-0.3-0.1-0.7-0.2-1.1-0.3
		s-0.8-0.1-1.1-0.1c-0.5,0-1,0.1-1.3,0.3c-0.4,0.2-0.5,0.6-0.5,1.1c0,0.4,0.1,0.7,0.4,1c0.3,0.3,0.7,0.4,1.3,0.4
		c0.4,0,0.8-0.1,1.1-0.3s0.6-0.4,0.8-0.7c0.2-0.3,0.3-0.6,0.3-0.9h0.3c0,0.5-0.1,1-0.3,1.5c-0.2,0.4-0.5,0.8-1,1.1
		C107.3,141.8,106.8,141.9,106.2,141.9z M108.9,141.7l-0.2-1.7v-3.3c0-0.7-0.2-1.2-0.4-1.5c-0.3-0.3-0.7-0.5-1.3-0.5
		c-0.3,0-0.6,0-0.9,0.1s-0.5,0.2-0.7,0.5c-0.2,0.2-0.2,0.5-0.2,0.8h-1.4c0-0.6,0.1-1,0.4-1.4c0.3-0.3,0.7-0.6,1.1-0.8
		c0.5-0.2,1-0.2,1.7-0.2c0.6,0,1.1,0.1,1.6,0.3s0.8,0.5,1.1,1c0.3,0.4,0.4,1,0.4,1.7v5H108.9z"/>
	<path d="M115.1,132.1c-0.3,0-0.5-0.1-0.6-0.2s-0.2-0.3-0.2-0.6c0-0.2,0.1-0.4,0.2-0.6s0.4-0.2,0.6-0.2c0.3,0,0.5,0.1,0.6,0.2
		s0.2,0.3,0.2,0.6c0,0.2-0.1,0.4-0.2,0.6S115.3,132.1,115.1,132.1z M114.4,141.7v-7.8h1.3v7.8H114.4z"/>
	<path d="M120.5,141.7v-7.8h1.3v7.8H120.5z M121.4,138.2c0-1,0.1-1.8,0.3-2.5c0.2-0.7,0.5-1.1,0.8-1.5c0.4-0.3,0.8-0.5,1.3-0.5
		c0.2,0,0.3,0,0.5,0c0.1,0,0.3,0.1,0.4,0.1l-0.1,1.3c-0.2,0-0.3-0.1-0.5-0.1c-0.2,0-0.3-0.1-0.5-0.1c-0.5,0-0.8,0.1-1.1,0.4
		c-0.3,0.3-0.5,0.6-0.6,1.1c-0.1,0.5-0.2,1-0.2,1.7H121.4z"/>
	<path d="M127.5,143.5l-1-0.5c0.3-0.2,0.6-0.3,0.8-0.5c0.2-0.2,0.4-0.4,0.4-0.7c-0.2,0-0.4-0.1-0.6-0.3c-0.2-0.1-0.2-0.3-0.2-0.6
		c0-0.2,0.1-0.4,0.3-0.6c0.2-0.2,0.4-0.2,0.7-0.2c0.3,0,0.6,0.1,0.8,0.4c0.2,0.2,0.3,0.5,0.3,0.9c0,0.4-0.1,0.8-0.4,1.2
		C128.3,143,128,143.3,127.5,143.5z"/>
	<path d="M18.4,161.5c-0.3,0-0.5-0.1-0.7-0.4c-0.2-0.2-0.3-0.7-0.3-1.2c0-0.5,0.1-1,0.2-1.4c0.1-0.4,0.3-0.8,0.6-1.1
		c0.2-0.3,0.4-0.6,0.7-0.8s0.4-0.4,0.6-0.5l1.4-1.2c0.2-0.2,0.4-0.4,0.6-0.6s0.5-0.6,0.6-0.9s0.3-0.8,0.3-1.4c0-0.7-0.2-1.3-0.6-1.7
		c-0.4-0.4-0.9-0.6-1.5-0.6c-0.4,0-0.8,0.1-1.1,0.3c-0.3,0.2-0.5,0.4-0.7,0.7c-0.2,0.3-0.3,0.5-0.3,0.8l0.7,0.6
		c0.1,0.1,0.2,0.2,0.3,0.3c0.1,0.2,0.2,0.4,0.2,0.6c0,0.2-0.1,0.4-0.2,0.6c-0.2,0.1-0.3,0.2-0.5,0.2c-0.2,0-0.5-0.1-0.7-0.4
		s-0.4-0.6-0.4-1.1c0-0.5,0.1-1,0.4-1.5s0.6-0.9,1.1-1.2c0.5-0.3,1-0.5,1.7-0.5c0.6,0,1.1,0.1,1.5,0.4c0.4,0.3,0.8,0.6,1,1
		c0.2,0.4,0.4,0.9,0.4,1.5c0,0.6-0.1,1.1-0.4,1.5c-0.3,0.4-0.6,0.8-0.9,1.1c-0.4,0.3-0.7,0.6-1,0.8l-1.5,1.1
		c-0.3,0.2-0.6,0.5-0.9,0.8s-0.5,0.6-0.7,1c-0.2,0.4-0.3,0.8-0.3,1.3c0.1-0.2,0.3-0.4,0.6-0.7s0.6-0.3,1-0.3c0.4,0,0.7,0.1,1,0.3
		c0.3,0.2,0.5,0.4,0.7,0.7c0.2,0.2,0.4,0.5,0.7,0.7c0.2,0.2,0.5,0.3,0.8,0.3c0.3,0,0.5-0.1,0.6-0.3c0.1-0.2,0.2-0.4,0.2-0.7
		c0-0.3,0-0.5,0-0.8v-1.5h0.5v1.6c0,0.2,0,0.5,0,0.8c0,0.3-0.1,0.6-0.2,0.9c-0.1,0.3-0.2,0.5-0.4,0.7s-0.5,0.3-0.9,0.3
		c-0.4,0-0.7-0.1-0.9-0.2c-0.2-0.2-0.4-0.4-0.6-0.6c-0.2-0.2-0.3-0.5-0.5-0.7c-0.1-0.2-0.3-0.4-0.5-0.6s-0.4-0.2-0.6-0.2
		c-0.3,0-0.5,0.1-0.7,0.3c-0.2,0.2-0.4,0.4-0.4,0.6l0.4,0.2c0.1,0,0.2,0.1,0.3,0.2c0.1,0.1,0.2,0.3,0.2,0.5c0,0.2-0.1,0.3-0.2,0.4
		C18.7,161.4,18.6,161.5,18.4,161.5z"/>
	<path d="M30,161.5c-0.6,0-1-0.2-1.5-0.5c-0.4-0.3-0.8-0.8-1-1.4s-0.5-1.3-0.6-2c-0.1-0.7-0.2-1.5-0.2-2.3c0-0.8,0.1-1.5,0.2-2.3
		c0.1-0.7,0.3-1.4,0.6-2c0.3-0.6,0.6-1.1,1.1-1.4s0.9-0.5,1.5-0.5c0.6,0,1,0.2,1.5,0.5c0.4,0.3,0.8,0.8,1.1,1.4
		c0.3,0.6,0.5,1.3,0.6,2c0.1,0.7,0.2,1.5,0.2,2.3c0,0.8-0.1,1.5-0.2,2.3c-0.1,0.7-0.4,1.4-0.6,2c-0.3,0.6-0.6,1.1-1,1.4
		C31.1,161.3,30.6,161.5,30,161.5z M30,160.9c0.8,0,1.3-0.3,1.6-0.8s0.5-1.3,0.5-2.2v-5.1c0-0.9-0.2-1.7-0.5-2.2s-0.9-0.8-1.6-0.8
		c-0.8,0-1.3,0.3-1.6,0.8c-0.3,0.6-0.5,1.3-0.5,2.2v5.1c0,0.9,0.2,1.7,0.5,2.2C28.7,160.6,29.2,160.9,30,160.9z"/>
	<path d="M35.3,161.3v-0.6h3.6v-9.8h-3v-0.4l1.5-0.1c0.5-0.1,1-0.2,1.3-0.4c0.4-0.2,0.7-0.5,0.9-0.9H40v11.7h3.1v0.6H35.3z"/>
	<path d="M49,161.5c-0.7,0-1.3-0.2-1.8-0.6s-0.9-0.9-1.1-1.5c-0.2-0.6-0.4-1.2-0.4-1.9c0-0.6,0.1-1.2,0.3-1.6
		c0.2-0.5,0.5-0.8,0.8-1.1c0.3-0.3,0.6-0.5,0.9-0.6v-0.1c-0.2-0.1-0.4-0.2-0.6-0.4c-0.2-0.2-0.4-0.5-0.6-0.8
		c-0.2-0.3-0.2-0.7-0.2-1.1c0-0.6,0.1-1.1,0.4-1.5c0.3-0.4,0.6-0.7,1-0.9s0.9-0.3,1.3-0.3s0.9,0.1,1.3,0.3c0.4,0.2,0.7,0.5,1,0.9
		c0.3,0.4,0.4,0.9,0.4,1.5c0,0.4-0.1,0.8-0.2,1.1c-0.2,0.3-0.3,0.6-0.5,0.8c-0.2,0.2-0.4,0.4-0.6,0.4v0.1c0.3,0.1,0.6,0.3,0.9,0.6
		s0.6,0.7,0.8,1.1c0.2,0.5,0.3,1,0.3,1.6c0,0.6-0.1,1.3-0.4,1.9c-0.2,0.6-0.6,1.1-1.1,1.5C50.3,161.3,49.7,161.5,49,161.5z
		 M49,160.9c0.7,0,1.2-0.2,1.6-0.6c0.4-0.4,0.5-0.9,0.5-1.6v-2.2c0-0.7-0.2-1.2-0.5-1.6c-0.4-0.4-0.9-0.6-1.6-0.6s-1.2,0.2-1.6,0.6
		c-0.4,0.4-0.5,0.9-0.5,1.6v2.2c0,0.7,0.2,1.2,0.5,1.6C47.8,160.7,48.3,160.9,49,160.9z M49,153.9c1.2,0,1.8-0.6,1.8-1.7v-0.9
		c0-1.1-0.6-1.7-1.8-1.7s-1.8,0.6-1.8,1.7v0.9C47.2,153.3,47.8,153.9,49,153.9z"/>
	<path d="M57.6,162.9l-0.2-0.3c0.2-0.2,0.5-0.3,0.7-0.6c0.2-0.2,0.4-0.4,0.4-0.6c-0.3,0-0.5-0.1-0.7-0.2c-0.2-0.1-0.3-0.4-0.3-0.7
		c0-0.3,0.1-0.5,0.3-0.7c0.2-0.2,0.4-0.3,0.6-0.3c0.2,0,0.4,0.1,0.6,0.2c0.2,0.2,0.3,0.4,0.3,0.8c0,0.3-0.1,0.6-0.3,0.9
		c-0.2,0.3-0.4,0.6-0.7,0.8C58.1,162.6,57.9,162.8,57.6,162.9z"/>
	<path d="M16.6,180.4V179c0.4,0.3,0.8,0.4,1.2,0.6c0.4,0.1,0.8,0.2,1.1,0.2c0.6,0,1-0.2,1.2-0.5c0.2-0.3,0.4-0.8,0.4-1.4v-7.3h1.3
		v7.3c0,0.7-0.1,1.3-0.3,1.8s-0.5,0.8-1,1c-0.4,0.2-0.9,0.3-1.5,0.3c-0.4,0-0.9-0.1-1.2-0.2C17.3,180.7,17,180.6,16.6,180.4z"/>
	<path d="M28.2,181.1c-0.6,0-1.2-0.1-1.6-0.3c-0.4-0.2-0.7-0.5-0.9-0.9c-0.2-0.4-0.3-0.7-0.3-1.1c0-0.5,0.1-1,0.4-1.3
		c0.3-0.3,0.6-0.6,1.1-0.7c0.5-0.2,1-0.2,1.5-0.2c0.4,0,0.8,0,1.2,0.1c0.4,0.1,0.8,0.2,1.2,0.3v0.8c-0.3-0.1-0.7-0.2-1.1-0.3
		c-0.4-0.1-0.8-0.1-1.1-0.1c-0.5,0-1,0.1-1.3,0.3s-0.5,0.6-0.5,1.1c0,0.4,0.1,0.7,0.4,1c0.3,0.3,0.7,0.4,1.3,0.4
		c0.4,0,0.8-0.1,1.1-0.3c0.3-0.2,0.6-0.4,0.8-0.7c0.2-0.3,0.3-0.6,0.3-0.9H31c0,0.5-0.1,1-0.3,1.5c-0.2,0.4-0.5,0.8-1,1.1
		S28.8,181.1,28.2,181.1z M30.8,180.9l-0.2-1.7v-3.3c0-0.7-0.1-1.2-0.4-1.5c-0.3-0.3-0.7-0.5-1.3-0.5c-0.3,0-0.6,0-0.9,0.1
		c-0.3,0.1-0.5,0.2-0.7,0.5c-0.2,0.2-0.2,0.5-0.2,0.8h-1.4c0-0.6,0.1-1,0.4-1.4c0.3-0.3,0.7-0.6,1.1-0.8c0.5-0.2,1-0.2,1.7-0.2
		c0.6,0,1.1,0.1,1.6,0.3s0.8,0.5,1.1,1c0.3,0.4,0.4,1,0.4,1.7v5H30.8z"/>
	<path d="M38.5,181.1c-0.6,0-1.2-0.1-1.6-0.3c-0.4-0.2-0.7-0.5-0.9-0.9c-0.2-0.4-0.3-0.7-0.3-1.1c0-0.5,0.1-1,0.4-1.3
		c0.3-0.3,0.6-0.6,1.1-0.7c0.5-0.2,1-0.2,1.5-0.2c0.4,0,0.8,0,1.2,0.1c0.4,0.1,0.8,0.2,1.2,0.3v0.8c-0.3-0.1-0.7-0.2-1.1-0.3
		c-0.4-0.1-0.8-0.1-1.1-0.1c-0.5,0-1,0.1-1.3,0.3s-0.5,0.6-0.5,1.1c0,0.4,0.1,0.7,0.4,1c0.3,0.3,0.7,0.4,1.3,0.4
		c0.4,0,0.8-0.1,1.1-0.3c0.3-0.2,0.6-0.4,0.8-0.7c0.2-0.3,0.3-0.6,0.3-0.9h0.3c0,0.5-0.1,1-0.3,1.5c-0.2,0.4-0.5,0.8-1,1.1
		S39,181.1,38.5,181.1z M41.1,180.9l-0.2-1.7v-3.3c0-0.7-0.1-1.2-0.4-1.5c-0.3-0.3-0.7-0.5-1.3-0.5c-0.3,0-0.6,0-0.9,0.1
		c-0.3,0.1-0.5,0.2-0.7,0.5c-0.2,0.2-0.2,0.5-0.2,0.8h-1.4c0-0.6,0.1-1,0.4-1.4c0.3-0.3,0.7-0.6,1.1-0.8c0.5-0.2,1-0.2,1.7-0.2
		c0.6,0,1.1,0.1,1.6,0.3s0.8,0.5,1.1,1c0.3,0.4,0.4,1,0.4,1.7v5H41.1z"/>
	<path d="M46.6,180.9v-11.1h1.3v11.1H46.6z M47.6,176.4l4-3.3h1.8l-5.8,4.7V176.4z M52,180.9l-3.7-4.9l1.3-0.2l4,5.2H52z"/>
	<path d="M57.1,180.9v-11.1h1.3v11.1H57.1z M58.1,176.4l4-3.3h1.8l-5.8,4.7V176.4z M62.5,180.9l-3.7-4.9l1.3-0.2l4,5.2H62.5z"/>
	<path d="M70.4,181.1c-0.7,0-1.3-0.2-1.9-0.5c-0.5-0.3-1-0.8-1.3-1.4c-0.3-0.6-0.5-1.4-0.5-2.3c0-0.9,0.2-1.6,0.5-2.3
		c0.3-0.6,0.7-1.1,1.3-1.4c0.5-0.3,1.2-0.5,1.9-0.5c0.7,0,1.3,0.2,1.9,0.5c0.5,0.3,1,0.8,1.3,1.4c0.3,0.6,0.5,1.4,0.5,2.3
		c0,0.9-0.2,1.6-0.5,2.3c-0.3,0.6-0.7,1.1-1.3,1.4C71.7,180.9,71.1,181.1,70.4,181.1z M70.4,180c0.5,0,0.9-0.1,1.3-0.4
		c0.4-0.2,0.6-0.6,0.8-1c0.2-0.4,0.3-1,0.3-1.6c0-0.9-0.2-1.7-0.6-2.2c-0.4-0.5-1-0.8-1.7-0.8c-0.5,0-0.9,0.1-1.3,0.4
		s-0.6,0.6-0.8,1c-0.2,0.4-0.3,1-0.3,1.6c0,0.9,0.2,1.6,0.6,2.2C69,179.7,69.6,180,70.4,180z"/>
	<path d="M82.9,180.9v-10.2h3.3c1.1,0,2,0.3,2.6,0.9c0.6,0.6,0.9,1.3,0.9,2.3c0,1-0.3,1.7-0.9,2.3s-1.5,0.8-2.6,0.8h-2v3.9H82.9z
		 M84.2,175.8h2c0.7,0,1.3-0.2,1.6-0.5c0.4-0.4,0.6-0.9,0.6-1.5c0-0.6-0.2-1.1-0.6-1.5c-0.4-0.4-0.9-0.6-1.6-0.6h-2V175.8z"/>
	<path d="M94,171.2c-0.3,0-0.5-0.1-0.6-0.2s-0.2-0.3-0.2-0.6c0-0.2,0.1-0.4,0.2-0.6s0.4-0.2,0.6-0.2c0.3,0,0.5,0.1,0.6,0.2
		c0.2,0.1,0.2,0.3,0.2,0.6c0,0.2-0.1,0.4-0.2,0.6C94.5,171.2,94.3,171.2,94,171.2z M93.4,180.9v-7.8h1.3v7.8H93.4z"/>
	<path d="M102.2,181.1c-0.7,0-1.3-0.2-1.8-0.5c-0.5-0.3-0.9-0.8-1.3-1.4c-0.3-0.6-0.5-1.3-0.5-2.1c0-0.9,0.2-1.6,0.5-2.2
		s0.7-1.1,1.3-1.4s1.1-0.5,1.8-0.5c0.6,0,1.1,0.1,1.5,0.4s0.8,0.6,1,1c0.3,0.4,0.4,0.9,0.5,1.4s0.1,1,0.1,1.6h-5.6v-0.8h4.8
		l-0.4,0.2c0-0.3,0-0.6-0.1-1c-0.1-0.3-0.1-0.6-0.3-0.9c-0.1-0.3-0.3-0.5-0.6-0.6c-0.3-0.2-0.6-0.2-1-0.2c-0.5,0-0.9,0.1-1.3,0.4
		c-0.3,0.3-0.6,0.6-0.8,1c-0.2,0.4-0.3,0.9-0.3,1.3v0.5c0,0.5,0.1,1,0.2,1.5c0.2,0.4,0.4,0.8,0.7,1c0.3,0.3,0.8,0.4,1.3,0.4
		s0.9-0.1,1.2-0.4c0.3-0.2,0.5-0.6,0.6-1.1h1.3c-0.1,0.5-0.3,1-0.6,1.3c-0.3,0.4-0.7,0.7-1.1,0.9C103.2,181,102.7,181.1,102.2,181.1
		z"/>
	<path d="M108,174v-0.9h5v0.9H108z M111.5,181.1c-0.4,0-0.8-0.1-1.1-0.2c-0.3-0.2-0.6-0.4-0.8-0.7c-0.2-0.3-0.3-0.7-0.3-1.2v-8h1.3
		v7.9c0,0.8,0.4,1.2,1.1,1.2c0.2,0,0.4,0,0.6-0.1c0.2,0,0.4-0.1,0.7-0.2l0.2,0.9c-0.3,0.1-0.6,0.2-0.8,0.3
		C112.1,181,111.8,181.1,111.5,181.1z"/>
	<path d="M117.3,171.2c-0.3,0-0.5-0.1-0.6-0.2s-0.2-0.3-0.2-0.6c0-0.2,0.1-0.4,0.2-0.6s0.4-0.2,0.6-0.2s0.5,0.1,0.6,0.2
		c0.2,0.1,0.2,0.3,0.2,0.6c0,0.2-0.1,0.4-0.2,0.6C117.8,171.2,117.5,171.2,117.3,171.2z M116.7,180.9v-7.8h1.3v7.8H116.7z"/>
	<path d="M122.7,180.9v-11.1h1.3v11.1H122.7z"/>
	<path d="M130.8,181.1c-0.6,0-1.2-0.1-1.6-0.3s-0.7-0.5-0.9-0.9c-0.2-0.4-0.3-0.7-0.3-1.1c0-0.5,0.1-1,0.4-1.3
		c0.3-0.3,0.6-0.6,1.1-0.7c0.5-0.2,1-0.2,1.5-0.2c0.4,0,0.8,0,1.2,0.1c0.4,0.1,0.8,0.2,1.2,0.3v0.8c-0.3-0.1-0.7-0.2-1.1-0.3
		s-0.8-0.1-1.1-0.1c-0.5,0-1,0.1-1.3,0.3c-0.4,0.2-0.5,0.6-0.5,1.1c0,0.4,0.1,0.7,0.4,1c0.3,0.3,0.7,0.4,1.3,0.4
		c0.4,0,0.8-0.1,1.1-0.3s0.6-0.4,0.8-0.7c0.2-0.3,0.3-0.6,0.3-0.9h0.3c0,0.5-0.1,1-0.3,1.5c-0.2,0.4-0.5,0.8-1,1.1
		C131.9,180.9,131.4,181.1,130.8,181.1z M133.4,180.9l-0.2-1.7v-3.3c0-0.7-0.2-1.2-0.4-1.5c-0.3-0.3-0.7-0.5-1.3-0.5
		c-0.3,0-0.6,0-0.9,0.1s-0.5,0.2-0.7,0.5c-0.2,0.2-0.2,0.5-0.2,0.8h-1.4c0-0.6,0.1-1,0.4-1.4c0.3-0.3,0.7-0.6,1.1-0.8
		c0.5-0.2,1-0.2,1.7-0.2c0.6,0,1.1,0.1,1.6,0.3s0.8,0.5,1.1,1c0.3,0.4,0.4,1,0.4,1.7v5H133.4z M130.1,171.6c-0.2,0-0.4-0.1-0.6-0.2
		s-0.2-0.3-0.2-0.6c0-0.2,0.1-0.4,0.2-0.6c0.2-0.2,0.4-0.2,0.6-0.2c0.2,0,0.5,0.1,0.6,0.2c0.2,0.2,0.2,0.4,0.2,0.6
		c0,0.2-0.1,0.4-0.2,0.6C130.5,171.5,130.3,171.6,130.1,171.6z M132.8,171.6c-0.2,0-0.4-0.1-0.6-0.2c-0.2-0.2-0.2-0.3-0.2-0.6
		s0.1-0.4,0.2-0.6c0.2-0.2,0.4-0.2,0.6-0.2c0.2,0,0.5,0.1,0.6,0.2c0.2,0.2,0.2,0.4,0.2,0.6s-0.1,0.4-0.2,0.6
		C133.2,171.5,133,171.6,132.8,171.6z"/>
	<path d="M139.6,171.2c-0.3,0-0.5-0.1-0.6-0.2s-0.2-0.3-0.2-0.6c0-0.2,0.1-0.4,0.2-0.6s0.4-0.2,0.6-0.2c0.3,0,0.5,0.1,0.6,0.2
		s0.2,0.3,0.2,0.6c0,0.2-0.1,0.4-0.2,0.6S139.9,171.2,139.6,171.2z M139,180.9v-7.8h1.3v7.8H139z"/>
	<path d="M145.1,180.9v-7.8h1.1l0.2,1.8v6H145.1z M150.6,180.9v-4.6c0-0.7-0.2-1.3-0.5-1.7c-0.4-0.4-0.8-0.6-1.5-0.6
		c-0.5,0-0.9,0.1-1.2,0.4c-0.3,0.3-0.6,0.6-0.8,1.1c-0.2,0.5-0.3,1-0.3,1.7h-0.5c0-0.9,0.1-1.7,0.4-2.3s0.6-1.1,1-1.5
		c0.5-0.3,1-0.5,1.7-0.5c0.6,0,1.1,0.1,1.6,0.4c0.4,0.3,0.8,0.7,1,1.2c0.2,0.5,0.4,1.1,0.4,1.8v4.6H150.6z"/>
	<path d="M158.9,181.1c-0.7,0-1.3-0.2-1.8-0.5c-0.5-0.3-0.9-0.8-1.3-1.4c-0.3-0.6-0.5-1.3-0.5-2.1c0-0.9,0.2-1.6,0.5-2.2
		c0.3-0.6,0.7-1.1,1.3-1.4c0.5-0.3,1.1-0.5,1.8-0.5c0.6,0,1.1,0.1,1.5,0.4c0.4,0.2,0.8,0.6,1,1c0.3,0.4,0.4,0.9,0.5,1.4
		s0.1,1,0.1,1.6h-5.6v-0.8h4.8l-0.4,0.2c0-0.3,0-0.6-0.1-1c-0.1-0.3-0.1-0.6-0.3-0.9c-0.1-0.3-0.3-0.5-0.6-0.6s-0.6-0.2-1-0.2
		c-0.5,0-0.9,0.1-1.3,0.4c-0.3,0.3-0.6,0.6-0.8,1c-0.2,0.4-0.3,0.9-0.3,1.3v0.5c0,0.5,0.1,1,0.2,1.5c0.2,0.4,0.4,0.8,0.7,1
		c0.3,0.3,0.8,0.4,1.3,0.4c0.5,0,0.9-0.1,1.2-0.4c0.3-0.2,0.5-0.6,0.6-1.1h1.3c-0.1,0.5-0.3,1-0.6,1.3c-0.3,0.4-0.7,0.7-1.1,0.9
		C160,181,159.5,181.1,158.9,181.1z"/>
	<path d="M165.9,180.9v-7.8h1.1l0.2,1.8v6H165.9z M171.4,180.9v-4.6c0-0.7-0.2-1.3-0.5-1.7c-0.4-0.4-0.8-0.6-1.5-0.6
		c-0.5,0-0.9,0.1-1.2,0.4c-0.3,0.3-0.6,0.6-0.8,1.1c-0.2,0.5-0.3,1-0.3,1.7h-0.5c0-0.9,0.1-1.7,0.4-2.3s0.6-1.1,1-1.5
		c0.5-0.3,1-0.5,1.7-0.5c0.6,0,1.1,0.1,1.6,0.4s0.8,0.7,1,1.2c0.2,0.5,0.4,1.1,0.4,1.8v4.6H171.4z"/>
</g>
</svg>
