<?xml version="1.0" encoding="utf-8"?>
<!-- Generator: Adobe Illustrator 24.0.0, SVG Export Plug-In . SVG Version: 6.00 Build 0)  -->
<svg version="1.1" id="Capa_1" xmlns="http://www.w3.org/2000/svg" xmlns:xlink="http://www.w3.org/1999/xlink" x="0px" y="0px"
	 viewBox="0 0 251.2 251.2" style="enable-background:new 0 0 251.2 251.2;" xml:space="preserve">
<style type="text/css">
	.st0{fill:#1D1D1B;}
</style>
<g>
	<path class="st0" d="M125.6,251.2l-0.6-2.8C112.1,187.1,64.1,139.1,2.8,126.2L0,125.6l2.8-0.6C64.1,112.1,112.1,64.1,125,2.8
		l0.6-2.8l0.6,2.8c12.9,61.3,60.9,109.3,122.2,122.2l2.8,0.6l-2.8,0.6c-61.3,12.9-109.3,60.9-122.2,122.2L125.6,251.2z M5.7,125.6
		c59.6,13.6,106.2,60.3,119.9,119.9c13.6-59.6,60.3-106.2,119.9-119.9C185.9,111.9,139.2,65.3,125.6,5.7
		C111.9,65.3,65.3,111.9,5.7,125.6z"/>
</g>
<g>
	<path d="M78.1,104.9h1.8l3.5,7.1h-0.1l3.5-7.1h1.8v10.2h-1.3v-8.9h0.2l-3.8,7.6h-0.8l-3.7-7.6h0.1v8.9H78v-10.2H78.1z"/>
	<path d="M95.6,115.4c-0.7,0-1.3-0.2-1.8-0.5s-0.9-0.8-1.3-1.4s-0.5-1.3-0.5-2.1c0-0.9,0.2-1.6,0.5-2.2s0.7-1.1,1.3-1.4
		c0.5-0.3,1.1-0.5,1.8-0.5c0.6,0,1.1,0.1,1.5,0.4c0.4,0.2,0.8,0.6,1,1c0.3,0.4,0.4,0.9,0.5,1.4s0.1,1,0.1,1.6h-5.6v-0.8h4.8
		l-0.4,0.2c0-0.3,0-0.6-0.1-1c-0.1-0.3-0.1-0.6-0.3-0.9c-0.1-0.3-0.3-0.5-0.6-0.6c-0.3-0.2-0.6-0.2-1-0.2c-0.5,0-0.9,0.1-1.3,0.4
		c-0.3,0.3-0.6,0.6-0.8,1c-0.2,0.4-0.3,0.9-0.3,1.3v0.5c0,0.5,0.1,1,0.2,1.5c0.2,0.4,0.4,0.8,0.7,1c0.3,0.3,0.8,0.4,1.3,0.4
		s0.9-0.1,1.2-0.4c0.3-0.2,0.5-0.6,0.6-1.1h1.3c-0.1,0.5-0.3,1-0.6,1.3c-0.3,0.4-0.7,0.7-1.1,0.9C96.6,115.3,96.1,115.4,95.6,115.4z
		"/>
	<path d="M107.1,115.2V105h1.3v10.2H107.1z"/>
	<path d="M112.6,115.2v-7.8h1.1l0.2,1.8v6H112.6z M118.2,115.2v-4.6c0-0.7-0.2-1.3-0.5-1.7s-0.8-0.6-1.5-0.6c-0.5,0-0.9,0.1-1.2,0.4
		c-0.3,0.3-0.6,0.6-0.8,1.1c-0.2,0.5-0.3,1-0.3,1.7h-0.5c0-0.9,0.1-1.7,0.4-2.3s0.6-1.1,1-1.5c0.5-0.3,1-0.5,1.7-0.5
		c0.6,0,1.1,0.1,1.6,0.4c0.4,0.3,0.8,0.7,1,1.2s0.4,1.1,0.4,1.8v4.6H118.2z"/>
	<path d="M128.3,104.9h1.8l3.5,7.1h-0.1l3.5-7.1h1.8v10.2h-1.3v-8.9h0.2l-3.8,7.6h-0.8l-3.7-7.6h0.1v8.9h-1.3v-10.2H128.3z"/>
	<path d="M141.8,107.4h1.4l2.5,6.7h-0.3l2-6.7h1.3l-2.9,9.4c-0.2,0.8-0.6,1.4-1,1.8s-0.9,0.6-1.6,0.6c-0.3,0-0.7,0-1-0.1
		s-0.6-0.2-1-0.4v-1.2c0.3,0.2,0.6,0.4,0.8,0.5c0.3,0.1,0.6,0.1,0.8,0.1c0.3,0,0.6-0.1,0.8-0.3c0.2-0.2,0.4-0.5,0.6-0.8
		s0.3-0.7,0.4-1l0.2-0.8L141.8,107.4z"/>
	<path d="M154.5,115.4c-0.8,0-1.4-0.1-1.9-0.3c-0.5-0.2-0.9-0.5-1.1-0.9c-0.3-0.4-0.4-0.8-0.4-1.3h1.2c0,0.5,0.2,0.9,0.6,1.1
		c0.4,0.2,0.9,0.4,1.5,0.4c0.3,0,0.6-0.1,0.9-0.2c0.3-0.1,0.5-0.3,0.7-0.4c0.2-0.2,0.3-0.4,0.3-0.6c0-0.3-0.1-0.5-0.3-0.7
		s-0.6-0.3-1.1-0.5l-1.5-0.5c-0.7-0.2-1.2-0.5-1.5-0.9s-0.5-0.8-0.5-1.3c0-0.6,0.3-1.1,0.8-1.5s1.3-0.6,2.2-0.6c1,0,1.7,0.2,2.2,0.6
		s0.8,0.9,0.8,1.5h-1.3c0-0.3-0.2-0.6-0.5-0.8c-0.3-0.2-0.7-0.3-1.3-0.3c-0.5,0-0.9,0.1-1.2,0.4s-0.4,0.5-0.4,0.8
		c0,0.5,0.5,0.9,1.4,1.2l1.5,0.5c0.7,0.2,1.2,0.5,1.5,0.8c0.4,0.3,0.5,0.7,0.5,1.2c0,0.4-0.1,0.8-0.4,1.1c-0.3,0.3-0.6,0.6-1.1,0.8
		C155.7,115.3,155.1,115.4,154.5,115.4z"/>
	<path d="M163.9,115.4c-0.7,0-1.3-0.2-1.8-0.5s-0.9-0.8-1.3-1.4c-0.3-0.6-0.5-1.3-0.5-2.1c0-0.9,0.2-1.6,0.5-2.2s0.7-1.1,1.3-1.4
		s1.1-0.5,1.8-0.5c0.6,0,1.1,0.1,1.5,0.4s0.8,0.6,1,1c0.3,0.4,0.4,0.9,0.5,1.4s0.1,1,0.1,1.6h-5.6v-0.8h4.8l-0.4,0.2
		c0-0.3,0-0.6-0.1-1c-0.1-0.3-0.1-0.6-0.3-0.9c-0.1-0.3-0.3-0.5-0.6-0.6c-0.3-0.2-0.6-0.2-1-0.2c-0.5,0-0.9,0.1-1.3,0.4
		c-0.3,0.3-0.6,0.6-0.8,1s-0.3,0.9-0.3,1.3v0.5c0,0.5,0.1,1,0.2,1.5c0.2,0.4,0.4,0.8,0.7,1c0.3,0.3,0.8,0.4,1.3,0.4s0.9-0.1,1.2-0.4
		c0.3-0.2,0.5-0.6,0.6-1.1h1.3c-0.1,0.5-0.3,1-0.6,1.3c-0.3,0.4-0.7,0.7-1.1,0.9C165,115.3,164.5,115.4,163.9,115.4z"/>
	<path d="M170.6,115.2v-11.1h1.3v11.1H170.6z"/>
	<path d="M175.3,108.3v-0.9h4.2v0.9H175.3z M176.5,115.2v-9c0-0.5,0.1-0.9,0.3-1.3c0.2-0.3,0.5-0.6,0.8-0.7c0.3-0.2,0.7-0.2,1.1-0.2
		c0.2,0,0.5,0,0.7,0s0.5,0.1,0.7,0.1l-0.2,1c-0.2-0.1-0.3-0.1-0.5-0.1s-0.3,0-0.5,0s-0.3,0-0.5,0.1s-0.3,0.2-0.4,0.4
		c-0.1,0.2-0.2,0.4-0.2,0.8v9h-1.3V115.2z"/>
	<path d="M182.5,117l-1-0.5c0.3-0.2,0.6-0.3,0.8-0.5s0.4-0.4,0.4-0.7c-0.2,0-0.4-0.1-0.6-0.3c-0.2-0.1-0.2-0.3-0.2-0.6
		c0-0.2,0.1-0.4,0.3-0.6s0.4-0.2,0.7-0.2s0.6,0.1,0.8,0.4c0.2,0.2,0.3,0.5,0.3,0.9s-0.1,0.8-0.4,1.2
		C183.3,116.4,182.9,116.7,182.5,117z"/>
	<path d="M78.3,134.9c-0.3,0-0.5-0.1-0.7-0.4c-0.2-0.2-0.3-0.7-0.3-1.2s0.1-1,0.2-1.4s0.3-0.8,0.6-1.1c0.2-0.3,0.4-0.6,0.7-0.8
		s0.4-0.4,0.6-0.5l1.4-1.2c0.2-0.2,0.4-0.4,0.6-0.6s0.5-0.6,0.6-0.9c0.2-0.4,0.3-0.8,0.3-1.4c0-0.7-0.2-1.3-0.6-1.7
		c-0.4-0.4-0.9-0.6-1.5-0.6c-0.4,0-0.8,0.1-1.1,0.3c-0.3,0.2-0.5,0.4-0.7,0.7c-0.2,0.3-0.3,0.5-0.3,0.8l0.7,0.6
		c0.1,0.1,0.2,0.2,0.3,0.3c0.1,0.2,0.2,0.4,0.2,0.6s-0.1,0.4-0.2,0.6c-0.2,0.1-0.3,0.2-0.5,0.2s-0.5-0.1-0.7-0.4
		c-0.2-0.2-0.4-0.6-0.4-1.1s0.1-1,0.4-1.5s0.6-0.9,1.1-1.2c0.5-0.3,1-0.5,1.7-0.5c0.6,0,1.1,0.1,1.5,0.4s0.8,0.6,1,1
		s0.4,0.9,0.4,1.5s-0.1,1.1-0.4,1.5s-0.6,0.8-0.9,1.1c-0.4,0.3-0.7,0.6-1,0.8l-1.5,1.1c-0.3,0.2-0.6,0.5-0.9,0.8s-0.5,0.6-0.7,1
		s-0.3,0.8-0.3,1.3c0.1-0.2,0.3-0.4,0.6-0.7s0.6-0.3,1-0.3s0.7,0.1,1,0.3s0.5,0.4,0.7,0.7c0.2,0.2,0.4,0.5,0.7,0.7
		c0.2,0.2,0.5,0.3,0.8,0.3s0.5-0.1,0.6-0.3s0.2-0.4,0.2-0.7s0-0.5,0-0.8v-1.5H84v1.6c0,0.2,0,0.5,0,0.8s-0.1,0.6-0.2,0.9
		c-0.1,0.3-0.2,0.5-0.4,0.7s-0.5,0.3-0.9,0.3s-0.7-0.1-0.9-0.2c-0.2-0.2-0.4-0.4-0.6-0.6c-0.2-0.2-0.3-0.5-0.5-0.7
		c-0.1-0.2-0.3-0.4-0.5-0.6s-0.4-0.2-0.6-0.2c-0.3,0-0.5,0.1-0.7,0.3s-0.4,0.4-0.4,0.6l0.4,0.2c0.1,0,0.2,0.1,0.3,0.2
		c0.1,0.1,0.2,0.3,0.2,0.5s-0.1,0.3-0.2,0.4C78.7,134.9,78.5,134.9,78.3,134.9z"/>
	<path d="M89.6,134.9c-0.6,0-1-0.2-1.5-0.5c-0.4-0.3-0.8-0.8-1-1.4s-0.5-1.3-0.6-2s-0.2-1.5-0.2-2.3s0.1-1.5,0.2-2.3
		c0.1-0.7,0.3-1.4,0.6-2c0.3-0.6,0.6-1.1,1.1-1.4s0.9-0.5,1.5-0.5s1,0.2,1.5,0.5c0.4,0.3,0.8,0.8,1.1,1.4c0.3,0.6,0.5,1.3,0.6,2
		s0.2,1.5,0.2,2.3s-0.1,1.5-0.2,2.3c-0.1,0.7-0.4,1.4-0.6,2c-0.3,0.6-0.6,1.1-1,1.4C90.7,134.7,90.2,134.9,89.6,134.9z M89.6,134.3
		c0.8,0,1.3-0.3,1.6-0.8s0.5-1.3,0.5-2.2v-5.1c0-0.9-0.2-1.7-0.5-2.2s-0.9-0.8-1.6-0.8c-0.8,0-1.3,0.3-1.6,0.8
		c-0.3,0.6-0.5,1.3-0.5,2.2v5.1c0,0.9,0.2,1.7,0.5,2.2S88.9,134.3,89.6,134.3z"/>
	<path d="M94.7,134.8v-0.6h3.6v-9.8h-3V124l1.5-0.1c0.5-0.1,1-0.2,1.3-0.4c0.4-0.2,0.7-0.5,0.9-0.9h0.4v11.7h3.1v0.6h-7.8V134.8z"/>
	<path d="M107.9,134.9c-0.4,0-0.8-0.1-1.2-0.3c-0.4-0.2-0.8-0.5-1.1-0.9c-0.3-0.4-0.6-1-0.8-1.7c-0.2-0.7-0.3-1.6-0.3-2.7
		c0-0.9,0.1-1.8,0.2-2.6c0.2-0.8,0.4-1.5,0.7-2.2s0.7-1.1,1.2-1.5s1.1-0.5,1.7-0.5c0.7,0,1.3,0.2,1.7,0.6s0.7,1,0.7,1.7
		c0,0.4-0.1,0.8-0.2,1c-0.2,0.3-0.4,0.4-0.7,0.4c-0.2,0-0.4-0.1-0.5-0.2s-0.2-0.3-0.2-0.5s0.1-0.4,0.2-0.6c0.1-0.1,0.3-0.3,0.4-0.4
		l0.4-0.3c0-0.4-0.2-0.7-0.5-1s-0.8-0.4-1.3-0.4c-0.6,0-1.2,0.2-1.6,0.7s-0.8,1.2-1,2s-0.4,1.9-0.4,3.1v0.7h0.1
		c0-0.3,0.2-0.7,0.4-1.1c0.2-0.4,0.5-0.7,0.8-0.9c0.4-0.3,0.8-0.4,1.4-0.4c0.7,0,1.2,0.2,1.7,0.5c0.5,0.4,0.8,0.8,1,1.4
		c0.2,0.6,0.4,1.2,0.4,1.9s-0.1,1.3-0.4,1.9c-0.3,0.6-0.6,1.1-1.1,1.4S108.6,134.9,107.9,134.9z M108,134.3c0.6,0,1.1-0.2,1.5-0.6
		c0.4-0.4,0.6-1,0.6-1.8V130c0-0.8-0.2-1.4-0.5-1.8c-0.4-0.4-0.8-0.6-1.4-0.6s-1.1,0.2-1.5,0.6c-0.4,0.4-0.6,1-0.6,1.8v1.9
		c0,0.8,0.2,1.3,0.6,1.8C106.9,134.1,107.4,134.3,108,134.3z"/>
	<path d="M116.3,136.4l-0.2-0.3c0.2-0.2,0.5-0.3,0.7-0.6c0.2-0.2,0.4-0.4,0.4-0.6c-0.3,0-0.5-0.1-0.7-0.2c-0.2-0.1-0.3-0.4-0.3-0.7
		s0.1-0.5,0.3-0.7c0.2-0.2,0.4-0.3,0.6-0.3s0.4,0.1,0.6,0.2c0.2,0.2,0.3,0.4,0.3,0.8c0,0.3-0.1,0.6-0.3,0.9
		c-0.2,0.3-0.4,0.6-0.7,0.8C116.8,136.1,116.5,136.3,116.3,136.4z"/>
	<path d="M78.1,144.1h1.3v10.2h-1.3V144.1z M84,144.1h1.8l-6.5,6.7V149L84,144.1z M81,148.4l5,5.9h-1.7l-4.2-5.1L81,148.4z"/>
	<path d="M91.1,154.5c-0.6,0-1.2-0.1-1.6-0.3s-0.7-0.5-0.9-0.9c-0.2-0.4-0.3-0.7-0.3-1.1c0-0.5,0.1-1,0.4-1.3s0.6-0.6,1.1-0.7
		c0.5-0.2,1-0.2,1.5-0.2c0.4,0,0.8,0,1.2,0.1c0.4,0.1,0.8,0.2,1.2,0.3v0.8c-0.3-0.1-0.7-0.2-1.1-0.3s-0.8-0.1-1.1-0.1
		c-0.5,0-1,0.1-1.3,0.3s-0.5,0.6-0.5,1.1c0,0.4,0.1,0.7,0.4,1s0.7,0.4,1.3,0.4c0.4,0,0.8-0.1,1.1-0.3c0.3-0.2,0.6-0.4,0.8-0.7
		c0.2-0.3,0.3-0.6,0.3-0.9h0.3c0,0.5-0.1,1-0.3,1.5c-0.2,0.4-0.5,0.8-1,1.1S91.7,154.5,91.1,154.5z M93.8,154.3l-0.2-1.7v-3.3
		c0-0.7-0.1-1.2-0.4-1.5s-0.7-0.5-1.3-0.5c-0.3,0-0.6,0-0.9,0.1s-0.5,0.2-0.7,0.5c-0.2,0.2-0.2,0.5-0.2,0.8h-1.4
		c0-0.6,0.1-1,0.4-1.4c0.3-0.3,0.7-0.6,1.1-0.8c0.5-0.2,1-0.2,1.7-0.2c0.6,0,1.1,0.1,1.6,0.3s0.8,0.5,1.1,1c0.3,0.4,0.4,1,0.4,1.7v5
		L93.8,154.3L93.8,154.3z"/>
	<path d="M98.9,154.3v-7.8h1.3v7.8H98.9z M99.8,150.8c0-1,0.1-1.8,0.3-2.5c0.2-0.7,0.5-1.1,0.8-1.5c0.4-0.3,0.8-0.5,1.3-0.5
		c0.2,0,0.3,0,0.5,0s0.3,0.1,0.4,0.1l-0.1,1.3c-0.2,0-0.3-0.1-0.5-0.1s-0.3-0.1-0.5-0.1c-0.5,0-0.8,0.1-1.1,0.4s-0.5,0.6-0.6,1.1
		s-0.2,1-0.2,1.7h-0.3V150.8z"/>
	<path d="M106.5,144.7c-0.3,0-0.5-0.1-0.6-0.2s-0.2-0.3-0.2-0.6c0-0.2,0.1-0.4,0.2-0.6s0.4-0.2,0.6-0.2c0.3,0,0.5,0.1,0.6,0.2
		c0.2,0.1,0.2,0.3,0.2,0.6c0,0.2-0.1,0.4-0.2,0.6C107,144.6,106.8,144.7,106.5,144.7z M105.9,154.3v-7.8h1.3v7.8H105.9z"/>
	<path d="M111.6,154.3v-7.8h1.1l0.2,1.8v6H111.6z M117.2,154.3v-4.6c0-0.7-0.2-1.3-0.5-1.7s-0.8-0.6-1.5-0.6c-0.5,0-0.9,0.1-1.2,0.4
		c-0.3,0.3-0.6,0.6-0.8,1.1c-0.2,0.5-0.3,1-0.3,1.7h-0.5c0-0.9,0.1-1.7,0.4-2.3s0.6-1.1,1-1.5c0.5-0.3,1-0.5,1.7-0.5
		c0.6,0,1.1,0.1,1.6,0.4c0.4,0.3,0.8,0.7,1,1.2s0.4,1.1,0.4,1.8v4.6L117.2,154.3L117.2,154.3z"/>
	<path d="M124.6,154.5c-0.6,0-1.2-0.1-1.6-0.3s-0.7-0.5-0.9-0.9c-0.2-0.4-0.3-0.7-0.3-1.1c0-0.5,0.1-1,0.4-1.3s0.6-0.6,1.1-0.7
		c0.5-0.2,1-0.2,1.5-0.2c0.4,0,0.8,0,1.2,0.1c0.4,0.1,0.8,0.2,1.2,0.3v0.8c-0.3-0.1-0.7-0.2-1.1-0.3s-0.8-0.1-1.1-0.1
		c-0.5,0-1,0.1-1.3,0.3s-0.5,0.6-0.5,1.1c0,0.4,0.1,0.7,0.4,1s0.7,0.4,1.3,0.4c0.4,0,0.8-0.1,1.1-0.3c0.3-0.2,0.6-0.4,0.8-0.7
		c0.2-0.3,0.3-0.6,0.3-0.9h0.3c0,0.5-0.1,1-0.3,1.5c-0.2,0.4-0.5,0.8-1,1.1S125.2,154.5,124.6,154.5z M127.3,154.3l-0.2-1.7v-3.3
		c0-0.7-0.2-1.2-0.4-1.5c-0.3-0.3-0.7-0.5-1.3-0.5c-0.3,0-0.6,0-0.9,0.1s-0.5,0.2-0.7,0.5c-0.2,0.2-0.2,0.5-0.2,0.8h-1.4
		c0-0.6,0.1-1,0.4-1.4c0.3-0.3,0.7-0.6,1.1-0.8c0.5-0.2,1-0.2,1.7-0.2c0.6,0,1.1,0.1,1.6,0.3s0.8,0.5,1.1,1c0.3,0.4,0.4,1,0.4,1.7v5
		L127.3,154.3L127.3,154.3z"/>
	<path d="M136.8,154.3v-1.1l6.3-8.4v0.5h-6.3v-1.2h7.5v1.1l-6.1,8.1l-0.1-0.2h6.2v1.2L136.8,154.3L136.8,154.3z"/>
	<path d="M150.6,154.5c-0.7,0-1.3-0.2-1.8-0.5s-0.9-0.8-1.3-1.4c-0.3-0.6-0.5-1.3-0.5-2.1c0-0.9,0.2-1.6,0.5-2.2s0.7-1.1,1.3-1.4
		s1.1-0.5,1.8-0.5c0.6,0,1.1,0.1,1.5,0.4s0.8,0.6,1,1c0.3,0.4,0.4,0.9,0.5,1.4s0.1,1,0.1,1.6h-5.6V150h4.8l-0.4,0.2
		c0-0.3,0-0.6-0.1-1c-0.1-0.3-0.1-0.6-0.3-0.9c-0.1-0.3-0.3-0.5-0.6-0.6c-0.3-0.2-0.6-0.2-1-0.2c-0.5,0-0.9,0.1-1.3,0.4
		c-0.3,0.3-0.6,0.6-0.8,1s-0.3,0.9-0.3,1.3v0.5c0,0.5,0.1,1,0.2,1.5c0.2,0.4,0.4,0.8,0.7,1c0.3,0.3,0.8,0.4,1.3,0.4s0.9-0.1,1.2-0.4
		c0.3-0.2,0.5-0.6,0.6-1.1h1.3c-0.1,0.5-0.3,1-0.6,1.3c-0.3,0.4-0.7,0.7-1.1,0.9C151.7,154.4,151.2,154.5,150.6,154.5z"/>
	<path d="M157.2,154.3v-7.8h1.1l0.2,1.8v6H157.2z M162.8,154.3v-4.6c0-0.7-0.2-1.3-0.5-1.7c-0.4-0.4-0.8-0.6-1.5-0.6
		c-0.5,0-0.9,0.1-1.2,0.4c-0.3,0.3-0.6,0.6-0.8,1.1s-0.3,1-0.3,1.7H158c0-0.9,0.1-1.7,0.4-2.3s0.6-1.1,1-1.5c0.5-0.3,1-0.5,1.7-0.5
		c0.6,0,1.1,0.1,1.6,0.4c0.4,0.3,0.8,0.7,1,1.2s0.4,1.1,0.4,1.8v4.6L162.8,154.3L162.8,154.3z"/>
	<path d="M166.9,153.6c0-0.3,0.1-0.5,0.3-0.7s0.4-0.3,0.7-0.3s0.5,0.1,0.7,0.3s0.3,0.4,0.3,0.7s-0.1,0.5-0.3,0.6s-0.4,0.3-0.7,0.3
		s-0.5-0.1-0.7-0.3S166.9,153.8,166.9,153.6z"/>
</g>
</svg>
