<?xml version="1.0" encoding="utf-8"?>
<!-- Generator: Adobe Illustrator 24.0.0, SVG Export Plug-In . SVG Version: 6.00 Build 0)  -->
<svg version="1.1" id="Capa_1" xmlns="http://www.w3.org/2000/svg" xmlns:xlink="http://www.w3.org/1999/xlink" x="0px" y="0px"
	 viewBox="0 0 173.1 190.4" style="enable-background:new 0 0 173.1 190.4;" xml:space="preserve">
<style type="text/css">
	.st0{fill:#FFFFFF;}
	.st1{fill:#1D1D1B;}
</style>
<g>
	<g>
		<path class="st0" d="M66.1,9c5.6-5.6,12.4-8.4,20.5-8.4s14.9,2.8,20.5,8.4c5.6,5.6,8.4,12.4,8.4,20.5v16.2l13.8-8.1
			c4.2-2.7,9-4,14.4-4c8.1,0,14.9,2.9,20.5,8.7c5.6,5.8,8.4,12.5,8.4,20.2c0,11.2-4.8,19.4-14.4,24.8l-14.4,8.1l14.4,8.1
			c9.6,5.4,14.4,13.7,14.4,24.8c0,7.7-2.8,14.4-8.4,20.2c-5.6,5.8-12.4,8.7-20.5,8.7c-5.4,0-10.2-1.3-14.4-4l-13.8-8.1V161
			c0,8.1-2.8,14.9-8.4,20.5c-5.6,5.6-12.4,8.4-20.5,8.4s-14.9-2.8-20.5-8.4c-5.6-5.6-8.4-12.4-8.4-20.5v-16.2l-13.8,8.1
			c-4.2,2.7-9,4-14.4,4c-8.1,0-14.9-2.9-20.5-8.7c-5.6-5.8-8.4-12.5-8.4-20.2c0-11.2,4.8-19.4,14.4-24.8l14.4-8.1L15,87.1
			C5.4,81.8,0.6,73.5,0.6,62.3c0-7.7,2.8-14.4,8.4-20.2c5.6-5.8,12.4-8.7,20.5-8.7c5.4,0,10.2,1.4,14.4,4l13.8,8.1V29.4
			C57.7,21.4,60.5,14.5,66.1,9z"/>
		<path class="st1" d="M86.6,190.4c-8.2,0-15.2-2.9-20.9-8.5c-5.7-5.7-8.5-12.7-8.5-20.9v-15.1l-12.9,7.6c-4.3,2.7-9.3,4.1-14.7,4.1
			c-8.2,0-15.3-3-20.9-8.8C2.9,142.9,0,135.9,0,128.1c0-11.3,5-19.9,14.7-25.3l13.5-7.6l-13.5-7.6C5,82.2,0,73.7,0,62.3
			c0-7.8,2.9-14.8,8.5-20.6c5.7-5.9,12.7-8.8,20.9-8.8c5.5,0,10.4,1.4,14.7,4.1l12.9,7.5V29.4c0-8.2,2.9-15.2,8.5-20.9l0,0
			C71.3,2.9,78.4,0,86.6,0c8.2,0,15.2,2.9,20.9,8.5c5.7,5.7,8.5,12.7,8.5,20.9v15.1L129,37c4.3-2.7,9.3-4.1,14.7-4.1
			c8.2,0,15.2,3,20.9,8.8c5.7,5.9,8.5,12.8,8.5,20.6c0,11.3-5,19.9-14.7,25.3l-13.5,7.6l13.5,7.6c9.8,5.5,14.7,14,14.7,25.3
			c0,7.8-2.9,14.7-8.5,20.6c-5.7,5.9-12.7,8.8-20.9,8.8c-5.5,0-10.4-1.4-14.7-4.1l-12.9-7.5V161c0,8.2-2.9,15.2-8.5,20.9
			C101.8,187.6,94.8,190.4,86.6,190.4z M58.3,143.8V161c0,7.9,2.8,14.6,8.2,20.1c5.4,5.4,12.2,8.2,20.1,8.2c7.9,0,14.6-2.8,20.1-8.2
			c5.4-5.4,8.2-12.2,8.2-20.1v-17.2l14.7,8.6c4.1,2.6,8.9,4,14.1,4c7.9,0,14.6-2.9,20.1-8.5c5.4-5.6,8.2-12.3,8.2-19.8
			c0-10.9-4.8-19-14.1-24.3l-15.4-8.6l15.4-8.6c9.4-5.2,14.1-13.4,14.1-24.3c0-7.5-2.8-14.1-8.2-19.8c-5.4-5.6-12.2-8.5-20.1-8.5
			c-5.2,0-10,1.3-14.1,3.9l-14.8,8.6V29.4c0-7.9-2.8-14.6-8.2-20.1C101.2,4,94.4,1.2,86.6,1.2c-7.9,0-14.6,2.8-20.1,8.2
			c-5.4,5.4-8.2,12.2-8.2,20.1v17.2L43.6,38c-4.2-2.6-8.9-4-14.1-4c-7.9,0-14.6,2.9-20.1,8.5C4,48.2,1.2,54.8,1.2,62.3
			c0,10.9,4.7,19,14.1,24.3l15.4,8.6l-15.4,8.6C6,109.1,1.2,117.2,1.2,128.1c0,7.5,2.8,14.2,8.2,19.8c5.4,5.6,12.2,8.5,20.1,8.5
			c5.2,0,10-1.3,14.1-3.9L58.3,143.8z"/>
	</g>
</g>
<g>
	<path d="M45.7,84.3c-0.7,0-1.3-0.1-1.9-0.4c-0.6-0.2-1-0.6-1.4-1.1c-0.3-0.5-0.5-1.1-0.5-1.8h1.2c0,0.5,0.1,0.9,0.4,1.2
		c0.2,0.3,0.5,0.5,0.9,0.7c0.4,0.1,0.8,0.2,1.3,0.2c0.5,0,0.9-0.1,1.3-0.2c0.4-0.2,0.6-0.4,0.8-0.6c0.2-0.3,0.3-0.5,0.3-0.9
		c0-0.4-0.1-0.8-0.4-1.1c-0.3-0.3-0.7-0.5-1.2-0.7l-1.8-0.6c-0.8-0.3-1.5-0.7-1.9-1c-0.4-0.4-0.7-0.9-0.7-1.6c0-0.8,0.3-1.4,0.9-1.9
		c0.6-0.5,1.5-0.8,2.6-0.8c1,0,1.9,0.2,2.4,0.7c0.6,0.5,0.9,1.1,1,1.9h-1.3c-0.1-0.5-0.3-0.8-0.7-1.1c-0.4-0.3-0.9-0.4-1.5-0.4
		c-0.7,0-1.2,0.1-1.6,0.4c-0.4,0.3-0.6,0.7-0.6,1.1c0,0.4,0.1,0.7,0.4,0.9c0.2,0.2,0.6,0.4,1.1,0.6l2.1,0.7c0.7,0.2,1.3,0.6,1.7,1
		s0.6,1,0.6,1.7c0,0.5-0.1,1-0.4,1.5c-0.3,0.4-0.7,0.8-1.3,1.1C47.2,84.2,46.5,84.3,45.7,84.3z"/>
	<path d="M53.6,84.1V73h1.3v11.1H53.6z M54.7,79.6l4-3.3h1.8L54.7,81V79.6z M59.1,84.1l-3.7-4.9l1.3-0.2l4,5.2H59.1z"/>
	<path d="M62.6,76.3H64l2.5,6.7h-0.3l2-6.7h1.3l-2.9,9.4c-0.2,0.8-0.6,1.4-1,1.8s-0.9,0.6-1.6,0.6c-0.3,0-0.7,0-1-0.1
		s-0.6-0.2-0.9-0.4v-1.2c0.3,0.2,0.6,0.4,0.8,0.5c0.3,0.1,0.6,0.1,0.8,0.1c0.3,0,0.6-0.1,0.8-0.3c0.2-0.2,0.4-0.5,0.6-0.8
		c0.1-0.3,0.3-0.7,0.4-1l0.2-0.8L62.6,76.3z"/>
	<path d="M81.2,84.3c-0.7,0-1.3-0.1-1.9-0.4c-0.6-0.2-1-0.6-1.4-1.1c-0.3-0.5-0.5-1.1-0.5-1.8h1.2c0,0.5,0.1,0.9,0.4,1.2
		c0.2,0.3,0.5,0.5,0.9,0.7c0.4,0.1,0.8,0.2,1.3,0.2c0.5,0,0.9-0.1,1.3-0.2c0.4-0.2,0.6-0.4,0.8-0.6c0.2-0.3,0.3-0.5,0.3-0.9
		c0-0.4-0.1-0.8-0.4-1.1c-0.3-0.3-0.7-0.5-1.2-0.7l-1.8-0.6c-0.8-0.3-1.5-0.7-1.9-1c-0.4-0.4-0.7-0.9-0.7-1.6c0-0.8,0.3-1.4,0.9-1.9
		c0.6-0.5,1.5-0.8,2.6-0.8c1,0,1.9,0.2,2.4,0.7c0.6,0.5,0.9,1.1,1,1.9h-1.3c-0.1-0.5-0.3-0.8-0.7-1.1c-0.4-0.3-0.9-0.4-1.5-0.4
		c-0.7,0-1.2,0.1-1.6,0.4C79.2,75.6,79,76,79,76.4c0,0.4,0.1,0.7,0.4,0.9c0.2,0.2,0.6,0.4,1.1,0.6l2.1,0.7c0.7,0.2,1.3,0.6,1.7,1
		s0.6,1,0.6,1.7c0,0.5-0.1,1-0.4,1.5c-0.3,0.4-0.7,0.8-1.3,1.1C82.7,84.2,82,84.3,81.2,84.3z"/>
	<path d="M88,77.2v-0.9h5v0.9H88z M91.5,84.3c-0.4,0-0.8-0.1-1.1-0.2c-0.3-0.2-0.6-0.4-0.8-0.7s-0.3-0.7-0.3-1.2v-8h1.3v7.9
		c0,0.8,0.4,1.2,1.1,1.2c0.2,0,0.4,0,0.6-0.1c0.2,0,0.4-0.1,0.7-0.2l0.2,0.9c-0.3,0.1-0.6,0.2-0.8,0.3
		C92.1,84.3,91.8,84.3,91.5,84.3z"/>
	<path d="M96.3,76.3h1.3v4.9c0,0.7,0.2,1.1,0.5,1.5c0.3,0.3,0.8,0.5,1.4,0.5c0.5,0,0.9-0.1,1.3-0.4c0.4-0.3,0.6-0.6,0.8-1.1
		c0.2-0.5,0.3-1,0.3-1.6h0.5c0,0.9-0.1,1.6-0.4,2.2c-0.3,0.6-0.6,1.1-1.1,1.4s-1,0.5-1.6,0.5c-0.6,0-1.1-0.1-1.5-0.3
		c-0.4-0.2-0.8-0.5-1-1c-0.2-0.4-0.4-1-0.4-1.7V76.3z M101.8,76.3h1.3v7.8h-1.3V76.3z"/>
	<path d="M110.5,84.3c-0.6,0-1.2-0.2-1.7-0.5c-0.5-0.3-0.9-0.8-1.3-1.4c-0.3-0.6-0.5-1.3-0.5-2.2c0-0.8,0.2-1.6,0.5-2.2
		c0.3-0.6,0.7-1.1,1.2-1.4s1.1-0.5,1.7-0.5c0.6,0,1.1,0.1,1.5,0.4c0.4,0.3,0.8,0.7,1,1.2s0.4,1.2,0.4,1.9h-0.5c0-0.5-0.1-1-0.3-1.3
		c-0.2-0.4-0.5-0.6-0.8-0.8c-0.3-0.2-0.7-0.3-1.1-0.3c-0.4,0-0.8,0.1-1.2,0.4s-0.6,0.6-0.8,1c-0.2,0.4-0.3,1-0.3,1.6
		c0,0.6,0.1,1.2,0.3,1.6c0.2,0.4,0.5,0.8,0.8,1s0.7,0.4,1.2,0.4c0.4,0,0.7-0.1,1-0.3c0.3-0.2,0.6-0.5,0.8-0.8
		c0.2-0.4,0.3-0.8,0.3-1.3h0.5c0,0.8-0.1,1.4-0.4,1.9c-0.2,0.5-0.6,0.9-1,1.2S111,84.3,110.5,84.3z M113,84.1l-0.2-1.8V73h1.3v11.1
		H113z"/>
	<path d="M119.4,74.5c-0.3,0-0.5-0.1-0.6-0.2s-0.2-0.3-0.2-0.6c0-0.2,0.1-0.4,0.2-0.6s0.4-0.2,0.6-0.2c0.3,0,0.5,0.1,0.6,0.2
		c0.2,0.1,0.2,0.3,0.2,0.6c0,0.2-0.1,0.4-0.2,0.6C119.9,74.4,119.6,74.5,119.4,74.5z M118.8,84.1v-7.8h1.3v7.8H118.8z"/>
	<path d="M127.5,84.3c-0.7,0-1.3-0.2-1.8-0.5c-0.5-0.3-0.9-0.8-1.3-1.4S124,81,124,80.2c0-0.9,0.2-1.6,0.5-2.2
		c0.3-0.6,0.7-1.1,1.3-1.4c0.5-0.3,1.1-0.5,1.8-0.5c0.6,0,1.1,0.1,1.5,0.4c0.4,0.2,0.8,0.6,1,1c0.3,0.4,0.4,0.9,0.5,1.4
		s0.1,1,0.1,1.6H125v-0.8h4.8l-0.4,0.2c0-0.3,0-0.6-0.1-1c-0.1-0.3-0.1-0.6-0.3-0.9c-0.1-0.3-0.3-0.5-0.6-0.6
		c-0.3-0.2-0.6-0.2-1-0.2c-0.5,0-0.9,0.1-1.3,0.4c-0.3,0.3-0.6,0.6-0.8,1c-0.2,0.4-0.3,0.9-0.3,1.3v0.5c0,0.5,0.1,1,0.2,1.5
		c0.2,0.4,0.4,0.8,0.7,1c0.3,0.3,0.8,0.4,1.3,0.4c0.5,0,0.9-0.1,1.2-0.4c0.3-0.2,0.5-0.6,0.6-1.1h1.3c-0.1,0.5-0.3,1-0.6,1.3
		c-0.3,0.4-0.7,0.7-1.1,0.9C128.6,84.2,128.1,84.3,127.5,84.3z"/>
	<path d="M137.3,84.3c-0.8,0-1.4-0.1-1.9-0.3c-0.5-0.2-0.9-0.5-1.1-0.9c-0.3-0.4-0.4-0.8-0.4-1.3h1.2c0,0.5,0.2,0.9,0.6,1.1
		c0.4,0.2,0.9,0.4,1.5,0.4c0.3,0,0.6-0.1,0.9-0.2c0.3-0.1,0.5-0.3,0.7-0.4s0.3-0.4,0.3-0.6c0-0.3-0.1-0.5-0.3-0.7
		c-0.2-0.2-0.6-0.3-1.1-0.5l-1.5-0.5c-0.7-0.2-1.2-0.5-1.5-0.9s-0.5-0.8-0.5-1.3c0-0.6,0.3-1.1,0.8-1.5s1.3-0.6,2.2-0.6
		c1,0,1.7,0.2,2.2,0.6s0.8,0.9,0.8,1.5h-1.3c0-0.3-0.2-0.6-0.5-0.8c-0.3-0.2-0.7-0.3-1.3-0.3c-0.5,0-0.9,0.1-1.2,0.4
		c-0.3,0.2-0.4,0.5-0.4,0.8c0,0.5,0.5,0.9,1.4,1.2l1.5,0.5c0.7,0.2,1.2,0.5,1.5,0.8s0.5,0.7,0.5,1.2c0,0.4-0.1,0.8-0.4,1.1
		c-0.3,0.3-0.6,0.6-1.1,0.8C138.5,84.2,138,84.3,137.3,84.3z"/>
	<path d="M144.2,85.9l-1-0.5c0.3-0.2,0.6-0.3,0.8-0.5c0.2-0.2,0.4-0.4,0.4-0.7c-0.2,0-0.4-0.1-0.6-0.3c-0.2-0.1-0.2-0.3-0.2-0.6
		c0-0.2,0.1-0.4,0.3-0.6s0.4-0.2,0.7-0.2c0.3,0,0.6,0.1,0.8,0.4c0.2,0.2,0.3,0.5,0.3,0.9c0,0.4-0.1,0.8-0.4,1.2
		C145,85.3,144.7,85.6,144.2,85.9z"/>
	<path d="M42.7,103.8c-0.3,0-0.5-0.1-0.7-0.4c-0.2-0.2-0.3-0.7-0.3-1.2c0-0.5,0.1-1,0.2-1.4c0.1-0.4,0.3-0.8,0.6-1.1
		c0.2-0.3,0.4-0.6,0.7-0.8s0.4-0.4,0.6-0.5l1.4-1.2c0.2-0.2,0.4-0.4,0.6-0.6s0.5-0.6,0.6-0.9s0.3-0.8,0.3-1.4c0-0.7-0.2-1.3-0.6-1.7
		c-0.4-0.4-0.9-0.6-1.5-0.6c-0.4,0-0.8,0.1-1.1,0.3c-0.3,0.2-0.5,0.4-0.7,0.7c-0.2,0.3-0.3,0.5-0.3,0.8l0.7,0.6
		c0.1,0.1,0.2,0.2,0.3,0.3c0.1,0.2,0.2,0.4,0.2,0.6c0,0.2-0.1,0.4-0.2,0.6c-0.2,0.1-0.3,0.2-0.5,0.2c-0.2,0-0.5-0.1-0.7-0.4
		s-0.4-0.6-0.4-1.1c0-0.5,0.1-1,0.4-1.5s0.6-0.9,1.1-1.2c0.5-0.3,1-0.5,1.7-0.5c0.6,0,1.1,0.1,1.5,0.4c0.4,0.3,0.8,0.6,1,1
		c0.2,0.4,0.4,0.9,0.4,1.5c0,0.6-0.1,1.1-0.4,1.5c-0.3,0.4-0.6,0.8-0.9,1.1c-0.4,0.3-0.7,0.6-1,0.8l-1.5,1.1
		c-0.3,0.2-0.6,0.5-0.9,0.8s-0.5,0.6-0.7,1c-0.2,0.4-0.3,0.8-0.3,1.3c0.1-0.2,0.3-0.4,0.6-0.7s0.6-0.3,1-0.3c0.4,0,0.7,0.1,1,0.3
		c0.3,0.2,0.5,0.4,0.7,0.7c0.2,0.2,0.4,0.5,0.7,0.7c0.2,0.2,0.5,0.3,0.8,0.3c0.3,0,0.5-0.1,0.6-0.3c0.1-0.2,0.2-0.4,0.2-0.7
		c0-0.3,0-0.5,0-0.8v-1.5h0.5v1.6c0,0.2,0,0.5,0,0.8c0,0.3-0.1,0.6-0.2,0.9c-0.1,0.3-0.2,0.5-0.4,0.7s-0.5,0.3-0.9,0.3
		c-0.4,0-0.7-0.1-0.9-0.2c-0.2-0.2-0.4-0.4-0.6-0.6c-0.2-0.2-0.3-0.5-0.5-0.7c-0.1-0.2-0.3-0.4-0.5-0.6s-0.4-0.2-0.6-0.2
		c-0.3,0-0.5,0.1-0.7,0.3c-0.2,0.2-0.4,0.4-0.4,0.6l0.4,0.2c0.1,0,0.2,0.1,0.3,0.2c0.1,0.1,0.2,0.3,0.2,0.5c0,0.2-0.1,0.3-0.2,0.4
		C43.1,103.8,42.9,103.8,42.7,103.8z"/>
	<path d="M54.3,103.8c-0.6,0-1-0.2-1.5-0.5c-0.4-0.3-0.8-0.8-1-1.4s-0.5-1.3-0.6-2c-0.1-0.7-0.2-1.5-0.2-2.3c0-0.8,0.1-1.5,0.2-2.3
		c0.1-0.7,0.3-1.4,0.6-2c0.3-0.6,0.6-1.1,1.1-1.4s0.9-0.5,1.5-0.5c0.6,0,1,0.2,1.5,0.5c0.4,0.3,0.8,0.8,1.1,1.4
		c0.3,0.6,0.5,1.3,0.6,2c0.1,0.7,0.2,1.5,0.2,2.3c0,0.8-0.1,1.5-0.2,2.3c-0.1,0.7-0.4,1.4-0.6,2c-0.3,0.6-0.6,1.1-1,1.4
		C55.4,103.7,54.9,103.8,54.3,103.8z M54.3,103.2c0.8,0,1.3-0.3,1.6-0.8s0.5-1.3,0.5-2.2v-5.1c0-0.9-0.2-1.7-0.5-2.2
		s-0.9-0.8-1.6-0.8c-0.8,0-1.3,0.3-1.6,0.8c-0.3,0.6-0.5,1.3-0.5,2.2v5.1c0,0.9,0.2,1.7,0.5,2.2C53,103,53.6,103.2,54.3,103.2z"/>
	<path d="M59.7,103.7v-0.6h3.6v-9.8h-3v-0.4l1.5-0.1c0.5-0.1,1-0.2,1.3-0.4c0.4-0.2,0.7-0.5,0.9-0.9h0.4v11.7h3.1v0.6H59.7z"/>
	<path d="M71.6,103.7v-0.6h2.1v-2.9h-4.4v-0.6l4.8-8h0.6v8h2v0.6h-2v2.9H77v0.6H71.6z M69.9,99.7h3.8v-6.3L69.9,99.7z"/>
	<path d="M81.9,105.3l-0.2-0.3c0.2-0.2,0.5-0.3,0.7-0.6c0.2-0.2,0.4-0.4,0.4-0.6c-0.3,0-0.5-0.1-0.7-0.2c-0.2-0.1-0.3-0.4-0.3-0.7
		c0-0.3,0.1-0.5,0.3-0.7c0.2-0.2,0.4-0.3,0.6-0.3c0.2,0,0.4,0.1,0.6,0.2c0.2,0.2,0.3,0.4,0.3,0.8c0,0.3-0.1,0.6-0.3,0.9
		c-0.2,0.3-0.4,0.6-0.7,0.8C82.4,105,82.2,105.2,81.9,105.3z"/>
	<path d="M42.4,113h1.3v10.2h-1.3V113z M48.3,113h1.8l-6.5,6.7V118L48.3,113z M45.4,117.3l5,5.9h-1.7l-4.2-5.1L45.4,117.3z"/>
	<path d="M52.4,115.5h1.4l2.5,6.7H56l2-6.7h1.3l-2.9,9.4c-0.2,0.8-0.6,1.4-1,1.8s-0.9,0.6-1.6,0.6c-0.3,0-0.7,0-1-0.1
		s-0.6-0.2-0.9-0.4v-1.2c0.3,0.2,0.6,0.4,0.8,0.5c0.3,0.1,0.6,0.1,0.8,0.1c0.3,0,0.6-0.1,0.8-0.3c0.2-0.2,0.4-0.5,0.6-0.8
		c0.1-0.3,0.3-0.7,0.4-1l0.2-0.8L52.4,115.5z"/>
	<path d="M62.6,123.3v-11.1h1.3v11.1H62.6z"/>
	<path d="M71.1,123.4c-0.7,0-1.3-0.2-1.8-0.5c-0.5-0.3-0.9-0.8-1.3-1.4s-0.5-1.3-0.5-2.1c0-0.9,0.2-1.6,0.5-2.2
		c0.3-0.6,0.7-1.1,1.3-1.4c0.5-0.3,1.1-0.5,1.8-0.5c0.6,0,1.1,0.1,1.5,0.4c0.4,0.2,0.8,0.6,1,1c0.3,0.4,0.4,0.9,0.5,1.4
		s0.1,1,0.1,1.6h-5.6v-0.8h4.8l-0.4,0.2c0-0.3,0-0.6-0.1-1c-0.1-0.3-0.1-0.6-0.3-0.9c-0.1-0.3-0.3-0.5-0.6-0.6
		c-0.3-0.2-0.6-0.2-1-0.2c-0.5,0-0.9,0.1-1.3,0.4c-0.3,0.3-0.6,0.6-0.8,1c-0.2,0.4-0.3,0.9-0.3,1.3v0.5c0,0.5,0.1,1,0.2,1.5
		c0.2,0.4,0.4,0.8,0.7,1c0.3,0.3,0.8,0.4,1.3,0.4c0.5,0,0.9-0.1,1.2-0.4c0.3-0.2,0.5-0.6,0.6-1.1h1.3c-0.1,0.5-0.3,1-0.6,1.3
		c-0.3,0.4-0.7,0.7-1.1,0.9C72.2,123.3,71.7,123.4,71.1,123.4z"/>
	<path d="M86.6,123.4c-0.7,0-1.3-0.1-1.9-0.4c-0.6-0.2-1-0.6-1.4-1.1c-0.3-0.5-0.5-1.1-0.5-1.8H84c0,0.5,0.1,0.9,0.4,1.2
		c0.2,0.3,0.5,0.5,0.9,0.7c0.4,0.1,0.8,0.2,1.3,0.2c0.5,0,0.9-0.1,1.3-0.2c0.4-0.2,0.6-0.4,0.8-0.6c0.2-0.3,0.3-0.5,0.3-0.9
		c0-0.4-0.1-0.8-0.4-1.1c-0.3-0.3-0.7-0.5-1.2-0.7l-1.8-0.6c-0.8-0.3-1.5-0.7-1.9-1c-0.4-0.4-0.7-0.9-0.7-1.6c0-0.8,0.3-1.4,0.9-1.9
		c0.6-0.5,1.5-0.8,2.6-0.8c1,0,1.9,0.2,2.4,0.7c0.6,0.5,0.9,1.1,1,1.9h-1.3c-0.1-0.5-0.3-0.8-0.7-1.1c-0.4-0.3-0.9-0.4-1.5-0.4
		c-0.7,0-1.2,0.1-1.6,0.4c-0.4,0.3-0.6,0.7-0.6,1.1c0,0.4,0.1,0.7,0.4,0.9c0.2,0.2,0.6,0.4,1.1,0.6l2.1,0.7c0.7,0.2,1.3,0.6,1.7,1
		s0.6,1,0.6,1.7c0,0.5-0.1,1-0.4,1.5c-0.3,0.4-0.7,0.8-1.3,1.1C88.1,123.3,87.4,123.4,86.6,123.4z"/>
	<path d="M97.2,123.4c-0.7,0-1.3-0.2-1.8-0.5c-0.5-0.3-0.9-0.8-1.3-1.4s-0.5-1.3-0.5-2.1c0-0.9,0.2-1.6,0.5-2.2
		c0.3-0.6,0.7-1.1,1.3-1.4c0.5-0.3,1.1-0.5,1.8-0.5c0.6,0,1.1,0.1,1.5,0.4c0.4,0.2,0.8,0.6,1,1c0.3,0.4,0.4,0.9,0.5,1.4
		s0.1,1,0.1,1.6h-5.6v-0.8h4.8l-0.4,0.2c0-0.3,0-0.6-0.1-1c-0.1-0.3-0.1-0.6-0.3-0.9c-0.1-0.3-0.3-0.5-0.6-0.6
		c-0.3-0.2-0.6-0.2-1-0.2c-0.5,0-0.9,0.1-1.3,0.4c-0.3,0.3-0.6,0.6-0.8,1c-0.2,0.4-0.3,0.9-0.3,1.3v0.5c0,0.5,0.1,1,0.2,1.5
		c0.2,0.4,0.4,0.8,0.7,1c0.3,0.3,0.8,0.4,1.3,0.4c0.5,0,0.9-0.1,1.2-0.4c0.3-0.2,0.5-0.6,0.6-1.1h1.3c-0.1,0.5-0.3,1-0.6,1.3
		c-0.3,0.4-0.7,0.7-1.1,0.9C98.2,123.3,97.7,123.4,97.2,123.4z"/>
	<path d="M104.8,113.6c-0.3,0-0.5-0.1-0.6-0.2s-0.2-0.3-0.2-0.6c0-0.2,0.1-0.4,0.2-0.6s0.4-0.2,0.6-0.2c0.3,0,0.5,0.1,0.6,0.2
		c0.2,0.1,0.2,0.3,0.2,0.6c0,0.2-0.1,0.4-0.2,0.6C105.3,113.5,105.1,113.6,104.8,113.6z M104.2,123.3v-7.8h1.3v7.8H104.2z"/>
	<path d="M113.1,123.4c-0.8,0-1.4-0.1-1.9-0.3c-0.5-0.2-0.9-0.5-1.1-0.9c-0.3-0.4-0.4-0.8-0.4-1.3h1.2c0,0.5,0.2,0.9,0.6,1.1
		c0.4,0.2,0.9,0.4,1.5,0.4c0.3,0,0.6-0.1,0.9-0.2c0.3-0.1,0.5-0.3,0.7-0.4s0.3-0.4,0.3-0.6c0-0.3-0.1-0.5-0.3-0.7
		c-0.2-0.2-0.6-0.3-1.1-0.5l-1.5-0.5c-0.7-0.2-1.2-0.5-1.5-0.9s-0.5-0.8-0.5-1.3c0-0.6,0.3-1.1,0.8-1.5s1.3-0.6,2.2-0.6
		c1,0,1.7,0.2,2.2,0.6s0.8,0.9,0.8,1.5h-1.3c0-0.3-0.2-0.6-0.5-0.8c-0.3-0.2-0.7-0.3-1.3-0.3c-0.5,0-0.9,0.1-1.2,0.4
		c-0.3,0.2-0.4,0.5-0.4,0.8c0,0.5,0.5,0.9,1.4,1.2l1.5,0.5c0.7,0.2,1.2,0.5,1.5,0.8s0.5,0.7,0.5,1.2c0,0.4-0.1,0.8-0.4,1.1
		c-0.3,0.3-0.6,0.6-1.1,0.8C114.3,123.3,113.7,123.4,113.1,123.4z"/>
	<path d="M119,122.5c0-0.3,0.1-0.5,0.3-0.7c0.2-0.2,0.4-0.3,0.7-0.3s0.5,0.1,0.7,0.3s0.3,0.4,0.3,0.7c0,0.3-0.1,0.5-0.3,0.6
		s-0.4,0.3-0.7,0.3s-0.5-0.1-0.7-0.3C119.1,123,119,122.7,119,122.5z"/>
</g>
</svg>
