<?xml version="1.0" encoding="utf-8"?>
<!-- Generator: Adobe Illustrator 25.4.1, SVG Export Plug-In . SVG Version: 6.00 Build 0)  -->
<svg version="1.1" id="Capa_1" xmlns="http://www.w3.org/2000/svg" xmlns:xlink="http://www.w3.org/1999/xlink" x="0px" y="0px"
	 viewBox="0 0 213.9 213.6" style="enable-background:new 0 0 213.9 213.6;" xml:space="preserve">
<style type="text/css">
	.st0{fill:#FFFFFF;}
	.st1{fill:#1D1D1B;}
</style>
<g>
	<g>
		<path class="st0" d="M114,3.9L114,3.9c3.3,2.9,8,3.5,11.9,1.5l0,0c4.8-2.5,10.7-1,13.7,3.5v0c2.4,3.7,6.9,5.4,11.2,4.4l0,0
			c5.3-1.2,10.6,1.7,12.4,6.8l0,0c1.5,4.2,5.3,7,9.7,7.1h0c5.4,0.1,9.8,4.3,10.3,9.7v0c0.4,4.4,3.4,8.1,7.7,9.3l0,0
			c5.2,1.5,8.4,6.6,7.6,11.9v0c-0.7,4.3,1.3,8.7,5.1,10.9l0,0c4.7,2.7,6.5,8.5,4.4,13.4l0,0c-1.8,4-0.9,8.7,2.3,11.8l0,0
			c3.8,3.8,4.2,9.9,0.9,14.1l0,0c-2.7,3.5-3,8.2-0.8,12l0,0c2.8,4.6,1.6,10.6-2.6,13.9l0,0c-3.5,2.7-5,7.2-3.7,11.4l0,0
			c1.5,5.2-1,10.7-6,12.8l0,0c-4.1,1.7-6.6,5.8-6.4,10.2v0c0.2,5.4-3.7,10.1-9,10.9h0c-4.4,0.7-7.8,3.9-8.8,8.2v0
			c-1.1,5.3-6.1,8.8-11.4,8.3h0c-4.4-0.4-8.6,1.9-10.5,5.8l0,0c-2.4,4.8-8.1,7.1-13.1,5.2h0c-4.1-1.5-8.8-0.3-11.7,3h0
			c-3.5,4.1-9.6,4.8-14,1.8l0,0c-3.6-2.5-8.4-2.5-12,0l0,0c-4.4,3.1-10.5,2.3-14-1.8h0c-2.9-3.3-7.5-4.5-11.7-3h0
			c-5.1,1.9-10.7-0.4-13.1-5.2h0c-2-3.9-6.2-6.2-10.5-5.8h0c-5.4,0.6-10.3-3-11.4-8.3l0,0c-0.9-4.3-4.4-7.6-8.8-8.2h0
			c-5.3-0.8-9.2-5.5-9-10.9v0c0.2-4.4-2.4-8.4-6.4-10.2l0,0c-5-2.1-7.6-7.6-6-12.8l0,0c1.3-4.2-0.2-8.8-3.7-11.4l0,0
			c-4.3-3.3-5.4-9.2-2.6-13.9l0,0c2.3-3.8,2-8.6-0.8-12l0,0c-3.3-4.2-3-10.3,0.9-14.1l0,0c3.1-3.1,4-7.8,2.3-11.8l0,0
			c-2.2-4.9-0.3-10.7,4.4-13.4l0,0c3.8-2.2,5.8-6.5,5.1-10.9l0,0c-0.9-5.3,2.4-10.5,7.6-11.9l0,0c4.2-1.2,7.3-4.9,7.7-9.3l0,0
			c0.5-5.4,4.9-9.5,10.3-9.7h0c4.4-0.1,8.3-2.9,9.7-7.1l0,0c1.8-5.1,7.1-8,12.4-6.8l0,0c4.3,1,8.7-0.8,11.2-4.4l0,0
			c3-4.5,8.9-6,13.7-3.5l0,0c3.9,2,8.7,1.4,11.9-1.5l0,0C103.9,0.3,110,0.3,114,3.9z"/>
		<path class="st1" d="M119,214.1c-2.2,0-4.4-0.7-6.4-2c-3.4-2.3-8-2.3-11.3,0c-4.7,3.2-11.1,2.4-14.8-1.9c-2.7-3.1-7.1-4.2-11-2.8
			c-5.4,2-11.3-0.4-13.9-5.5c-1.8-3.7-5.8-5.9-9.9-5.5c-5.7,0.6-10.9-3.2-12.1-8.8c-0.9-4-4.2-7.2-8.3-7.8
			c-5.6-0.8-9.7-5.8-9.5-11.5c0.2-4.1-2.3-8-6.1-9.6c-5.3-2.2-8-8-6.4-13.5c1.2-4-0.2-8.3-3.5-10.8c-4.5-3.5-5.7-9.8-2.8-14.7
			c2.1-3.5,1.8-8.1-0.7-11.3c-3.5-4.5-3.1-10.9,0.9-14.9c2.9-2.9,3.8-7.4,2.1-11.1c-2.3-5.2-0.3-11.3,4.6-14.2
			c3.6-2.1,5.5-6.2,4.8-10.3c-0.9-5.6,2.5-11,8-12.6c4-1.1,6.9-4.6,7.2-8.7c0.5-5.7,5.2-10.1,10.9-10.2c4.1-0.1,7.8-2.8,9.2-6.7
			c1.9-5.4,7.5-8.5,13.1-7.2c4,0.9,8.3-0.7,10.5-4.2c3.2-4.7,9.4-6.3,14.4-3.7c3.7,1.9,8.2,1.3,11.3-1.4c4.3-3.8,10.7-3.8,14.9,0
			l0,0c3.1,2.8,7.6,3.3,11.3,1.4c5.1-2.6,11.3-1,14.4,3.7c2.3,3.4,6.5,5.1,10.5,4.2c5.6-1.3,11.2,1.8,13.1,7.2
			c1.4,3.9,5.1,6.6,9.2,6.7c5.7,0.1,10.4,4.5,10.9,10.2c0.4,4.1,3.3,7.6,7.2,8.7c5.5,1.5,8.9,7,8,12.6c-0.7,4.1,1.3,8.2,4.8,10.3
			c4.9,2.9,6.9,9,4.6,14.2c-1.7,3.8-0.8,8.3,2.1,11.1c4.1,4,4.5,10.4,0.9,14.9c-2.6,3.2-2.8,7.8-0.7,11.3c2.9,4.9,1.7,11.2-2.8,14.7
			c-3.3,2.5-4.7,6.8-3.5,10.8c1.6,5.5-1.1,11.3-6.4,13.5c-3.8,1.6-6.2,5.5-6.1,9.6c0.2,5.7-3.9,10.6-9.5,11.5
			c-4.1,0.6-7.4,3.7-8.3,7.8c-1.2,5.6-6.4,9.4-12.1,8.8c-4.1-0.4-8.1,1.8-9.9,5.5c-2.5,5.1-8.5,7.5-13.9,5.5
			c-3.9-1.4-8.3-0.3-11,2.8C125.2,212.8,122.1,214.1,119,214.1z M106.9,209.2c2.2,0,4.5,0.7,6.4,2c4.2,2.9,9.9,2.2,13.2-1.7
			c3-3.5,8-4.8,12.3-3.2c4.8,1.8,10.1-0.3,12.4-4.9c2.1-4.1,6.5-6.6,11.1-6.1c5.1,0.5,9.7-2.8,10.8-7.8c1-4.5,4.7-8,9.3-8.7
			c5-0.8,8.7-5.2,8.5-10.3c-0.2-4.6,2.6-8.9,6.8-10.7c4.7-2,7.1-7.2,5.7-12c-1.3-4.4,0.3-9.3,3.9-12.1c4.1-3.1,5.1-8.7,2.5-13.1
			c-2.4-4-2.1-9.1,0.8-12.7c3.2-4,2.8-9.7-0.8-13.3c-3.3-3.2-4.3-8.3-2.4-12.5c2.1-4.7,0.3-10.1-4.1-12.7c-4-2.3-6.2-6.9-5.4-11.5
			c0.8-5-2.2-9.9-7.1-11.2c-4.4-1.3-7.7-5.2-8.1-9.8c-0.4-5.1-4.6-9-9.7-9.1c-4.6-0.1-8.8-3.1-10.3-7.5c-1.7-4.8-6.7-7.6-11.7-6.4
			c-4.5,1-9.3-0.8-11.8-4.7c-2.8-4.2-8.4-5.7-12.9-3.3c-4.1,2.1-9.2,1.5-12.6-1.6l0,0c-3.8-3.4-9.5-3.4-13.3,0
			c-3.4,3.1-8.5,3.7-12.6,1.6C83.2,3.6,77.6,5,74.8,9.2c-2.6,3.8-7.3,5.7-11.8,4.7c-5-1.2-10,1.6-11.7,6.4
			c-1.5,4.4-5.7,7.4-10.3,7.5c-5.1,0.1-9.3,4-9.7,9.1c-0.4,4.6-3.7,8.5-8.1,9.8c-4.9,1.4-8,6.2-7.1,11.2c0.8,4.6-1.4,9.2-5.4,11.5
			c-4.4,2.6-6.2,8-4.1,12.7c1.9,4.2,0.9,9.2-2.4,12.5c-3.6,3.6-4,9.3-0.8,13.3c2.9,3.6,3.2,8.7,0.8,12.7c-2.6,4.4-1.6,10,2.5,13.1
			c3.7,2.8,5.3,7.7,3.9,12.1c-1.5,4.9,1,10.1,5.7,12c4.3,1.8,7,6.1,6.8,10.7c-0.2,5.1,3.4,9.5,8.5,10.3c4.6,0.7,8.3,4.2,9.3,8.7
			c1.1,5,5.7,8.3,10.8,7.8c4.6-0.5,9.1,2,11.1,6.1c2.3,4.6,7.6,6.7,12.4,4.9c4.3-1.6,9.3-0.3,12.3,3.2c3.3,3.8,9,4.6,13.2,1.7
			C102.5,209.8,104.7,209.2,106.9,209.2z"/>
	</g>
	<g>
		<path d="M56.7,86.1c-0.7,0-1.4-0.2-1.9-0.6c-0.6-0.4-1-1-1.3-1.8c-0.3-0.8-0.4-1.7-0.3-2.8c0.1-0.9,0.3-1.7,0.6-2.3
			c0.3-0.7,0.7-1.2,1.1-1.7c0.4-0.5,0.9-0.8,1.5-1s1.1-0.3,1.7-0.3c0.7,0,1.3,0.2,1.9,0.5c0.5,0.3,0.9,0.8,1.2,1.6L60,78
			c-0.3-0.5-0.6-0.8-1-1c-0.4-0.2-0.7-0.3-1.2-0.3c-0.5,0-1.1,0.2-1.6,0.5c-0.5,0.3-0.9,0.8-1.3,1.5c-0.3,0.6-0.6,1.4-0.6,2.3
			c-0.1,0.8,0,1.5,0.2,2.1c0.2,0.6,0.5,1.1,0.8,1.4c0.4,0.3,0.9,0.5,1.5,0.5c0.4,0,0.9-0.1,1.2-0.3s0.7-0.5,1-1s0.4-1,0.4-1.7
			c0-0.1,0-0.1,0-0.2s0-0.2-0.1-0.3l0.5,0.4l-2.7-0.1l0.1-0.8h3.4l-0.5,5.1h-0.9c0-0.3,0-0.7,0-1s0-0.7,0-1l0.1,0
			c-0.2,0.7-0.6,1.2-1,1.6S57.4,86.1,56.7,86.1z"/>
		<path d="M66.7,86.1c-0.6,0-1.1-0.2-1.6-0.5s-0.8-0.8-1-1.4c-0.2-0.6-0.3-1.3-0.2-2.2c0.1-0.9,0.3-1.6,0.6-2.2
			c0.3-0.6,0.8-1.1,1.3-1.4c0.5-0.3,1.1-0.5,1.7-0.5c0.5,0,0.8,0.1,1.2,0.3s0.6,0.4,0.8,0.7c0.2,0.3,0.4,0.6,0.5,1
			c0.1,0.4,0.1,0.8,0.1,1.3c0,0.2,0,0.3,0,0.5c0,0.2-0.1,0.4-0.1,0.6h-5.2L65,82c-0.1,0.6-0.1,1.1,0,1.5c0.1,0.5,0.3,0.8,0.6,1.1
			c0.3,0.3,0.7,0.4,1.2,0.4c0.4,0,0.8-0.1,1.1-0.4c0.3-0.2,0.5-0.6,0.6-1.1h1.2c-0.1,0.5-0.3,1-0.6,1.3c-0.3,0.4-0.7,0.6-1.1,0.8
			C67.6,86,67.2,86.1,66.7,86.1z M65.1,81.7l-0.3-0.2h4.5l-0.4,0.1c0.1-0.5,0.1-0.9,0-1.3c-0.1-0.4-0.2-0.7-0.4-1
			c-0.2-0.3-0.6-0.4-1-0.4c-0.4,0-0.8,0.1-1.2,0.4c-0.3,0.2-0.6,0.6-0.8,1C65.3,80.7,65.1,81.2,65.1,81.7z"/>
		<path d="M75.6,86.1c-0.6,0-1.2-0.2-1.7-0.5c-0.5-0.3-0.8-0.8-1-1.4c-0.2-0.6-0.3-1.4-0.2-2.2c0.1-0.9,0.3-1.6,0.6-2.3
			c0.3-0.6,0.8-1.1,1.3-1.4s1.1-0.5,1.7-0.5c0.6,0,1.2,0.2,1.6,0.5c0.5,0.3,0.8,0.8,1,1.4c0.2,0.6,0.3,1.4,0.2,2.2s-0.3,1.6-0.6,2.2
			c-0.3,0.6-0.8,1.1-1.3,1.4C76.9,86,76.3,86.1,75.6,86.1z M75.7,85c0.7,0,1.2-0.3,1.7-0.8c0.4-0.5,0.7-1.3,0.8-2.2
			c0.1-0.9,0-1.7-0.3-2.2c-0.3-0.5-0.8-0.8-1.5-0.8c-0.7,0-1.2,0.3-1.6,0.8c-0.4,0.5-0.7,1.3-0.8,2.2c-0.1,0.6,0,1.1,0.1,1.6
			c0.1,0.4,0.3,0.8,0.6,1C74.9,84.9,75.2,85,75.7,85z"/>
		<path d="M82.1,89.8l1.1-11.6h0.9c0,0.2,0,0.4,0,0.6c0,0.2,0,0.4,0,0.6c0.3-0.5,0.6-0.8,1-1c0.4-0.2,0.8-0.4,1.3-0.4
			c0.5,0,1,0.2,1.5,0.5c0.4,0.3,0.8,0.8,1,1.4s0.3,1.3,0.2,2.2c-0.1,0.9-0.3,1.6-0.6,2.2c-0.4,0.6-0.8,1.1-1.3,1.4s-1.1,0.5-1.6,0.5
			c-0.4,0-0.8-0.1-1.1-0.3c-0.3-0.2-0.6-0.5-0.8-0.8l-0.5,4.8H82.1z M85.6,85c0.3,0,0.7-0.1,1-0.3s0.6-0.5,0.9-1s0.4-1,0.5-1.6
			c0.1-0.6,0-1.2-0.1-1.6c-0.1-0.4-0.4-0.8-0.7-1c-0.3-0.2-0.6-0.3-1-0.3c-0.3,0-0.7,0.1-1,0.3c-0.3,0.2-0.6,0.4-0.8,0.8
			s-0.3,0.8-0.4,1.3l-0.1,1.4c0,0.5,0,0.9,0.2,1.2c0.1,0.3,0.4,0.6,0.6,0.7S85.3,85,85.6,85z"/>
		<path d="M94.5,86.1c-0.5,0-1-0.1-1.3-0.3c-0.4-0.2-0.6-0.5-0.8-0.9c-0.2-0.4-0.2-0.7-0.2-1.1c0.1-0.5,0.2-1,0.5-1.3
			c0.3-0.3,0.6-0.6,1.1-0.8c0.4-0.2,0.9-0.2,1.4-0.2c0.3,0,0.7,0,1,0.1c0.3,0.1,0.7,0.2,1,0.3l0.1-1c0.1-0.7,0-1.2-0.3-1.5
			c-0.2-0.3-0.6-0.5-1.2-0.5c-0.3,0-0.6,0-0.8,0.1c-0.3,0.1-0.5,0.2-0.6,0.5c-0.2,0.2-0.3,0.5-0.3,0.8h-1.3c0.1-0.6,0.2-1,0.5-1.4
			c0.3-0.3,0.7-0.6,1.1-0.7c0.4-0.1,0.9-0.2,1.4-0.2c0.9,0,1.6,0.2,2,0.7c0.5,0.5,0.6,1.2,0.5,2.3l-0.5,5h-1c0-0.2,0-0.4,0-0.7
			c0-0.2,0-0.4,0-0.6c-0.3,0.5-0.6,0.9-1,1.1C95.5,86,95,86.1,94.5,86.1z M94.7,85.1c0.4,0,0.8-0.1,1.1-0.3c0.4-0.2,0.7-0.5,0.9-0.8
			c0.2-0.4,0.3-0.8,0.4-1.3c-0.3-0.1-0.6-0.2-0.9-0.2c-0.3-0.1-0.6-0.1-0.9-0.1c-0.5,0-0.9,0.1-1.2,0.3c-0.3,0.2-0.5,0.6-0.6,1.1
			c0,0.4,0.1,0.7,0.3,1C93.9,85,94.3,85.1,94.7,85.1z"/>
		<path d="M104.1,86.1c-0.4,0-0.7-0.1-1-0.2s-0.5-0.4-0.6-0.7s-0.2-0.7-0.1-1.2l0.5-5.2l0.3,0.3h-1.5l0.1-0.9h1.5l-0.4,0.4l0.3-2.5
			h1.2l-0.3,2.5l-0.3-0.4h2.6l-0.1,0.9h-2.6l0.4-0.3l-0.5,5.1c0,0.4,0,0.7,0.2,0.9c0.2,0.2,0.4,0.3,0.7,0.3c0.2,0,0.4,0,0.6-0.1
			s0.4-0.1,0.6-0.2l0.1,0.9c-0.3,0.1-0.5,0.2-0.8,0.3S104.4,86.1,104.1,86.1z"/>
		<path d="M108.8,85.9l1-11.1h1.2l-0.5,4.7c0.3-0.5,0.6-0.9,1-1.2c0.4-0.3,0.9-0.4,1.4-0.4c0.6,0,1,0.1,1.4,0.4
			c0.4,0.3,0.6,0.7,0.8,1.2c0.2,0.5,0.2,1.1,0.2,1.8l-0.4,4.6h-1.1l0.4-4.6c0.1-0.7,0-1.3-0.3-1.7c-0.3-0.4-0.7-0.6-1.2-0.6
			c-0.4,0-0.8,0.1-1.2,0.4s-0.6,0.6-0.8,1.1c-0.2,0.5-0.3,1-0.4,1.7l-0.3,3.7H108.8z"/>
		<path d="M119.1,85.9l0.7-7.8h1.2l-0.7,7.8H119.1z M120.6,76.3c-0.2,0-0.4-0.1-0.5-0.2c-0.1-0.1-0.2-0.3-0.2-0.6
			c0-0.2,0.1-0.4,0.2-0.6c0.1-0.2,0.3-0.2,0.6-0.2c0.2,0,0.4,0.1,0.5,0.2c0.1,0.2,0.2,0.3,0.2,0.6c0,0.2-0.1,0.4-0.3,0.6
			C121,76.2,120.8,76.3,120.6,76.3z"/>
		<path d="M127.2,86.1c-0.6,0-1.1-0.2-1.6-0.5s-0.8-0.8-1.1-1.4c-0.2-0.6-0.3-1.3-0.2-2.2c0.1-0.9,0.3-1.6,0.7-2.2
			c0.4-0.6,0.8-1.1,1.3-1.4c0.5-0.3,1.1-0.5,1.7-0.5c0.4,0,0.7,0.1,1,0.2c0.3,0.1,0.6,0.3,0.8,0.5c0.2,0.2,0.4,0.5,0.5,0.8
			s0.2,0.6,0.2,0.9l-1.2,0.1c-0.1-0.4-0.3-0.8-0.5-1.1c-0.3-0.3-0.6-0.4-1-0.4c-0.4,0-0.7,0.1-1,0.3c-0.3,0.2-0.6,0.6-0.8,1
			s-0.4,1-0.4,1.6c-0.1,0.6,0,1.1,0.1,1.6c0.1,0.4,0.3,0.8,0.6,1c0.3,0.2,0.6,0.4,1.1,0.4c0.5,0,0.9-0.1,1.2-0.4
			c0.3-0.3,0.5-0.7,0.5-1.2h1.2c0,0.5-0.2,1-0.5,1.4c-0.3,0.4-0.6,0.8-1.1,1C128.2,86,127.7,86.1,127.2,86.1z"/>
		<path d="M55.1,105.5l0.8-9.1h-3l0.1-1.1h7.2l-0.1,1.1h-3l-0.8,9.1H55.1z"/>
		<path d="M63.5,105.7c-0.6,0-1.1-0.2-1.6-0.5s-0.8-0.8-1-1.4c-0.2-0.6-0.3-1.3-0.2-2.2c0.1-0.9,0.3-1.6,0.6-2.2
			c0.3-0.6,0.8-1.1,1.3-1.4c0.5-0.3,1.1-0.5,1.7-0.5c0.5,0,0.8,0.1,1.2,0.3s0.6,0.4,0.8,0.7c0.2,0.3,0.4,0.6,0.5,1
			c0.1,0.4,0.1,0.8,0.1,1.3c0,0.2,0,0.3,0,0.5c0,0.2-0.1,0.4-0.1,0.6h-5.2l0.4-0.3c-0.1,0.6-0.1,1.1,0,1.5c0.1,0.5,0.3,0.8,0.6,1.1
			c0.3,0.3,0.7,0.4,1.2,0.4c0.4,0,0.8-0.1,1.1-0.4c0.3-0.2,0.5-0.6,0.6-1.1h1.2c-0.1,0.5-0.3,1-0.6,1.3c-0.3,0.4-0.7,0.6-1.1,0.8
			C64.4,105.6,64,105.7,63.5,105.7z M61.9,101.2l-0.3-0.2H66l-0.4,0.1c0.1-0.5,0.1-0.9,0-1.3c-0.1-0.4-0.2-0.7-0.4-1
			c-0.2-0.3-0.6-0.4-1-0.4c-0.4,0-0.8,0.1-1.2,0.4c-0.3,0.2-0.6,0.6-0.8,1C62,100.3,61.9,100.8,61.9,101.2z"/>
		<path d="M69.9,105.5l0.7-7.8h1l0,1.5c0.3-0.6,0.6-1,1.1-1.3s0.9-0.4,1.5-0.4c0.6,0,1,0.1,1.4,0.4c0.4,0.3,0.6,0.7,0.8,1.2
			s0.2,1.1,0.1,1.8l-0.4,4.6h-1.1l0.4-4.6c0.1-0.8,0-1.3-0.3-1.7c-0.3-0.4-0.7-0.6-1.2-0.6c-0.7,0-1.2,0.3-1.6,0.8
			c-0.4,0.6-0.7,1.3-0.8,2.3l-0.3,3.7H69.9z"/>
		<path d="M82.6,105.7c-0.5,0-1-0.1-1.4-0.4c-0.4-0.3-0.8-0.7-1-1.2c-0.2-0.5-0.4-1.1-0.4-1.8c0-0.5,0.1-1.1,0.2-1.6
			c0.1-0.5,0.4-1.1,0.7-1.5c0.3-0.5,0.7-0.8,1.1-1.1c0.4-0.3,0.9-0.4,1.5-0.4c0.5,0,0.9,0.1,1.2,0.3c0.3,0.2,0.6,0.6,0.8,1l0.4-4.5
			h1.2l-1,11.1h-0.9l0-1.3c-0.3,0.5-0.6,0.9-1,1.1C83.4,105.6,83,105.7,82.6,105.7z M82.8,104.5c0.3,0,0.6-0.1,0.9-0.3
			c0.3-0.2,0.6-0.4,0.8-0.8c0.2-0.3,0.4-0.7,0.4-1.2l0.1-1.6c0,0,0-0.1,0-0.1c0,0,0-0.1,0-0.1c0-0.4-0.1-0.8-0.3-1
			c-0.2-0.3-0.4-0.5-0.7-0.6c-0.3-0.1-0.6-0.2-0.9-0.2c-0.4,0-0.8,0.1-1.1,0.3c-0.3,0.2-0.5,0.5-0.7,0.9c-0.2,0.4-0.3,0.7-0.4,1.1
			s-0.1,0.8-0.1,1.1c0,0.8,0.2,1.3,0.5,1.8C81.9,104.3,82.3,104.5,82.8,104.5z"/>
		<path d="M92.5,105.7c-0.6,0-1.1-0.2-1.6-0.5s-0.8-0.8-1-1.4c-0.2-0.6-0.3-1.3-0.2-2.2c0.1-0.9,0.3-1.6,0.6-2.2
			c0.3-0.6,0.8-1.1,1.3-1.4c0.5-0.3,1.1-0.5,1.7-0.5c0.5,0,0.8,0.1,1.2,0.3s0.6,0.4,0.8,0.7c0.2,0.3,0.4,0.6,0.5,1
			c0.1,0.4,0.1,0.8,0.1,1.3c0,0.2,0,0.3,0,0.5c0,0.2-0.1,0.4-0.1,0.6h-5.2l0.4-0.3c-0.1,0.6-0.1,1.1,0,1.5c0.1,0.5,0.3,0.8,0.6,1.1
			c0.3,0.3,0.7,0.4,1.2,0.4c0.4,0,0.8-0.1,1.1-0.4c0.3-0.2,0.5-0.6,0.6-1.1h1.2c-0.1,0.5-0.3,1-0.6,1.3c-0.3,0.4-0.7,0.6-1.1,0.8
			C93.5,105.6,93,105.7,92.5,105.7z M90.9,101.2l-0.3-0.2h4.5l-0.4,0.1c0.1-0.5,0.1-0.9,0-1.3c-0.1-0.4-0.2-0.7-0.4-1
			c-0.2-0.3-0.6-0.4-1-0.4c-0.4,0-0.8,0.1-1.2,0.4c-0.3,0.2-0.6,0.6-0.8,1C91.1,100.3,91,100.8,90.9,101.2z"/>
		<path d="M99,105.5l0.7-7.8h1l0,1.5c0.3-0.6,0.6-1,1.1-1.3s0.9-0.4,1.5-0.4c0.6,0,1,0.1,1.4,0.4c0.4,0.3,0.6,0.7,0.8,1.2
			s0.2,1.1,0.1,1.8l-0.4,4.6h-1.1l0.4-4.6c0.1-0.8,0-1.3-0.3-1.7c-0.3-0.4-0.7-0.6-1.2-0.6c-0.7,0-1.2,0.3-1.6,0.8
			c-0.4,0.6-0.7,1.3-0.8,2.3l-0.3,3.7H99z"/>
		<path d="M111.6,105.7c-0.6,0-1.1-0.2-1.6-0.5s-0.8-0.8-1.1-1.4c-0.2-0.6-0.3-1.3-0.2-2.2c0.1-0.9,0.3-1.6,0.7-2.2
			c0.4-0.6,0.8-1.1,1.3-1.4c0.5-0.3,1.1-0.5,1.7-0.5c0.4,0,0.7,0.1,1,0.2c0.3,0.1,0.6,0.3,0.8,0.5c0.2,0.2,0.4,0.5,0.5,0.8
			s0.2,0.6,0.2,0.9l-1.2,0.1c-0.1-0.4-0.3-0.8-0.5-1.1c-0.3-0.3-0.6-0.4-1-0.4c-0.4,0-0.7,0.1-1,0.3c-0.3,0.2-0.6,0.6-0.8,1
			s-0.4,1-0.4,1.6c-0.1,0.6,0,1.1,0.1,1.6c0.1,0.4,0.3,0.8,0.6,1c0.3,0.2,0.6,0.4,1.1,0.4c0.5,0,0.9-0.1,1.2-0.4
			c0.3-0.3,0.5-0.7,0.5-1.2h1.2c0,0.5-0.2,1-0.5,1.4c-0.3,0.4-0.6,0.8-1.1,1C112.6,105.6,112.1,105.7,111.6,105.7z"/>
		<path d="M118.1,105.5l0.7-7.8h1.2l-0.7,7.8H118.1z M119.5,95.9c-0.2,0-0.4-0.1-0.5-0.2c-0.1-0.1-0.2-0.3-0.2-0.6
			c0-0.2,0.1-0.4,0.2-0.6c0.1-0.2,0.3-0.2,0.6-0.2c0.2,0,0.4,0.1,0.5,0.2c0.1,0.2,0.2,0.3,0.2,0.6c0,0.2-0.1,0.4-0.3,0.6
			C120,95.8,119.8,95.9,119.5,95.9z"/>
		<path d="M126.1,105.7c-0.6,0-1.1-0.2-1.6-0.5s-0.8-0.8-1-1.4c-0.2-0.6-0.3-1.3-0.2-2.2c0.1-0.9,0.3-1.6,0.6-2.2s0.8-1.1,1.3-1.4
			c0.5-0.3,1.1-0.5,1.7-0.5c0.5,0,0.8,0.1,1.2,0.3c0.3,0.2,0.6,0.4,0.8,0.7c0.2,0.3,0.4,0.6,0.5,1c0.1,0.4,0.1,0.8,0.1,1.3
			c0,0.2,0,0.3,0,0.5c0,0.2-0.1,0.4-0.1,0.6H124l0.4-0.3c-0.1,0.6-0.1,1.1,0,1.5c0.1,0.5,0.3,0.8,0.6,1.1c0.3,0.3,0.7,0.4,1.2,0.4
			c0.4,0,0.8-0.1,1.1-0.4c0.3-0.2,0.5-0.6,0.6-1.1h1.2c-0.1,0.5-0.3,1-0.6,1.3c-0.3,0.4-0.7,0.6-1.1,0.8
			C127,105.6,126.6,105.7,126.1,105.7z M124.5,101.2l-0.3-0.2h4.5l-0.4,0.1c0.1-0.5,0.1-0.9,0-1.3c-0.1-0.4-0.2-0.7-0.4-1
			c-0.2-0.3-0.6-0.4-1-0.4c-0.4,0-0.8,0.1-1.2,0.4c-0.3,0.2-0.6,0.6-0.8,1C124.7,100.3,124.5,100.8,124.5,101.2z"/>
		<path d="M134.9,105.7c-0.6,0-1.1-0.1-1.6-0.3c-0.4-0.2-0.7-0.5-1-0.9c-0.2-0.4-0.3-0.8-0.3-1.3h1.1c0,0.5,0.1,0.8,0.4,1.1
			c0.3,0.3,0.7,0.4,1.3,0.4c0.5,0,0.9-0.1,1.3-0.4s0.5-0.5,0.6-0.9c0-0.3-0.1-0.6-0.3-0.7s-0.5-0.3-0.9-0.4l-1.3-0.5
			c-0.6-0.2-1-0.5-1.3-0.8c-0.3-0.3-0.4-0.8-0.4-1.3c0-0.4,0.2-0.8,0.4-1.1c0.2-0.3,0.6-0.6,1-0.7c0.4-0.2,0.9-0.3,1.5-0.3
			c0.9,0,1.5,0.2,1.9,0.6c0.4,0.4,0.6,0.9,0.6,1.5h-1.1c0-0.3-0.1-0.6-0.4-0.8c-0.3-0.2-0.6-0.3-1-0.3c-0.4,0-0.7,0.1-0.9,0.2
			c-0.2,0.1-0.4,0.3-0.5,0.4s-0.2,0.3-0.2,0.5c0,0.3,0,0.5,0.3,0.7c0.2,0.2,0.5,0.3,0.9,0.5l1.4,0.5c0.5,0.2,1,0.4,1.3,0.8
			c0.3,0.3,0.4,0.8,0.4,1.3c0,0.4-0.2,0.8-0.4,1.1c-0.3,0.3-0.6,0.6-1.1,0.8C136.1,105.6,135.6,105.7,134.9,105.7z"/>
		<path d="M141.5,107.3l-1-0.5c0.3-0.2,0.6-0.3,0.8-0.5s0.4-0.4,0.4-0.7c-0.2,0-0.4-0.1-0.6-0.3c-0.2-0.1-0.2-0.3-0.2-0.6
			c0-0.2,0.1-0.4,0.3-0.6s0.4-0.2,0.7-0.2c0.3,0,0.6,0.1,0.8,0.4c0.2,0.2,0.3,0.5,0.3,0.9c0,0.4-0.1,0.8-0.4,1.2
			C142.4,106.7,142,107,141.5,107.3z"/>
		<path d="M53.9,125.2c-0.3,0-0.5-0.1-0.7-0.4s-0.3-0.7-0.3-1.2c0-0.5,0.1-1,0.2-1.4c0.1-0.4,0.3-0.8,0.6-1.1s0.4-0.6,0.7-0.8
			s0.4-0.4,0.6-0.5l1.4-1.2c0.2-0.2,0.4-0.4,0.6-0.6c0.2-0.2,0.5-0.6,0.6-0.9s0.3-0.8,0.3-1.4c0-0.7-0.2-1.3-0.6-1.7
			c-0.4-0.4-0.9-0.6-1.5-0.6c-0.4,0-0.8,0.1-1.1,0.3c-0.3,0.2-0.5,0.4-0.7,0.7c-0.2,0.3-0.3,0.5-0.3,0.8l0.7,0.6
			c0.1,0.1,0.2,0.2,0.3,0.3c0.1,0.2,0.2,0.4,0.2,0.6c0,0.2-0.1,0.4-0.2,0.6c-0.2,0.1-0.3,0.2-0.5,0.2c-0.2,0-0.5-0.1-0.7-0.4
			c-0.2-0.2-0.4-0.6-0.4-1.1c0-0.5,0.1-1,0.4-1.5c0.2-0.5,0.6-0.9,1.1-1.2c0.5-0.3,1-0.5,1.7-0.5c0.6,0,1.1,0.1,1.5,0.4
			c0.4,0.3,0.8,0.6,1,1s0.4,0.9,0.4,1.5c0,0.6-0.1,1.1-0.4,1.5c-0.3,0.4-0.6,0.8-0.9,1.1c-0.4,0.3-0.7,0.6-1,0.8l-1.5,1.1
			c-0.3,0.2-0.6,0.5-0.9,0.8s-0.5,0.6-0.7,1c-0.2,0.4-0.3,0.8-0.3,1.3c0.1-0.2,0.3-0.4,0.6-0.7c0.3-0.2,0.6-0.3,1-0.3s0.7,0.1,1,0.3
			c0.3,0.2,0.5,0.4,0.7,0.7c0.2,0.2,0.4,0.5,0.7,0.7c0.2,0.2,0.5,0.3,0.8,0.3c0.3,0,0.5-0.1,0.6-0.3c0.1-0.2,0.2-0.4,0.2-0.7
			c0-0.3,0-0.5,0-0.8V121h0.5v1.6c0,0.2,0,0.5,0,0.8c0,0.3-0.1,0.6-0.2,0.9c-0.1,0.3-0.2,0.5-0.4,0.7c-0.2,0.2-0.5,0.3-0.9,0.3
			c-0.4,0-0.7-0.1-0.9-0.2c-0.2-0.2-0.4-0.4-0.6-0.6c-0.2-0.2-0.3-0.5-0.5-0.7c-0.1-0.2-0.3-0.4-0.5-0.6s-0.4-0.2-0.6-0.2
			c-0.3,0-0.5,0.1-0.7,0.3c-0.2,0.2-0.4,0.4-0.4,0.6l0.4,0.2c0.1,0,0.2,0.1,0.3,0.2c0.1,0.1,0.2,0.3,0.2,0.5c0,0.2-0.1,0.3-0.2,0.4
			S54.1,125.2,53.9,125.2z"/>
		<path d="M65.6,125.2c-0.6,0-1-0.2-1.5-0.5c-0.4-0.3-0.8-0.8-1-1.4s-0.5-1.3-0.6-2c-0.1-0.7-0.2-1.5-0.2-2.3c0-0.8,0.1-1.5,0.2-2.3
			c0.1-0.7,0.3-1.4,0.6-2c0.3-0.6,0.6-1.1,1.1-1.4c0.4-0.3,0.9-0.5,1.5-0.5s1,0.2,1.5,0.5c0.4,0.3,0.8,0.8,1.1,1.4
			c0.3,0.6,0.5,1.3,0.6,2c0.1,0.7,0.2,1.5,0.2,2.3c0,0.8-0.1,1.5-0.2,2.3c-0.1,0.7-0.4,1.4-0.6,2s-0.6,1.1-1,1.4
			C66.6,125.1,66.1,125.2,65.6,125.2z M65.6,124.6c0.8,0,1.3-0.3,1.6-0.8s0.5-1.3,0.5-2.2v-5.1c0-0.9-0.2-1.7-0.5-2.2
			c-0.3-0.6-0.9-0.8-1.6-0.8s-1.3,0.3-1.6,0.8c-0.3,0.6-0.5,1.3-0.5,2.2v5.1c0,0.9,0.2,1.7,0.5,2.2
			C64.3,124.4,64.8,124.6,65.6,124.6z"/>
		<path d="M72.9,125.2c-0.3,0-0.5-0.1-0.7-0.4s-0.3-0.7-0.3-1.2c0-0.5,0.1-1,0.2-1.4c0.1-0.4,0.3-0.8,0.6-1.1s0.4-0.6,0.7-0.8
			s0.4-0.4,0.6-0.5l1.4-1.2c0.2-0.2,0.4-0.4,0.6-0.6c0.2-0.2,0.5-0.6,0.6-0.9s0.3-0.8,0.3-1.4c0-0.7-0.2-1.3-0.6-1.7
			c-0.4-0.4-0.9-0.6-1.5-0.6c-0.4,0-0.8,0.1-1.1,0.3c-0.3,0.2-0.5,0.4-0.7,0.7c-0.2,0.3-0.3,0.5-0.3,0.8l0.7,0.6
			c0.1,0.1,0.2,0.2,0.3,0.3c0.1,0.2,0.2,0.4,0.2,0.6c0,0.2-0.1,0.4-0.2,0.6c-0.2,0.1-0.3,0.2-0.5,0.2c-0.2,0-0.5-0.1-0.7-0.4
			c-0.2-0.2-0.4-0.6-0.4-1.1c0-0.5,0.1-1,0.4-1.5c0.2-0.5,0.6-0.9,1.1-1.2c0.5-0.3,1-0.5,1.7-0.5c0.6,0,1.1,0.1,1.5,0.4
			c0.4,0.3,0.8,0.6,1,1s0.4,0.9,0.4,1.5c0,0.6-0.1,1.1-0.4,1.5c-0.3,0.4-0.6,0.8-0.9,1.1c-0.4,0.3-0.7,0.6-1,0.8l-1.5,1.1
			c-0.3,0.2-0.6,0.5-0.9,0.8s-0.5,0.6-0.7,1c-0.2,0.4-0.3,0.8-0.3,1.3c0.1-0.2,0.3-0.4,0.6-0.7c0.3-0.2,0.6-0.3,1-0.3s0.7,0.1,1,0.3
			c0.3,0.2,0.5,0.4,0.7,0.7c0.2,0.2,0.4,0.5,0.7,0.7c0.2,0.2,0.5,0.3,0.8,0.3c0.3,0,0.5-0.1,0.6-0.3c0.1-0.2,0.2-0.4,0.2-0.7
			c0-0.3,0-0.5,0-0.8V121h0.5v1.6c0,0.2,0,0.5,0,0.8c0,0.3-0.1,0.6-0.2,0.9c-0.1,0.3-0.2,0.5-0.4,0.7c-0.2,0.2-0.5,0.3-0.9,0.3
			c-0.4,0-0.7-0.1-0.9-0.2c-0.2-0.2-0.4-0.4-0.6-0.6c-0.2-0.2-0.3-0.5-0.5-0.7c-0.1-0.2-0.3-0.4-0.5-0.6s-0.4-0.2-0.6-0.2
			c-0.3,0-0.5,0.1-0.7,0.3c-0.2,0.2-0.4,0.4-0.4,0.6l0.4,0.2c0.1,0,0.2,0.1,0.3,0.2c0.1,0.1,0.2,0.3,0.2,0.5c0,0.2-0.1,0.3-0.2,0.4
			S73.1,125.2,72.9,125.2z"/>
		<path d="M84.5,125.2c-0.6,0-1-0.2-1.5-0.5c-0.4-0.3-0.8-0.8-1-1.4s-0.5-1.3-0.6-2c-0.1-0.7-0.2-1.5-0.2-2.3c0-0.8,0.1-1.5,0.2-2.3
			c0.1-0.7,0.3-1.4,0.6-2c0.3-0.6,0.6-1.1,1.1-1.4c0.4-0.3,0.9-0.5,1.5-0.5s1,0.2,1.5,0.5c0.4,0.3,0.8,0.8,1.1,1.4
			c0.3,0.6,0.5,1.3,0.6,2c0.1,0.7,0.2,1.5,0.2,2.3c0,0.8-0.1,1.5-0.2,2.3c-0.1,0.7-0.4,1.4-0.6,2s-0.6,1.1-1,1.4
			C85.5,125.1,85,125.2,84.5,125.2z M84.5,124.6c0.8,0,1.3-0.3,1.6-0.8s0.5-1.3,0.5-2.2v-5.1c0-0.9-0.2-1.7-0.5-2.2
			c-0.3-0.6-0.9-0.8-1.6-0.8s-1.3,0.3-1.6,0.8c-0.3,0.6-0.5,1.3-0.5,2.2v5.1c0,0.9,0.2,1.7,0.5,2.2
			C83.2,124.4,83.7,124.6,84.5,124.6z"/>
		<path d="M93.2,126.7l-0.2-0.3c0.2-0.2,0.5-0.3,0.7-0.6c0.2-0.2,0.4-0.4,0.4-0.6c-0.3,0-0.5-0.1-0.7-0.2c-0.2-0.1-0.3-0.4-0.3-0.7
			c0-0.3,0.1-0.5,0.3-0.7c0.2-0.2,0.4-0.3,0.6-0.3c0.2,0,0.4,0.1,0.6,0.2c0.2,0.2,0.3,0.4,0.3,0.8c0,0.3-0.1,0.6-0.3,0.9
			c-0.2,0.3-0.4,0.6-0.7,0.8S93.4,126.6,93.2,126.7z"/>
		<path d="M53.7,144.6v-10.2h3.6c1.2,0,2.1,0.3,2.7,0.8s0.9,1.3,0.9,2.2c0,0.9-0.3,1.6-0.9,2.2c-0.6,0.6-1.5,0.8-2.7,0.8H55v4.2
			H53.7z M55,139.6h2.2c0.8,0,1.3-0.2,1.7-0.6s0.6-0.9,0.6-1.5c0-0.6-0.2-1.1-0.6-1.5c-0.4-0.4-0.9-0.5-1.7-0.5H55V139.6z
			 M59.4,144.6l-2.9-4.6h1.4l3.2,4.6H59.4z"/>
		<path d="M67.7,144.8c-0.7,0-1.3-0.2-1.8-0.5c-0.5-0.3-0.9-0.8-1.3-1.4c-0.3-0.6-0.5-1.3-0.5-2.1c0-0.9,0.2-1.6,0.5-2.2
			c0.3-0.6,0.7-1.1,1.3-1.4s1.1-0.5,1.8-0.5c0.6,0,1.1,0.1,1.5,0.4c0.4,0.2,0.8,0.6,1,1c0.3,0.4,0.4,0.9,0.5,1.4s0.1,1,0.1,1.6h-5.6
			v-0.8H70l-0.4,0.2c0-0.3,0-0.6-0.1-1c-0.1-0.3-0.1-0.6-0.3-0.9c-0.1-0.3-0.3-0.5-0.6-0.6s-0.6-0.2-1-0.2c-0.5,0-0.9,0.1-1.3,0.4
			c-0.3,0.3-0.6,0.6-0.8,1c-0.2,0.4-0.3,0.9-0.3,1.3v0.5c0,0.5,0.1,1,0.2,1.5s0.4,0.8,0.7,1c0.3,0.2,0.8,0.4,1.3,0.4
			s0.9-0.1,1.2-0.4c0.3-0.2,0.5-0.6,0.6-1.1h1.3c-0.1,0.5-0.3,1-0.6,1.3c-0.3,0.4-0.7,0.7-1.1,0.9C68.7,144.7,68.2,144.8,67.7,144.8
			z"/>
		<path d="M74.7,144.6v-7.8h1.1l0.2,1.8v6H74.7z M80.2,144.6v-4.6c0-0.7-0.2-1.3-0.5-1.7s-0.8-0.6-1.5-0.6c-0.5,0-0.9,0.1-1.2,0.4
			c-0.3,0.3-0.6,0.6-0.8,1.1c-0.2,0.5-0.3,1-0.3,1.7h-0.5c0-0.9,0.1-1.7,0.4-2.3s0.6-1.1,1-1.5c0.5-0.3,1-0.5,1.7-0.5
			c0.6,0,1.1,0.1,1.6,0.4c0.4,0.3,0.8,0.7,1,1.2s0.4,1.1,0.4,1.8v4.6H80.2z"/>
		<path d="M88.5,144.8c-0.7,0-1.3-0.2-1.8-0.5c-0.5-0.3-0.9-0.8-1.3-1.4c-0.3-0.6-0.5-1.3-0.5-2.1c0-0.9,0.2-1.6,0.5-2.2
			c0.3-0.6,0.7-1.1,1.3-1.4s1.1-0.5,1.8-0.5c0.6,0,1.1,0.1,1.5,0.4c0.4,0.2,0.8,0.6,1,1c0.3,0.4,0.4,0.9,0.5,1.4s0.1,1,0.1,1.6H86
			v-0.8h4.8l-0.4,0.2c0-0.3,0-0.6-0.1-1c-0.1-0.3-0.1-0.6-0.3-0.9c-0.1-0.3-0.3-0.5-0.6-0.6s-0.6-0.2-1-0.2c-0.5,0-0.9,0.1-1.3,0.4
			c-0.3,0.3-0.6,0.6-0.8,1c-0.2,0.4-0.3,0.9-0.3,1.3v0.5c0,0.5,0.1,1,0.2,1.5s0.4,0.8,0.7,1c0.3,0.2,0.8,0.4,1.3,0.4
			s0.9-0.1,1.2-0.4c0.3-0.2,0.5-0.6,0.6-1.1h1.3c-0.1,0.5-0.3,1-0.6,1.3c-0.3,0.4-0.7,0.7-1.1,0.9C89.6,144.7,89.1,144.8,88.5,144.8
			z M87.9,135.5l-0.6-0.5l2.7-2.9l0.9,0.7L87.9,135.5z"/>
		<path d="M98.2,144.8c-0.7,0-1.3-0.2-1.8-0.5c-0.5-0.3-0.9-0.8-1.3-1.4c-0.3-0.6-0.5-1.3-0.5-2.1c0-0.9,0.2-1.6,0.5-2.2
			c0.3-0.6,0.7-1.1,1.3-1.4s1.1-0.5,1.8-0.5c0.6,0,1.1,0.1,1.5,0.4c0.4,0.2,0.8,0.6,1,1c0.3,0.4,0.4,0.9,0.5,1.4s0.1,1,0.1,1.6h-5.6
			v-0.8h4.8l-0.4,0.2c0-0.3,0-0.6-0.1-1c-0.1-0.3-0.1-0.6-0.3-0.9c-0.1-0.3-0.3-0.5-0.6-0.6s-0.6-0.2-1-0.2c-0.5,0-0.9,0.1-1.3,0.4
			c-0.3,0.3-0.6,0.6-0.8,1c-0.2,0.4-0.3,0.9-0.3,1.3v0.5c0,0.5,0.1,1,0.2,1.5s0.4,0.8,0.7,1c0.3,0.2,0.8,0.4,1.3,0.4
			s0.9-0.1,1.2-0.4c0.3-0.2,0.5-0.6,0.6-1.1h1.3c-0.1,0.5-0.3,1-0.6,1.3c-0.3,0.4-0.7,0.7-1.1,0.9C99.2,144.7,98.7,144.8,98.2,144.8
			z"/>
		<path d="M110.3,144.6v-10.2h3.6c1.2,0,2.1,0.3,2.7,0.8c0.6,0.6,0.9,1.3,0.9,2.2c0,0.9-0.3,1.6-0.9,2.2c-0.6,0.6-1.5,0.8-2.7,0.8
			h-2.3v4.2H110.3z M111.6,139.6h2.2c0.8,0,1.3-0.2,1.7-0.6c0.4-0.4,0.6-0.9,0.6-1.5c0-0.6-0.2-1.1-0.6-1.5s-0.9-0.5-1.7-0.5h-2.3
			V139.6z M116.1,144.6l-2.9-4.6h1.4l3.2,4.6H116.1z"/>
		<path d="M121.6,144.6v-11.1h1.3v11.1H121.6z M127.2,144.6v-4.6c0-0.7-0.2-1.3-0.5-1.7c-0.4-0.4-0.8-0.6-1.5-0.6
			c-0.5,0-0.9,0.1-1.2,0.4c-0.3,0.3-0.6,0.6-0.8,1.1s-0.3,1-0.3,1.7h-0.5c0-0.9,0.1-1.7,0.4-2.3c0.2-0.6,0.6-1.1,1-1.5
			c0.5-0.3,1-0.5,1.7-0.5c0.6,0,1.1,0.1,1.6,0.4c0.4,0.3,0.8,0.7,1,1.2c0.2,0.5,0.4,1.1,0.4,1.8v4.6H127.2z"/>
		<path d="M135.6,144.8c-0.7,0-1.3-0.2-1.9-0.5c-0.5-0.3-1-0.8-1.3-1.4c-0.3-0.6-0.5-1.4-0.5-2.2c0-0.9,0.2-1.6,0.5-2.3
			c0.3-0.6,0.7-1.1,1.3-1.4c0.5-0.3,1.2-0.5,1.9-0.5c0.7,0,1.3,0.2,1.9,0.5c0.5,0.3,1,0.8,1.3,1.4c0.3,0.6,0.5,1.4,0.5,2.3
			c0,0.9-0.2,1.6-0.5,2.2c-0.3,0.6-0.7,1.1-1.3,1.4C136.9,144.7,136.3,144.8,135.6,144.8z M135.6,143.7c0.5,0,0.9-0.1,1.3-0.4
			c0.4-0.2,0.6-0.6,0.8-1c0.2-0.4,0.3-1,0.3-1.6c0-0.9-0.2-1.7-0.6-2.2c-0.4-0.5-1-0.8-1.7-0.8c-0.5,0-0.9,0.1-1.3,0.4
			c-0.4,0.2-0.6,0.6-0.8,1c-0.2,0.4-0.3,1-0.3,1.6c0,0.9,0.2,1.6,0.6,2.2C134.2,143.5,134.8,143.7,135.6,143.7z"/>
		<path d="M145.8,144.8c-0.6,0-1.2-0.2-1.7-0.5s-0.9-0.8-1.3-1.4s-0.5-1.3-0.5-2.2c0-0.8,0.2-1.6,0.5-2.2c0.3-0.6,0.7-1.1,1.2-1.4
			c0.5-0.3,1.1-0.5,1.7-0.5c0.6,0,1.1,0.1,1.5,0.4s0.8,0.7,1,1.2c0.2,0.5,0.4,1.2,0.4,1.9h-0.5c0-0.5-0.1-1-0.3-1.3
			c-0.2-0.4-0.5-0.6-0.8-0.8c-0.3-0.2-0.7-0.3-1.1-0.3c-0.4,0-0.8,0.1-1.2,0.4c-0.4,0.2-0.6,0.6-0.8,1s-0.3,1-0.3,1.6
			c0,0.6,0.1,1.2,0.3,1.6c0.2,0.4,0.5,0.8,0.8,1c0.3,0.2,0.7,0.4,1.2,0.4c0.4,0,0.7-0.1,1-0.3c0.3-0.2,0.6-0.5,0.8-0.8
			c0.2-0.4,0.3-0.8,0.3-1.3h0.5c0,0.8-0.1,1.4-0.4,1.9c-0.2,0.5-0.6,0.9-1,1.2S146.3,144.8,145.8,144.8z M148.3,144.6l-0.2-1.8v-9.3
			h1.3v11.1H148.3z"/>
		<path d="M156.7,144.8c-0.7,0-1.3-0.2-1.8-0.5c-0.5-0.3-0.9-0.8-1.3-1.4c-0.3-0.6-0.5-1.3-0.5-2.1c0-0.9,0.2-1.6,0.5-2.2
			c0.3-0.6,0.7-1.1,1.3-1.4c0.5-0.3,1.1-0.5,1.8-0.5c0.6,0,1.1,0.1,1.5,0.4s0.8,0.6,1,1c0.3,0.4,0.4,0.9,0.5,1.4
			c0.1,0.5,0.1,1,0.1,1.6h-5.6v-0.8h4.8l-0.4,0.2c0-0.3,0-0.6-0.1-1c-0.1-0.3-0.1-0.6-0.3-0.9c-0.1-0.3-0.3-0.5-0.6-0.6
			s-0.6-0.2-1-0.2c-0.5,0-0.9,0.1-1.3,0.4c-0.3,0.3-0.6,0.6-0.8,1c-0.2,0.4-0.3,0.9-0.3,1.3v0.5c0,0.5,0.1,1,0.2,1.5s0.4,0.8,0.7,1
			c0.3,0.2,0.8,0.4,1.3,0.4s0.9-0.1,1.2-0.4c0.3-0.2,0.5-0.6,0.6-1.1h1.3c-0.1,0.5-0.3,1-0.6,1.3c-0.3,0.4-0.7,0.7-1.1,0.9
			C157.7,144.7,157.2,144.8,156.7,144.8z"/>
		<path d="M166.4,144.8c-0.8,0-1.4-0.1-1.9-0.3s-0.9-0.5-1.2-0.9s-0.4-0.8-0.4-1.3h1.2c0,0.5,0.2,0.9,0.6,1.1
			c0.4,0.2,0.9,0.4,1.5,0.4c0.3,0,0.6-0.1,0.9-0.2c0.3-0.1,0.5-0.3,0.7-0.4c0.2-0.2,0.3-0.4,0.3-0.6c0-0.3-0.1-0.5-0.3-0.7
			s-0.6-0.3-1.1-0.5l-1.5-0.5c-0.7-0.2-1.2-0.5-1.5-0.9c-0.4-0.4-0.5-0.8-0.5-1.3c0-0.6,0.3-1.1,0.8-1.5c0.6-0.4,1.3-0.6,2.2-0.6
			c1,0,1.7,0.2,2.2,0.6s0.8,0.9,0.8,1.5H168c0-0.3-0.2-0.6-0.5-0.8c-0.3-0.2-0.7-0.3-1.3-0.3c-0.5,0-0.9,0.1-1.2,0.4
			c-0.3,0.2-0.4,0.5-0.4,0.8c0,0.5,0.5,0.9,1.4,1.2l1.5,0.5c0.7,0.2,1.2,0.5,1.5,0.8c0.4,0.3,0.5,0.7,0.5,1.2c0,0.4-0.1,0.8-0.4,1.1
			c-0.3,0.3-0.6,0.6-1.1,0.8C167.6,144.7,167.1,144.8,166.4,144.8z"/>
		<path d="M172.4,143.9c0-0.3,0.1-0.5,0.3-0.7c0.2-0.2,0.4-0.3,0.7-0.3c0.3,0,0.5,0.1,0.7,0.3c0.2,0.2,0.3,0.4,0.3,0.7
			c0,0.3-0.1,0.5-0.3,0.6c-0.2,0.2-0.4,0.3-0.7,0.3c-0.3,0-0.5-0.1-0.7-0.3S172.4,144.1,172.4,143.9z"/>
	</g>
</g>
</svg>
