<?xml version="1.0" encoding="utf-8"?>
<!-- Generator: Adobe Illustrator 25.4.1, SVG Export Plug-In . SVG Version: 6.00 Build 0)  -->
<svg version="1.1" id="Capa_1" xmlns="http://www.w3.org/2000/svg" xmlns:xlink="http://www.w3.org/1999/xlink" x="0px" y="0px"
	 viewBox="0 0 31 31" style="enable-background:new 0 0 31 31;" xml:space="preserve">
<g>
	<g>
		<path d="M19.13,31h-7.09c-0.5,0-0.96-0.16-1.35-0.49c-0.42-0.34-0.64-0.83-0.64-1.42c0-0.22,0.06-0.52,0.19-0.9l2.6-8.23
			l-5.71,6.4c-0.48,0.55-1.05,0.83-1.69,0.83c-0.73,0-1.31-0.35-1.67-1l-3.54-6.11C0.07,19.78,0,19.48,0,19.18
			c0-0.46,0.18-0.89,0.54-1.29c0.36-0.39,0.85-0.63,1.47-0.7l8.1-1.65l-8.14-1.66c-0.88-0.2-1.46-0.6-1.75-1.18
			c-0.29-0.59-0.29-1.18,0.01-1.71l3.54-6.12C4.22,3.99,4.88,3.8,5.36,3.8c0.58,0,1.17,0.3,1.75,0.89l5.72,6.42l-2.6-8.23
			c-0.13-0.38-0.19-0.67-0.19-0.89c0-0.65,0.21-1.16,0.64-1.5C11.08,0.16,11.54,0,12.04,0h7.09c0.45,0,0.87,0.17,1.24,0.5
			c0.38,0.35,0.58,0.82,0.58,1.4c0,0.12-0.02,0.31-0.18,0.95l-2.61,8.26l5.71-6.4c0.61-0.61,1.2-0.91,1.77-0.91
			c0.48,0,1.14,0.19,1.6,1.1l3.53,6.09c0.16,0.32,0.23,0.59,0.23,0.83c0,0.46-0.18,0.89-0.54,1.29c-0.34,0.38-0.82,0.64-1.42,0.77
			l-8.15,1.66l8.14,1.66c0.86,0.13,1.45,0.5,1.75,1.09l0,0c0.29,0.58,0.29,1.19,0,1.77l-3.56,6.14c-0.19,0.43-0.65,0.99-1.67,0.99
			c-0.64,0-1.21-0.28-1.7-0.83l-5.7-6.4l2.6,8.23c0.13,0.39,0.19,0.67,0.19,0.89c0,0.58-0.19,1.06-0.58,1.4
			C20,30.83,19.58,31,19.13,31z M13.67,17.54l0.75,0.76L11.2,28.5c-0.13,0.38-0.14,0.54-0.14,0.59c0,0.38,0.15,0.55,0.27,0.65
			c0.21,0.17,0.44,0.26,0.71,0.26h7.09c0.21,0,0.39-0.08,0.57-0.24c0.1-0.1,0.25-0.27,0.25-0.66c0-0.05-0.01-0.21-0.14-0.59
			L16.58,18.3l0.75-0.76l7.28,8.17c0.29,0.33,0.6,0.49,0.95,0.49c0.51,0,0.68-0.23,0.78-0.45l3.57-6.16
			c0.13-0.27,0.13-0.55-0.01-0.85c-0.14-0.28-0.49-0.47-1.03-0.55L18.3,16.03v-0.82l0.4-0.25l10.14-2.07
			c0.38-0.09,0.68-0.24,0.88-0.47c0.19-0.21,0.28-0.41,0.28-0.61c0-0.05-0.01-0.16-0.11-0.36l-3.53-6.09
			C26.1,4.86,25.84,4.8,25.64,4.8c-0.3,0-0.65,0.2-1.05,0.6l-7.26,8.14l-0.75-0.75L19.8,2.58c0.13-0.53,0.14-0.66,0.14-0.68
			c0-0.39-0.14-0.56-0.25-0.66C19.51,1.08,19.33,1,19.13,1h-7.09c-0.27,0-0.5,0.08-0.71,0.26c-0.07,0.06-0.27,0.22-0.27,0.73
			c0,0.05,0.01,0.21,0.14,0.59l3.23,10.21l-0.75,0.76L6.39,5.38C6.02,5.01,5.66,4.8,5.36,4.8c-0.2,0-0.46,0.06-0.71,0.55L1.1,11.49
			c-0.14,0.24-0.13,0.47,0.01,0.77c0.15,0.3,0.51,0.52,1.07,0.65l10.52,2.15v0.82l-0.4,0.25L2.17,18.18
			c-0.42,0.05-0.69,0.17-0.88,0.38C1.09,18.77,1,18.97,1,19.18c0,0.15,0.04,0.29,0.11,0.44l3.53,6.09c0.19,0.34,0.44,0.49,0.8,0.49
			c0.35,0,0.65-0.16,0.94-0.49L13.67,17.54z"/>
	</g>
</g>
</svg>
