<?xml version="1.0" encoding="utf-8"?>
<!-- Generator: Adobe Illustrator 25.4.1, SVG Export Plug-In . SVG Version: 6.00 Build 0)  -->
<svg version="1.1" id="Capa_1" xmlns="http://www.w3.org/2000/svg" xmlns:xlink="http://www.w3.org/1999/xlink" x="0px" y="0px"
	 viewBox="0 0 436.55 15.28" style="enable-background:new 0 0 436.55 15.28;" xml:space="preserve">
<g>
	<g>
		<g>
			<path d="M6.59,15.28l0.85-7.21l-4.5,5.68l-1.44-1.44l5.68-4.5L0,8.67V6.62l7.18,0.85l-5.68-4.5l1.44-1.44l4.5,5.68L6.59,0h2.05
				L7.79,7.21l4.5-5.68l1.44,1.44l-5.68,4.5l7.18-0.85v2.05L8.06,7.82l5.68,4.5l-1.44,1.44l-4.5-5.68l0.85,7.21H6.59z"/>
		</g>
	</g>
	<g>
		<g>
			<path d="M217.25,15.28l0.85-7.21l-4.5,5.68l-1.44-1.44l5.68-4.5l-7.18,0.85V6.62l7.18,0.85l-5.68-4.5l1.44-1.44l4.5,5.68
				L217.25,0h2.05l-0.85,7.21l4.5-5.68l1.44,1.44l-5.68,4.5l7.18-0.85v2.05l-7.18-0.85l5.68,4.5l-1.44,1.44l-4.5-5.68l0.85,7.21
				H217.25z"/>
		</g>
	</g>
	<g>
		<g>
			<path d="M427.9,15.28l0.85-7.21l-4.5,5.68l-1.44-1.44l5.68-4.5l-7.18,0.85V6.62l7.18,0.85l-5.68-4.5l1.44-1.44l4.5,5.68L427.9,0
				h2.05l-0.85,7.21l4.5-5.68l1.44,1.44l-5.68,4.5l7.18-0.85v2.05l-7.18-0.85l5.68,4.5l-1.44,1.44l-4.5-5.68l0.85,7.21H427.9z"/>
		</g>
	</g>
</g>
</svg>
